SplineFontDB: 3.2
FontName: Montserrat-Italic
FullName: Montserrat Italic
FamilyName: Montserrat
Weight: Book
Copyright: Copyright 2011 The Montserrat Project Authors (https://github.com/JulietaUla/Montserrat)
Version: 9.000
ItalicAngle: -11.3
UnderlinePosition: -125
UnderlineWidth: 50
Ascent: 800
Descent: 200
InvalidEm: 0
sfntRevision: 0x00090000
LayerCount: 2
Layer: 0 1 "Back" 1
Layer: 1 1 "Fore" 0
XUID: [1021 598 623987363 685487]
StyleMap: 0x0001
FSType: 0
OS2Version: 4
OS2_WeightWidthSlopeOnly: 0
OS2_UseTypoMetrics: 1
CreationTime: 1624264748
ModificationTime: 1775222360
PfmFamily: 81
TTFWeight: 400
TTFWidth: 5
LineGap: 0
VLineGap: 0
Panose: 0 0 0 0 0 0 0 0 0 0
OS2TypoAscent: 968
OS2TypoAOffset: 0
OS2TypoDescent: -251
OS2TypoDOffset: 0
OS2TypoLinegap: 0
OS2WinAscent: 1109
OS2WinAOffset: 0
OS2WinDescent: 453
OS2WinDOffset: 0
HheadAscent: 968
HheadAOffset: 0
HheadDescent: -251
HheadDOffset: 0
OS2SubXSize: 650
OS2SubYSize: 600
OS2SubXOff: -15
OS2SubYOff: 75
OS2SupXSize: 650
OS2SupYSize: 600
OS2SupXOff: 70
OS2SupYOff: 350
OS2StrikeYSize: 50
OS2StrikeYPos: 315
OS2CapHeight: 700
OS2XHeight: 525
OS2Vendor: 'ULA '
OS2CodePages: 20000197.00000000
OS2UnicodeRanges: a00002ff.4000247b.00000000.00000000
Lookup: 1 0 0 "'aalt' Access All Alternates lookup 0" { "'aalt' Access All Alternates lookup 0 subtable"  } ['aalt' ('DFLT' <'NAV ' 'dflt' > 'cyrl' <'BGR ' 'BSH ' 'CHU ' 'MKD ' 'SRB ' 'dflt' > 'latn' <'AZE ' 'CAT ' 'CRT ' 'KAZ ' 'MOL ' 'NAV ' 'NLD ' 'NSM ' 'ROM ' 'TAT ' 'TOD0' 'TRK ' 'VIT ' 'XPE ' 'dflt' > ) ]
Lookup: 3 0 0 "'aalt' Access All Alternates lookup 1" { "'aalt' Access All Alternates lookup 1 subtable"  } ['aalt' ('DFLT' <'NAV ' 'dflt' > 'cyrl' <'BGR ' 'BSH ' 'CHU ' 'MKD ' 'SRB ' 'dflt' > 'latn' <'AZE ' 'CAT ' 'CRT ' 'KAZ ' 'MOL ' 'NAV ' 'NLD ' 'NSM ' 'ROM ' 'TAT ' 'TOD0' 'TRK ' 'VIT ' 'XPE ' 'dflt' > ) ]

StartChar: .notdef
Encoding: 65536 -1 0
Width: 587
GlyphClass: 1
Flags: W
LayerCount: 2
Fore
SplineSet
-13 0 m 1,0,-1
 127 700 l 1,1,-1
 634 700 l 1,2,-1
 494 0 l 1,3,-1
 -13 0 l 1,0,-1
81 70 m 1,4,-1
 428 70 l 1,5,-1
 540 630 l 1,6,-1
 193 630 l 1,7,-1
 81 70 l 1,4,-1
EndSplineSet
EndChar

StartChar: exclam
Encoding: 33 33 6
Width: 260
GlyphClass: 1
Flags: W
LayerCount: 2
Fore
SplineSet
92 210 m 1,0,-1
 175 700 l 1,1,-1
 259 700 l 1,2,-1
 147 210 l 1,3,-1
 92 210 l 1,0,-1
85 -5 m 0,4,5
 63 -5 63 -5 48.5 9.5 c 128,-1,6
 34 24 34 24 34 44 c 0,7,8
 34 67 34 67 50 82.5 c 128,-1,9
 66 98 66 98 88 98 c 256,10,11
 110 98 110 98 124.5 84 c 128,-1,12
 139 70 139 70 139 50 c 0,13,14
 139 35 139 35 131.5 22.5 c 128,-1,15
 124 10 124 10 112 2.5 c 128,-1,16
 100 -5 100 -5 85 -5 c 0,4,5
EndSplineSet
Substitution2: "'smcp' Lowercase to Small Capitals lookup 46 subtable" exclam.sc
Substitution2: "'c2sc' Capitals to Small Capitals lookup 45 subtable" exclam.sc
Substitution2: "'aalt' Access All Alternates lookup 0 subtable" exclam.sc
EndChar

StartChar: numbersign
Encoding: 35 35 8
Width: 696
GlyphClass: 1
Flags: W
LayerCount: 2
Fore
SplineSet
355 0 m 1,0,-1
 579 700 l 1,1,-1
 636 700 l 1,2,-1
 411 0 l 1,3,-1
 355 0 l 1,0,-1
16 190 m 1,4,-1
 27 245 l 1,5,-1
 632 245 l 1,6,-1
 621 190 l 1,7,-1
 16 190 l 1,4,-1
95 0 m 1,8,-1
 320 700 l 1,9,-1
 376 700 l 1,10,-1
 151 0 l 1,11,-1
 95 0 l 1,8,-1
101 455 m 1,12,-1
 111 510 l 1,13,-1
 716 510 l 1,14,-1
 705 455 l 1,15,-1
 101 455 l 1,12,-1
EndSplineSet
EndChar

StartChar: dollar
Encoding: 36 36 9
Width: 615
GlyphClass: 1
Flags: W
LayerCount: 2
Fore
SplineSet
210 -120 m 1,0,-1
 398 820 l 1,1,-1
 447 820 l 1,2,-1
 259 -120 l 1,3,-1
 210 -120 l 1,0,-1
266 -6 m 0,4,5
 215 -6 215 -6 165.5 5.5 c 128,-1,6
 116 17 116 17 76 37.5 c 128,-1,7
 36 58 36 58 12 83 c 1,8,-1
 48 141 l 1,9,10
 72 116 72 116 107.5 97 c 128,-1,11
 143 78 143 78 186 67.5 c 128,-1,12
 229 57 229 57 272 57 c 0,13,14
 334 57 334 57 380.5 73 c 128,-1,15
 427 89 427 89 453 120 c 128,-1,16
 479 151 479 151 479 195 c 0,17,18
 479 230 479 230 459 251.5 c 128,-1,19
 439 273 439 273 407 286.5 c 128,-1,20
 375 300 375 300 336 311 c 128,-1,21
 297 322 297 322 258 335 c 128,-1,22
 219 348 219 348 186.5 367 c 128,-1,23
 154 386 154 386 134.5 417 c 128,-1,24
 115 448 115 448 115 495 c 0,25,26
 115 561 115 561 151 608.5 c 128,-1,27
 187 656 187 656 250 681 c 128,-1,28
 313 706 313 706 395 706 c 0,29,30
 457 706 457 706 514.5 691 c 128,-1,31
 572 676 572 676 612 646 c 1,32,-1
 581 586 l 1,33,34
 543 614 543 614 494 628.5 c 128,-1,35
 445 643 445 643 391 643 c 0,36,37
 330 643 330 643 284 626 c 128,-1,38
 238 609 238 609 212.5 577.5 c 128,-1,39
 187 546 187 546 187 502 c 0,40,41
 187 467 187 467 206.5 445 c 128,-1,42
 226 423 226 423 258.5 409 c 128,-1,43
 291 395 291 395 330 383.5 c 128,-1,44
 369 372 369 372 408 359.5 c 128,-1,45
 447 347 447 347 479.5 328.5 c 128,-1,46
 512 310 512 310 532 280.5 c 128,-1,47
 552 251 552 251 552 205 c 0,48,49
 552 138 552 138 515 90.5 c 128,-1,50
 478 43 478 43 413.5 18.5 c 128,-1,51
 349 -6 349 -6 266 -6 c 0,4,5
EndSplineSet
EndChar

StartChar: percent
Encoding: 37 37 10
Width: 829
GlyphClass: 1
Flags: W
LayerCount: 2
Fore
SplineSet
93 0 m 1,0,-1
 708 700 l 1,1,-1
 770 700 l 1,2,-1
 156 0 l 1,3,-1
 93 0 l 1,0,-1
224 326 m 0,4,5
 162 326 162 326 125.5 365.5 c 128,-1,6
 89 405 89 405 89 475 c 0,7,8
 89 536 89 536 111.5 588 c 128,-1,9
 134 640 134 640 176 672 c 128,-1,10
 218 704 218 704 276 704 c 0,11,12
 338 704 338 704 374.5 664.5 c 128,-1,13
 411 625 411 625 411 555 c 0,14,15
 411 495 411 495 388.5 442.5 c 128,-1,16
 366 390 366 390 324.5 358 c 128,-1,17
 283 326 283 326 224 326 c 0,4,5
228 370 m 0,18,19
 272 370 272 370 301.5 397.5 c 128,-1,20
 331 425 331 425 346 467 c 128,-1,21
 361 509 361 509 361 551 c 0,22,23
 361 604 361 604 337.5 632 c 128,-1,24
 314 660 314 660 272 660 c 0,25,26
 229 660 229 660 199 632.5 c 128,-1,27
 169 605 169 605 154 563 c 128,-1,28
 139 521 139 521 139 479 c 0,29,30
 139 426 139 426 163 398 c 128,-1,31
 187 370 187 370 228 370 c 0,18,19
588 -5 m 0,32,33
 526 -5 526 -5 489 34.5 c 128,-1,34
 452 74 452 74 452 144 c 0,35,36
 452 205 452 205 474.5 257 c 128,-1,37
 497 309 497 309 539.5 341 c 128,-1,38
 582 373 582 373 640 373 c 0,39,40
 702 373 702 373 738.5 333.5 c 128,-1,41
 775 294 775 294 775 224 c 0,42,43
 775 164 775 164 752.5 111.5 c 128,-1,44
 730 59 730 59 688.5 27 c 128,-1,45
 647 -5 647 -5 588 -5 c 0,32,33
592 39 m 0,46,47
 636 39 636 39 665.5 66.5 c 128,-1,48
 695 94 695 94 710 136 c 128,-1,49
 725 178 725 178 725 220 c 0,50,51
 725 273 725 273 701.5 301 c 128,-1,52
 678 329 678 329 636 329 c 0,53,54
 593 329 593 329 562.5 301.5 c 128,-1,55
 532 274 532 274 517 232 c 128,-1,56
 502 190 502 190 502 148 c 0,57,58
 502 95 502 95 526 67 c 128,-1,59
 550 39 550 39 592 39 c 0,46,47
EndSplineSet
EndChar

StartChar: ampersand
Encoding: 38 38 11
Width: 669
GlyphClass: 1
Flags: W
LayerCount: 2
Fore
SplineSet
243 -6 m 0,0,1
 177 -6 177 -6 129.5 13.5 c 128,-1,2
 82 33 82 33 55.5 69 c 128,-1,3
 29 105 29 105 29 154 c 0,4,5
 29 205 29 205 55 246.5 c 128,-1,6
 81 288 81 288 136.5 327 c 128,-1,7
 192 366 192 366 280 406 c 0,8,9
 356 441 356 441 399 467.5 c 128,-1,10
 442 494 442 494 459 519.5 c 128,-1,11
 476 545 476 545 476 577 c 0,12,13
 476 608 476 608 452 630 c 128,-1,14
 428 652 428 652 383 652 c 0,15,16
 326 652 326 652 291.5 621 c 128,-1,17
 257 590 257 590 257 539 c 0,18,19
 257 512 257 512 270.5 482.5 c 128,-1,20
 284 453 284 453 312 416 c 2,21,-1
 610 35 l 1,22,-1
 562 -11 l 1,23,-1
 252 386 l 2,24,25
 223 424 223 424 207 459 c 128,-1,26
 191 494 191 494 191 531 c 0,27,28
 191 585 191 585 216 624 c 128,-1,29
 241 663 241 663 285 684 c 128,-1,30
 329 705 329 705 385 705 c 0,31,32
 431 705 431 705 465.5 690.5 c 128,-1,33
 500 676 500 676 519 648 c 128,-1,34
 538 620 538 620 538 582 c 0,35,36
 538 535 538 535 513.5 498.5 c 128,-1,37
 489 462 489 462 437.5 429 c 128,-1,38
 386 396 386 396 304 359 c 0,39,40
 228 323 228 323 183.5 292.5 c 128,-1,41
 139 262 139 262 119.5 232 c 128,-1,42
 100 202 100 202 100 165 c 0,43,44
 100 115 100 115 138.5 84 c 128,-1,45
 177 53 177 53 248 53 c 0,46,47
 316 53 316 53 376.5 82 c 128,-1,48
 437 111 437 111 486.5 170 c 128,-1,49
 536 229 536 229 570 318 c 1,50,-1
 626 300 l 1,51,52
 587 198 587 198 529 129.5 c 128,-1,53
 471 61 471 61 398.5 27.5 c 128,-1,54
 326 -6 326 -6 243 -6 c 0,0,1
EndSplineSet
Substitution2: "'smcp' Lowercase to Small Capitals lookup 46 subtable" ampersand.sc
Substitution2: "'c2sc' Capitals to Small Capitals lookup 45 subtable" ampersand.sc
Substitution2: "'aalt' Access All Alternates lookup 0 subtable" ampersand.sc
EndChar

StartChar: quotesingle
Encoding: 39 39 12
Width: 202
GlyphClass: 1
Flags: W
LayerCount: 2
Fore
SplineSet
110 436 m 1,0,-1
 157 700 l 1,1,-1
 220 700 l 1,2,-1
 163 436 l 1,3,-1
 110 436 l 1,0,-1
EndSplineSet
Substitution2: "'smcp' Lowercase to Small Capitals lookup 46 subtable" quotesingle.sc
Substitution2: "'c2sc' Capitals to Small Capitals lookup 45 subtable" quotesingle.sc
Substitution2: "'aalt' Access All Alternates lookup 0 subtable" quotesingle.sc
EndChar

StartChar: parenleft
Encoding: 40 40 13
Width: 329
GlyphClass: 1
Flags: W
LayerCount: 2
Fore
SplineSet
132 -194 m 1,0,1
 118 -157 118 -157 107.5 -113 c 128,-1,2
 97 -69 97 -69 91.5 -21.5 c 128,-1,3
 86 26 86 26 86 71 c 0,4,5
 86 163 86 163 102 255.5 c 128,-1,6
 118 348 118 348 147.5 435.5 c 128,-1,7
 177 523 177 523 218.5 601 c 128,-1,8
 260 679 260 679 311 742 c 1,9,-1
 384 742 l 1,10,11
 331 676 331 676 289 595.5 c 128,-1,12
 247 515 247 515 216.5 427 c 128,-1,13
 186 339 186 339 170 247.5 c 128,-1,14
 154 156 154 156 154 67 c 0,15,16
 154 1 154 1 164.5 -62.5 c 128,-1,17
 175 -126 175 -126 196 -194 c 1,18,-1
 132 -194 l 1,0,1
EndSplineSet
Substitution2: "'case' Case-Sensitive Forms lookup 47 subtable" parenleft.case
Substitution2: "'aalt' Access All Alternates lookup 0 subtable" parenleft.case
EndChar

StartChar: parenright
Encoding: 41 41 14
Width: 329
GlyphClass: 1
Flags: W
LayerCount: 2
Fore
SplineSet
-2 -194 m 1,0,1
 51 -127 51 -127 93.5 -47 c 128,-1,2
 136 33 136 33 166 121 c 128,-1,3
 196 209 196 209 212 300.5 c 128,-1,4
 228 392 228 392 228 481 c 0,5,6
 228 547 228 547 218 610.5 c 128,-1,7
 208 674 208 674 186 742 c 1,8,-1
 250 742 l 1,9,10
 265 706 265 706 275 661.5 c 128,-1,11
 285 617 285 617 290.5 570 c 128,-1,12
 296 523 296 523 296 477 c 0,13,14
 296 385 296 385 280 292.5 c 128,-1,15
 264 200 264 200 234.5 112.5 c 128,-1,16
 205 25 205 25 164 -53 c 128,-1,17
 123 -131 123 -131 71 -194 c 1,18,-1
 -2 -194 l 1,0,1
EndSplineSet
Substitution2: "'case' Case-Sensitive Forms lookup 47 subtable" parenright.case
Substitution2: "'aalt' Access All Alternates lookup 0 subtable" parenright.case
EndChar

StartChar: asterisk
Encoding: 42 42 15
Width: 386
GlyphClass: 1
Flags: W
LayerCount: 2
Fore
SplineSet
440 630 m 1,0,-1
 284 551 l 1,1,-1
 287 569 l 1,2,-1
 409 491 l 1,3,-1
 381 449 l 1,4,-1
 260 529 l 1,5,-1
 270 533 l 1,6,-1
 240 380 l 1,7,-1
 193 380 l 1,8,-1
 225 533 l 1,9,-1
 236 528 l 1,10,-1
 86 449 l 1,11,-1
 67 490 l 1,12,-1
 222 569 l 1,13,-1
 220 554 l 1,14,-1
 98 631 l 1,15,-1
 126 673 l 1,16,-1
 245 594 l 1,17,-1
 236 589 l 1,18,-1
 265 742 l 1,19,-1
 312 742 l 1,20,-1
 280 589 l 1,21,-1
 271 593 l 1,22,-1
 422 673 l 1,23,-1
 440 630 l 1,0,-1
EndSplineSet
EndChar

StartChar: plus
Encoding: 43 43 16
Width: 575
GlyphClass: 1
Flags: W
LayerCount: 2
Fore
SplineSet
231 138 m 1,0,-1
 316 562 l 1,1,-1
 379 562 l 1,2,-1
 294 138 l 1,3,-1
 231 138 l 1,0,-1
81 320 m 1,4,-1
 93 379 l 1,5,-1
 529 379 l 1,6,-1
 517 320 l 1,7,-1
 81 320 l 1,4,-1
EndSplineSet
EndChar

StartChar: comma
Encoding: 44 44 17
Width: 212
GlyphClass: 1
Flags: W
LayerCount: 2
Fore
SplineSet
-26 -146 m 1,0,-1
 55 39 l 1,1,-1
 62 -5 l 1,2,3
 40 -5 40 -5 25 10 c 128,-1,4
 10 25 10 25 10 47 c 0,5,6
 10 72 10 72 27 88 c 128,-1,7
 44 104 44 104 66 104 c 256,8,9
 88 104 88 104 102.5 89.5 c 128,-1,10
 117 75 117 75 117 52 c 0,11,12
 117 39 117 39 112.5 27.5 c 128,-1,13
 108 16 108 16 98 -1 c 2,14,-1
 22 -146 l 1,15,-1
 -26 -146 l 1,0,-1
EndSplineSet
EndChar

StartChar: hyphen
Encoding: 45 45 18
Width: 382
GlyphClass: 1
Flags: W
LayerCount: 2
Fore
SplineSet
56 240 m 1,0,-1
 68 302 l 1,1,-1
 330 302 l 1,2,-1
 318 240 l 1,3,-1
 56 240 l 1,0,-1
EndSplineSet
Substitution2: "'case' Case-Sensitive Forms lookup 47 subtable" hyphen.case
Substitution2: "'aalt' Access All Alternates lookup 0 subtable" hyphen.case
EndChar

StartChar: period
Encoding: 46 46 19
Width: 212
GlyphClass: 1
Flags: W
LayerCount: 2
Fore
SplineSet
62 -5 m 0,0,1
 40 -5 40 -5 25 10 c 128,-1,2
 10 25 10 25 10 47 c 0,3,4
 10 72 10 72 27 88 c 128,-1,5
 44 104 44 104 66 104 c 256,6,7
 88 104 88 104 102.5 89.5 c 128,-1,8
 117 75 117 75 117 52 c 0,9,10
 117 35 117 35 109.5 22.5 c 128,-1,11
 102 10 102 10 89 2.5 c 128,-1,12
 76 -5 76 -5 62 -5 c 0,0,1
EndSplineSet
Substitution2: "'smcp' Lowercase to Small Capitals lookup 46 subtable" period.sc
Substitution2: "'c2sc' Capitals to Small Capitals lookup 45 subtable" period.sc
Substitution2: "'aalt' Access All Alternates lookup 0 subtable" period.sc
EndChar

StartChar: slash
Encoding: 47 47 20
Width: 335
GlyphClass: 1
Flags: W
LayerCount: 2
Fore
SplineSet
-99 -100 m 1,0,-1
 417 842 l 1,1,-1
 486 842 l 1,2,-1
 -30 -100 l 1,3,-1
 -99 -100 l 1,0,-1
EndSplineSet
Substitution2: "'case' Case-Sensitive Forms lookup 47 subtable" slash.case
Substitution2: "'frac' Diagonal Fractions lookup 34 subtable" fraction
AlternateSubs2: "'aalt' Access All Alternates lookup 1 subtable" fraction slash.case
EndChar

StartChar: zero
Encoding: 48 48 21
Width: 662
GlyphClass: 1
Flags: W
LayerCount: 2
Fore
SplineSet
287 -6 m 0,0,1
 216 -6 216 -6 165 24 c 128,-1,2
 114 54 114 54 86.5 111 c 128,-1,3
 59 168 59 168 59 247 c 0,4,5
 59 336 59 336 83.5 418.5 c 128,-1,6
 108 501 108 501 153.5 566 c 128,-1,7
 199 631 199 631 263.5 668.5 c 128,-1,8
 328 706 328 706 409 706 c 0,9,10
 481 706 481 706 531.5 676 c 128,-1,11
 582 646 582 646 609.5 589.5 c 128,-1,12
 637 533 637 533 637 453 c 0,13,14
 637 364 637 364 612.5 281.5 c 128,-1,15
 588 199 588 199 542.5 134 c 128,-1,16
 497 69 497 69 432.5 31.5 c 128,-1,17
 368 -6 368 -6 287 -6 c 0,0,1
293 60 m 0,18,19
 358 60 358 60 408.5 95 c 128,-1,20
 459 130 459 130 493.5 188 c 128,-1,21
 528 246 528 246 546 315 c 128,-1,22
 564 384 564 384 564 452 c 0,23,24
 564 543 564 543 521.5 591.5 c 128,-1,25
 479 640 479 640 403 640 c 0,26,27
 338 640 338 640 287.5 605 c 128,-1,28
 237 570 237 570 202.5 512 c 128,-1,29
 168 454 168 454 150 385 c 128,-1,30
 132 316 132 316 132 248 c 0,31,32
 132 157 132 157 174.5 108.5 c 128,-1,33
 217 60 217 60 293 60 c 0,18,19
EndSplineSet
Substitution2: "'onum' Oldstyle Figures lookup 44 subtable" zero.osf
Substitution2: "'tnum' Tabular Numbers lookup 43 subtable" zero.tf
Substitution2: "'frac' Diagonal Fractions lookup 35 subtable" zero.numr
Substitution2: "'dnom' Denominators lookup 33 subtable" zero.dnom
Substitution2: "'numr' Numerators lookup 32 subtable" zero.numr
Substitution2: "'sups' Superscript lookup 31 subtable" zero.sups
Substitution2: "'sinf' Scientific Inferiors lookup 30 subtable" zero.sinf
Substitution2: "'subs' Subscript lookup 29 subtable" zero.subs
AlternateSubs2: "'aalt' Access All Alternates lookup 1 subtable" zero.subs zero.sinf zero.sups zero.numr zero.dnom zero.tf zero.osf
EndChar

StartChar: one
Encoding: 49 49 22
Width: 361
GlyphClass: 1
Flags: W
LayerCount: 2
Fore
SplineSet
121 0 m 1,0,-1
 254 667 l 1,1,-1
 280 636 l 1,2,-1
 83 636 l 1,3,-1
 96 700 l 1,4,-1
 334 700 l 1,5,-1
 194 0 l 1,6,-1
 121 0 l 1,0,-1
EndSplineSet
Substitution2: "'onum' Oldstyle Figures lookup 44 subtable" one.osf
Substitution2: "'tnum' Tabular Numbers lookup 43 subtable" one.tf
Substitution2: "'frac' Diagonal Fractions lookup 35 subtable" one.numr
Substitution2: "'dnom' Denominators lookup 33 subtable" one.dnom
Substitution2: "'numr' Numerators lookup 32 subtable" one.numr
Substitution2: "'sups' Superscript lookup 31 subtable" one.sups
Substitution2: "'sinf' Scientific Inferiors lookup 30 subtable" one.sinf
Substitution2: "'subs' Subscript lookup 29 subtable" one.subs
AlternateSubs2: "'aalt' Access All Alternates lookup 1 subtable" one.subs one.sinf one.sups one.numr one.dnom one.tf one.osf
EndChar

StartChar: two
Encoding: 50 50 23
Width: 568
GlyphClass: 1
Flags: W
LayerCount: 2
Fore
SplineSet
-14 0 m 1,0,-1
 -3 51 l 1,1,-1
 347 335 l 2,2,3
 398 375 398 375 426 407.5 c 128,-1,4
 454 440 454 440 465.5 469 c 128,-1,5
 477 498 477 498 477 529 c 0,6,7
 477 581 477 581 440.5 611.5 c 128,-1,8
 404 642 404 642 326 642 c 0,9,10
 271 642 271 642 220.5 621 c 128,-1,11
 170 600 170 600 133 562 c 1,12,-1
 83 605 l 1,13,14
 126 652 126 652 192.5 679 c 128,-1,15
 259 706 259 706 336 706 c 0,16,17
 406 706 406 706 454 684.5 c 128,-1,18
 502 663 502 663 526.5 625.5 c 128,-1,19
 551 588 551 588 551 538 c 0,20,21
 551 499 551 499 537 460.5 c 128,-1,22
 523 422 523 422 489.5 381.5 c 128,-1,23
 456 341 456 341 397 293 c 2,24,-1
 75 34 l 1,25,-1
 56 64 l 1,26,-1
 491 64 l 1,27,-1
 478 0 l 1,28,-1
 -14 0 l 1,0,-1
EndSplineSet
Substitution2: "'onum' Oldstyle Figures lookup 44 subtable" two.osf
Substitution2: "'tnum' Tabular Numbers lookup 43 subtable" two.tf
Substitution2: "'frac' Diagonal Fractions lookup 35 subtable" two.numr
Substitution2: "'dnom' Denominators lookup 33 subtable" two.dnom
Substitution2: "'numr' Numerators lookup 32 subtable" two.numr
Substitution2: "'sups' Superscript lookup 31 subtable" two.sups
Substitution2: "'sinf' Scientific Inferiors lookup 30 subtable" two.sinf
Substitution2: "'subs' Subscript lookup 29 subtable" two.subs
AlternateSubs2: "'aalt' Access All Alternates lookup 1 subtable" two.subs two.sinf two.sups two.numr two.dnom two.tf two.osf
EndChar

StartChar: three
Encoding: 51 51 24
Width: 564
GlyphClass: 1
Flags: W
LayerCount: 2
Fore
SplineSet
218 -6 m 0,0,1
 138 -6 138 -6 74.5 19 c 128,-1,2
 11 44 11 44 -22 85 c 1,3,-1
 18 141 l 1,4,5
 45 106 45 106 98 83 c 128,-1,6
 151 60 151 60 222 60 c 0,7,8
 288 60 288 60 334.5 79.5 c 128,-1,9
 381 99 381 99 406 135 c 128,-1,10
 431 171 431 171 431 219 c 0,11,12
 431 279 431 279 389.5 309.5 c 128,-1,13
 348 340 348 340 262 340 c 2,14,-1
 217 340 l 1,15,-1
 228 393 l 1,16,-1
 495 663 l 1,17,-1
 504 636 l 1,18,-1
 113 636 l 1,19,-1
 126 700 l 1,20,-1
 575 700 l 1,21,-1
 565 649 l 1,22,-1
 297 378 l 1,23,-1
 263 401 l 1,24,-1
 280 401 l 2,25,26
 353 401 353 401 403 379.5 c 128,-1,27
 453 358 453 358 479 318.5 c 128,-1,28
 505 279 505 279 505 223 c 0,29,30
 505 156 505 156 469 104 c 128,-1,31
 433 52 433 52 368.5 23 c 128,-1,32
 304 -6 304 -6 218 -6 c 0,0,1
EndSplineSet
Substitution2: "'onum' Oldstyle Figures lookup 44 subtable" three.osf
Substitution2: "'tnum' Tabular Numbers lookup 43 subtable" three.tf
Substitution2: "'frac' Diagonal Fractions lookup 35 subtable" three.numr
Substitution2: "'dnom' Denominators lookup 33 subtable" three.dnom
Substitution2: "'numr' Numerators lookup 32 subtable" three.numr
Substitution2: "'sups' Superscript lookup 31 subtable" three.sups
Substitution2: "'sinf' Scientific Inferiors lookup 30 subtable" three.sinf
Substitution2: "'subs' Subscript lookup 29 subtable" three.subs
AlternateSubs2: "'aalt' Access All Alternates lookup 1 subtable" three.subs three.sinf three.sups three.numr three.dnom three.tf three.osf
EndChar

StartChar: four
Encoding: 52 52 25
Width: 661
GlyphClass: 1
Flags: W
LayerCount: 2
Fore
SplineSet
25 184 m 1,0,-1
 35 236 l 1,1,-1
 493 700 l 1,2,-1
 578 700 l 1,3,-1
 122 236 l 1,4,-1
 80 248 l 1,5,-1
 644 248 l 1,6,-1
 632 184 l 1,7,-1
 25 184 l 1,0,-1
382 0 m 1,8,-1
 419 184 l 1,9,-1
 434 248 l 1,10,-1
 467 410 l 1,11,-1
 536 410 l 1,12,-1
 454 0 l 1,13,-1
 382 0 l 1,8,-1
EndSplineSet
Substitution2: "'onum' Oldstyle Figures lookup 44 subtable" four.osf
Substitution2: "'tnum' Tabular Numbers lookup 43 subtable" four.tf
Substitution2: "'frac' Diagonal Fractions lookup 35 subtable" four.numr
Substitution2: "'dnom' Denominators lookup 33 subtable" four.dnom
Substitution2: "'numr' Numerators lookup 32 subtable" four.numr
Substitution2: "'sups' Superscript lookup 31 subtable" four.sups
Substitution2: "'sinf' Scientific Inferiors lookup 30 subtable" four.sinf
Substitution2: "'subs' Subscript lookup 29 subtable" four.subs
AlternateSubs2: "'aalt' Access All Alternates lookup 1 subtable" four.subs four.sinf four.sups four.numr four.dnom four.tf four.osf
EndChar

StartChar: five
Encoding: 53 53 26
Width: 566
GlyphClass: 1
Flags: W
LayerCount: 2
Fore
SplineSet
232 -6 m 0,0,1
 152 -6 152 -6 88.5 19 c 128,-1,2
 25 44 25 44 -8 85 c 1,3,-1
 33 141 l 1,4,5
 60 106 60 106 113 83 c 128,-1,6
 166 60 166 60 237 60 c 0,7,8
 336 60 336 60 391 103.5 c 128,-1,9
 446 147 446 147 446 222 c 0,10,11
 446 281 446 281 401 315 c 128,-1,12
 356 349 356 349 251 349 c 2,13,-1
 89 349 l 1,14,-1
 195 700 l 1,15,-1
 577 700 l 1,16,-1
 564 636 l 1,17,-1
 210 636 l 1,18,-1
 258 671 l 1,19,-1
 167 377 l 1,20,-1
 135 413 l 1,21,-1
 263 413 l 2,22,23
 396 413 396 413 457.5 363.5 c 128,-1,24
 519 314 519 314 519 230 c 0,25,26
 519 158 519 158 483.5 105 c 128,-1,27
 448 52 448 52 383.5 23 c 128,-1,28
 319 -6 319 -6 232 -6 c 0,0,1
EndSplineSet
Substitution2: "'onum' Oldstyle Figures lookup 44 subtable" five.osf
Substitution2: "'tnum' Tabular Numbers lookup 43 subtable" five.tf
Substitution2: "'frac' Diagonal Fractions lookup 35 subtable" five.numr
Substitution2: "'dnom' Denominators lookup 33 subtable" five.dnom
Substitution2: "'numr' Numerators lookup 32 subtable" five.numr
Substitution2: "'sups' Superscript lookup 31 subtable" five.sups
Substitution2: "'sinf' Scientific Inferiors lookup 30 subtable" five.sinf
Substitution2: "'subs' Subscript lookup 29 subtable" five.subs
AlternateSubs2: "'aalt' Access All Alternates lookup 1 subtable" five.subs five.sinf five.sups five.numr five.dnom five.tf five.osf
EndChar

StartChar: six
Encoding: 54 54 27
Width: 609
GlyphClass: 1
Flags: W
LayerCount: 2
Fore
SplineSet
317 -6 m 0,0,1
 242 -6 242 -6 183.5 25 c 128,-1,2
 125 56 125 56 92.5 117.5 c 128,-1,3
 60 179 60 179 60 271 c 0,4,5
 60 330 60 330 73 391.5 c 128,-1,6
 86 453 86 453 114.5 509.5 c 128,-1,7
 143 566 143 566 188 610.5 c 128,-1,8
 233 655 233 655 297 680.5 c 128,-1,9
 361 706 361 706 445 706 c 0,10,11
 494 706 494 706 538 697 c 128,-1,12
 582 688 582 688 613 667 c 1,13,-1
 579 609 l 1,14,15
 551 628 551 628 515 635.5 c 128,-1,16
 479 643 479 643 441 643 c 0,17,18
 376 643 376 643 326.5 622.5 c 128,-1,19
 277 602 277 602 241.5 567.5 c 128,-1,20
 206 533 206 533 183 488.5 c 128,-1,21
 160 444 160 444 148.5 394.5 c 128,-1,22
 137 345 137 345 136 296 c 0,23,24
 135 272 135 272 135 259.5 c 128,-1,25
 135 247 135 247 135 237 c 1,26,-1
 105 244 l 1,27,28
 122 308 122 308 158 346.5 c 128,-1,29
 194 385 194 385 243 402 c 128,-1,30
 292 419 292 419 345 419 c 0,31,32
 408 419 408 419 458.5 396 c 128,-1,33
 509 373 509 373 539.5 329 c 128,-1,34
 570 285 570 285 570 222 c 0,35,36
 570 152 570 152 537.5 100.5 c 128,-1,37
 505 49 505 49 448 21.5 c 128,-1,38
 391 -6 391 -6 317 -6 c 0,0,1
316 55 m 0,39,40
 397 55 397 55 447 98 c 128,-1,41
 497 141 497 141 497 217 c 0,42,43
 497 286 497 286 450 322 c 128,-1,44
 403 358 403 358 330 358 c 0,45,46
 274 358 274 358 231.5 337 c 128,-1,47
 189 316 189 316 165.5 280 c 128,-1,48
 142 244 142 244 142 199 c 0,49,50
 142 164 142 164 161.5 130.5 c 128,-1,51
 181 97 181 97 220 76 c 128,-1,52
 259 55 259 55 316 55 c 0,39,40
EndSplineSet
Substitution2: "'onum' Oldstyle Figures lookup 44 subtable" six.osf
Substitution2: "'tnum' Tabular Numbers lookup 43 subtable" six.tf
Substitution2: "'frac' Diagonal Fractions lookup 35 subtable" six.numr
Substitution2: "'dnom' Denominators lookup 33 subtable" six.dnom
Substitution2: "'numr' Numerators lookup 32 subtable" six.numr
Substitution2: "'sups' Superscript lookup 31 subtable" six.sups
Substitution2: "'sinf' Scientific Inferiors lookup 30 subtable" six.sinf
Substitution2: "'subs' Subscript lookup 29 subtable" six.subs
AlternateSubs2: "'aalt' Access All Alternates lookup 1 subtable" six.subs six.sinf six.sups six.numr six.dnom six.tf six.osf
EndChar

StartChar: seven
Encoding: 55 55 28
Width: 589
GlyphClass: 1
Flags: W
LayerCount: 2
Fore
SplineSet
122 0 m 1,0,-1
 555 668 l 1,1,-1
 574 636 l 1,2,-1
 141 636 l 1,3,-1
 185 671 l 1,4,-1
 152 505 l 1,5,-1
 81 505 l 1,6,-1
 119 700 l 1,7,-1
 634 700 l 1,8,-1
 624 649 l 1,9,-1
 204 0 l 1,10,-1
 122 0 l 1,0,-1
EndSplineSet
Substitution2: "'onum' Oldstyle Figures lookup 44 subtable" seven.osf
Substitution2: "'tnum' Tabular Numbers lookup 43 subtable" seven.tf
Substitution2: "'frac' Diagonal Fractions lookup 35 subtable" seven.numr
Substitution2: "'dnom' Denominators lookup 33 subtable" seven.dnom
Substitution2: "'numr' Numerators lookup 32 subtable" seven.numr
Substitution2: "'sups' Superscript lookup 31 subtable" seven.sups
Substitution2: "'sinf' Scientific Inferiors lookup 30 subtable" seven.sinf
Substitution2: "'subs' Subscript lookup 29 subtable" seven.subs
AlternateSubs2: "'aalt' Access All Alternates lookup 1 subtable" seven.subs seven.sinf seven.sups seven.numr seven.dnom seven.tf seven.osf
EndChar

StartChar: eight
Encoding: 56 56 29
Width: 638
GlyphClass: 1
Flags: W
LayerCount: 2
Fore
SplineSet
291 -6 m 0,0,1
 212 -6 212 -6 154 16.5 c 128,-1,2
 96 39 96 39 65 80.5 c 128,-1,3
 34 122 34 122 34 179 c 0,4,5
 34 243 34 243 67.5 289.5 c 128,-1,6
 101 336 101 336 164.5 361.5 c 128,-1,7
 228 387 228 387 317 387 c 0,8,9
 399 387 399 387 457 365.5 c 128,-1,10
 515 344 515 344 545.5 303.5 c 128,-1,11
 576 263 576 263 576 208 c 0,12,13
 576 142 576 142 540.5 94 c 128,-1,14
 505 46 505 46 441 20 c 128,-1,15
 377 -6 377 -6 291 -6 c 0,0,1
294 55 m 0,16,17
 391 55 391 55 447 96 c 128,-1,18
 503 137 503 137 503 207 c 0,19,20
 503 267 503 267 453 301.5 c 128,-1,21
 403 336 403 336 315 336 c 0,22,23
 218 336 218 336 162.5 295 c 128,-1,24
 107 254 107 254 107 184 c 0,25,26
 107 124 107 124 156.5 89.5 c 128,-1,27
 206 55 206 55 294 55 c 0,16,17
361 344 m 0,28,29
 285 344 285 344 232 364 c 128,-1,30
 179 384 179 384 152 421 c 128,-1,31
 125 458 125 458 125 508 c 0,32,33
 125 569 125 569 157 613.5 c 128,-1,34
 189 658 189 658 247 682 c 128,-1,35
 305 706 305 706 382 706 c 0,36,37
 453 706 453 706 506 685.5 c 128,-1,38
 559 665 559 665 588.5 627 c 128,-1,39
 618 589 618 589 618 536 c 0,40,41
 618 477 618 477 587.5 434 c 128,-1,42
 557 391 557 391 499.5 367.5 c 128,-1,43
 442 344 442 344 361 344 c 0,28,29
362 393 m 0,44,45
 447 393 447 393 496 430 c 128,-1,46
 545 467 545 467 545 527 c 0,47,48
 545 582 545 582 500 613.5 c 128,-1,49
 455 645 455 645 379 645 c 0,50,51
 297 645 297 645 247.5 608.5 c 128,-1,52
 198 572 198 572 198 509 c 0,53,54
 198 456 198 456 241 424.5 c 128,-1,55
 284 393 284 393 362 393 c 0,44,45
EndSplineSet
Substitution2: "'onum' Oldstyle Figures lookup 44 subtable" eight.osf
Substitution2: "'tnum' Tabular Numbers lookup 43 subtable" eight.tf
Substitution2: "'frac' Diagonal Fractions lookup 35 subtable" eight.numr
Substitution2: "'dnom' Denominators lookup 33 subtable" eight.dnom
Substitution2: "'numr' Numerators lookup 32 subtable" eight.numr
Substitution2: "'sups' Superscript lookup 31 subtable" eight.sups
Substitution2: "'sinf' Scientific Inferiors lookup 30 subtable" eight.sinf
Substitution2: "'subs' Subscript lookup 29 subtable" eight.subs
AlternateSubs2: "'aalt' Access All Alternates lookup 1 subtable" eight.subs eight.sinf eight.sups eight.numr eight.dnom eight.tf eight.osf
EndChar

StartChar: nine
Encoding: 57 57 30
Width: 609
GlyphClass: 1
Flags: W
LayerCount: 2
Fore
SplineSet
327 706 m 0,0,1
 403 706 403 706 461 675 c 128,-1,2
 519 644 519 644 551.5 583 c 128,-1,3
 584 522 584 522 584 429 c 0,4,5
 584 370 584 370 571 308.5 c 128,-1,6
 558 247 558 247 529.5 190.5 c 128,-1,7
 501 134 501 134 456 89.5 c 128,-1,8
 411 45 411 45 347 19.5 c 128,-1,9
 283 -6 283 -6 198 -6 c 0,10,11
 150 -6 150 -6 106.5 3 c 128,-1,12
 63 12 63 12 31 33 c 1,13,-1
 65 91 l 1,14,15
 94 72 94 72 129 64.5 c 128,-1,16
 164 57 164 57 203 57 c 0,17,18
 268 57 268 57 317.5 77.5 c 128,-1,19
 367 98 367 98 402.5 132.5 c 128,-1,20
 438 167 438 167 461 211.5 c 128,-1,21
 484 256 484 256 495.5 305.5 c 128,-1,22
 507 355 507 355 508 404 c 0,23,24
 509 428 509 428 509 440.5 c 128,-1,25
 509 453 509 453 509 463 c 1,26,-1
 539 456 l 1,27,28
 523 393 523 393 486.5 354 c 128,-1,29
 450 315 450 315 401 298 c 128,-1,30
 352 281 352 281 299 281 c 0,31,32
 237 281 237 281 185.5 304 c 128,-1,33
 134 327 134 327 104 371 c 128,-1,34
 74 415 74 415 74 478 c 0,35,36
 74 549 74 549 106.5 600 c 128,-1,37
 139 651 139 651 196 678.5 c 128,-1,38
 253 706 253 706 327 706 c 0,0,1
328 645 m 0,39,40
 247 645 247 645 197 602 c 128,-1,41
 147 559 147 559 147 483 c 0,42,43
 147 415 147 415 193.5 378.5 c 128,-1,44
 240 342 240 342 314 342 c 0,45,46
 370 342 370 342 412.5 363 c 128,-1,47
 455 384 455 384 478.5 420.5 c 128,-1,48
 502 457 502 457 502 501 c 0,49,50
 502 537 502 537 482 570 c 128,-1,51
 462 603 462 603 424 624 c 128,-1,52
 386 645 386 645 328 645 c 0,39,40
EndSplineSet
Substitution2: "'onum' Oldstyle Figures lookup 44 subtable" nine.osf
Substitution2: "'tnum' Tabular Numbers lookup 43 subtable" nine.tf
Substitution2: "'frac' Diagonal Fractions lookup 35 subtable" nine.numr
Substitution2: "'dnom' Denominators lookup 33 subtable" nine.dnom
Substitution2: "'numr' Numerators lookup 32 subtable" nine.numr
Substitution2: "'sups' Superscript lookup 31 subtable" nine.sups
Substitution2: "'sinf' Scientific Inferiors lookup 30 subtable" nine.sinf
Substitution2: "'subs' Subscript lookup 29 subtable" nine.subs
AlternateSubs2: "'aalt' Access All Alternates lookup 1 subtable" nine.subs nine.sinf nine.sups nine.numr nine.dnom nine.tf nine.osf
EndChar

StartChar: less
Encoding: 60 60 33
Width: 575
GlyphClass: 1
Flags: W
LayerCount: 2
Fore
SplineSet
563 557 m 1,0,-1
 549 491 l 1,1,-1
 108 330 l 1,2,-1
 114 363 l 1,3,-1
 493 202 l 1,4,-1
 481 143 l 1,5,-1
 80 317 l 1,6,-1
 93 383 l 1,7,-1
 563 557 l 1,0,-1
EndSplineSet
EndChar

StartChar: equal
Encoding: 61 61 34
Width: 575
GlyphClass: 1
Flags: W
LayerCount: 2
Fore
SplineSet
105 435 m 1,0,-1
 117 494 l 1,1,-1
 552 494 l 1,2,-1
 539 435 l 1,3,-1
 105 435 l 1,0,-1
59 205 m 1,4,-1
 71 264 l 1,5,-1
 506 264 l 1,6,-1
 494 205 l 1,7,-1
 59 205 l 1,4,-1
EndSplineSet
EndChar

StartChar: greater
Encoding: 62 62 35
Width: 575
GlyphClass: 1
Flags: W
LayerCount: 2
Fore
SplineSet
47 143 m 1,0,-1
 61 209 l 1,1,-1
 501 370 l 1,2,-1
 494 337 l 1,3,-1
 118 498 l 1,4,-1
 130 557 l 1,5,-1
 529 383 l 1,6,-1
 516 317 l 1,7,-1
 47 143 l 1,0,-1
EndSplineSet
EndChar

StartChar: question
Encoding: 63 63 36
Width: 567
GlyphClass: 1
Flags: W
LayerCount: 2
Fore
SplineSet
225 210 m 1,0,1
 233 255 233 255 254 286.5 c 128,-1,2
 275 318 275 318 303 341.5 c 128,-1,3
 331 365 331 365 360.5 385.5 c 128,-1,4
 390 406 390 406 415 427 c 128,-1,5
 440 448 440 448 455.5 475 c 128,-1,6
 471 502 471 502 471 540 c 0,7,8
 471 589 471 589 434.5 616 c 128,-1,9
 398 643 398 643 329 643 c 0,10,11
 263 643 263 643 213.5 622.5 c 128,-1,12
 164 602 164 602 126 562 c 1,13,-1
 79 605 l 1,14,15
 123 654 123 654 188.5 680 c 128,-1,16
 254 706 254 706 339 706 c 0,17,18
 403 706 403 706 449 687.5 c 128,-1,19
 495 669 495 669 520 634.5 c 128,-1,20
 545 600 545 600 545 551 c 0,21,22
 545 504 545 504 529.5 470.5 c 128,-1,23
 514 437 514 437 489 413 c 128,-1,24
 464 389 464 389 435 368 c 128,-1,25
 406 347 406 347 378 325.5 c 128,-1,26
 350 304 350 304 328.5 276.5 c 128,-1,27
 307 249 307 249 298 210 c 1,28,-1
 225 210 l 1,0,1
227 -5 m 0,29,30
 206 -5 206 -5 191.5 9.5 c 128,-1,31
 177 24 177 24 177 44 c 0,32,33
 177 67 177 67 193 82.5 c 128,-1,34
 209 98 209 98 231 98 c 0,35,36
 252 98 252 98 266.5 84 c 128,-1,37
 281 70 281 70 281 50 c 0,38,39
 281 35 281 35 274 22.5 c 128,-1,40
 267 10 267 10 254.5 2.5 c 128,-1,41
 242 -5 242 -5 227 -5 c 0,29,30
EndSplineSet
Substitution2: "'smcp' Lowercase to Small Capitals lookup 46 subtable" question.sc
Substitution2: "'c2sc' Capitals to Small Capitals lookup 45 subtable" question.sc
Substitution2: "'aalt' Access All Alternates lookup 0 subtable" question.sc
EndChar

StartChar: at
Encoding: 64 64 37
Width: 1033
GlyphClass: 1
Flags: W
LayerCount: 2
Fore
SplineSet
439 -200 m 0,0,1
 315 -200 315 -200 226 -153 c 128,-1,2
 137 -106 137 -106 89.5 -22 c 128,-1,3
 42 62 42 62 42 172 c 0,4,5
 42 281 42 281 80 378 c 128,-1,6
 118 475 118 475 189 548.5 c 128,-1,7
 260 622 260 622 360 664 c 128,-1,8
 460 706 460 706 584 706 c 0,9,10
 714 706 714 706 804.5 660.5 c 128,-1,11
 895 615 895 615 942 533.5 c 128,-1,12
 989 452 989 452 989 343 c 0,13,14
 989 274 989 274 972.5 211.5 c 128,-1,15
 956 149 956 149 926.5 100.5 c 128,-1,16
 897 52 897 52 857.5 23.5 c 128,-1,17
 818 -5 818 -5 772 -5 c 0,18,19
 717 -5 717 -5 689 27 c 128,-1,20
 661 59 661 59 673 113 c 2,21,-1
 688 185 l 1,22,-1
 712 249 l 1,23,-1
 719 354 l 1,24,-1
 750 507 l 1,25,-1
 815 507 l 1,26,-1
 739 127 l 2,27,28
 731 87 731 87 745 69.5 c 128,-1,29
 759 52 759 52 788 52 c 0,30,31
 820 52 820 52 847 77 c 128,-1,32
 874 102 874 102 894.5 144 c 128,-1,33
 915 186 915 186 926.5 237 c 128,-1,34
 938 288 938 288 938 342 c 0,35,36
 938 436 938 436 897.5 506.5 c 128,-1,37
 857 577 857 577 777 616 c 128,-1,38
 697 655 697 655 578 655 c 0,39,40
 469 655 469 655 380.5 617.5 c 128,-1,41
 292 580 292 580 229 514 c 128,-1,42
 166 448 166 448 132 360.5 c 128,-1,43
 98 273 98 273 98 175 c 0,44,45
 98 79 98 79 137.5 6 c 128,-1,46
 177 -67 177 -67 254.5 -108 c 128,-1,47
 332 -149 332 -149 444 -149 c 0,48,49
 498 -149 498 -149 548 -138 c 128,-1,50
 598 -127 598 -127 639 -106 c 1,51,-1
 650 -156 l 1,52,53
 607 -177 607 -177 551.5 -188.5 c 128,-1,54
 496 -200 496 -200 439 -200 c 0,0,1
468 -5 m 0,55,56
 404 -5 404 -5 354.5 21 c 128,-1,57
 305 47 305 47 277.5 95 c 128,-1,58
 250 143 250 143 250 208 c 0,59,60
 250 272 250 272 271 327 c 128,-1,61
 292 382 292 382 330 423.5 c 128,-1,62
 368 465 368 465 420 488 c 128,-1,63
 472 511 472 511 535 511 c 0,64,65
 636 511 636 511 690 456.5 c 128,-1,66
 744 402 744 402 745 302 c 0,67,68
 746 217 746 217 713 147.5 c 128,-1,69
 680 78 680 78 618 36.5 c 128,-1,70
 556 -5 556 -5 468 -5 c 0,55,56
482 53 m 0,71,72
 547 53 547 53 597 85 c 128,-1,73
 647 117 647 117 676 171.5 c 128,-1,74
 705 226 705 226 705 295 c 0,75,76
 705 371 705 371 660 412 c 128,-1,77
 615 453 615 453 536 453 c 0,78,79
 473 453 473 453 423 422 c 128,-1,80
 373 391 373 391 344.5 336.5 c 128,-1,81
 316 282 316 282 316 212 c 0,82,83
 316 136 316 136 360 94.5 c 128,-1,84
 404 53 404 53 482 53 c 0,71,72
EndSplineSet
Substitution2: "'case' Case-Sensitive Forms lookup 47 subtable" at.case
Substitution2: "'aalt' Access All Alternates lookup 0 subtable" at.case
EndChar

StartChar: A
Encoding: 65 65 38
Width: 717
GlyphClass: 2
Flags: W
AnchorPoint: "Anchor-3" 446 700 basechar 0
AnchorPoint: "Anchor-2" 663 0 basechar 0
AnchorPoint: "Anchor-0" 306 0 basechar 0
LayerCount: 2
Fore
SplineSet
-50 0 m 1,0,-1
 410 700 l 1,1,-1
 483 700 l 1,2,-1
 663 0 l 1,3,-1
 589 0 l 1,4,-1
 425 659 l 1,5,-1
 455 659 l 1,6,-1
 30 0 l 1,7,-1
 -50 0 l 1,0,-1
113 187 m 1,8,-1
 147 247 l 1,9,-1
 554 247 l 1,10,-1
 565 187 l 1,11,-1
 113 187 l 1,8,-1
EndSplineSet
Substitution2: "'ss01' Style Set 1 lookup 50 subtable" A.ss01
Substitution2: "'c2sc' Capitals to Small Capitals lookup 45 subtable" a.sc
Substitution2: "Single Substitution lookup 39 subtable" ordfeminine
AlternateSubs2: "'aalt' Access All Alternates lookup 1 subtable" ordfeminine a.sc A.ss01
EndChar

StartChar: B
Encoding: 66 66 39
Width: 754
GlyphClass: 2
Flags: W
AnchorPoint: "Anchor-3" 464 700 basechar 0
AnchorPoint: "Anchor-0" 324 0 basechar 0
LayerCount: 2
Fore
SplineSet
62 0 m 1,0,-1
 202 700 l 1,1,-1
 501 700 l 2,2,3
 602 700 602 700 659 662 c 128,-1,4
 716 624 716 624 716 551 c 0,5,6
 716 483 716 483 683 437.5 c 128,-1,7
 650 392 650 392 596.5 369 c 128,-1,8
 543 346 543 346 481 346 c 1,9,-1
 503 369 l 1,10,11
 587 369 587 369 636.5 330.5 c 128,-1,12
 686 292 686 292 686 217 c 0,13,14
 686 147 686 147 649.5 98 c 128,-1,15
 613 49 613 49 546 24.5 c 128,-1,16
 479 0 479 0 387 0 c 2,17,-1
 62 0 l 1,0,-1
147 61 m 1,18,-1
 393 61 l 2,19,20
 498 61 498 61 555.5 101 c 128,-1,21
 613 141 613 141 613 216 c 0,22,23
 613 276 613 276 571.5 300 c 128,-1,24
 530 324 530 324 450 324 c 2,25,-1
 187 324 l 1,26,-1
 199 385 l 1,27,-1
 435 385 l 2,28,29
 495 385 495 385 541.5 402 c 128,-1,30
 588 419 588 419 614 453.5 c 128,-1,31
 640 488 640 488 640 538 c 0,32,33
 640 590 640 590 600 614.5 c 128,-1,34
 560 639 560 639 487 639 c 2,35,-1
 262 639 l 1,36,-1
 147 61 l 1,18,-1
EndSplineSet
Substitution2: "'c2sc' Capitals to Small Capitals lookup 45 subtable" b.sc
Substitution2: "'aalt' Access All Alternates lookup 0 subtable" b.sc
EndChar

StartChar: C
Encoding: 67 67 40
Width: 719
GlyphClass: 2
Flags: W
AnchorPoint: "Anchor-3" 497 700 basechar 0
AnchorPoint: "Anchor-0" 361 0 basechar 0
LayerCount: 2
Fore
SplineSet
391 -6 m 0,0,1
 287 -6 287 -6 214 30.5 c 128,-1,2
 141 67 141 67 102.5 132.5 c 128,-1,3
 64 198 64 198 64 285 c 0,4,5
 64 371 64 371 93.5 447 c 128,-1,6
 123 523 123 523 178.5 581.5 c 128,-1,7
 234 640 234 640 312.5 673 c 128,-1,8
 391 706 391 706 490 706 c 0,9,10
 574 706 574 706 639 680 c 128,-1,11
 704 654 704 654 739 604 c 1,12,-1
 687 558 l 1,13,14
 654 599 654 599 604 619.5 c 128,-1,15
 554 640 554 640 484 640 c 0,16,17
 405 640 405 640 340.5 612.5 c 128,-1,18
 276 585 276 585 231 536 c 128,-1,19
 186 487 186 487 161.5 423.5 c 128,-1,20
 137 360 137 360 137 288 c 0,21,22
 137 221 137 221 166.5 169.5 c 128,-1,23
 196 118 196 118 254 89 c 128,-1,24
 312 60 312 60 396 60 c 0,25,26
 465 60 465 60 521 81 c 128,-1,27
 577 102 577 102 619 143 c 1,28,-1
 662 94 l 1,29,30
 616 45 616 45 545 19.5 c 128,-1,31
 474 -6 474 -6 391 -6 c 0,0,1
EndSplineSet
Substitution2: "'c2sc' Capitals to Small Capitals lookup 45 subtable" c.sc
Substitution2: "'aalt' Access All Alternates lookup 0 subtable" c.sc
EndChar

StartChar: D
Encoding: 68 68 41
Width: 826
GlyphClass: 2
Flags: W
AnchorPoint: "Anchor-3" 469 699 basechar 0
AnchorPoint: "Anchor-1" 220 356 basechar 0
AnchorPoint: "Anchor-0" 334 0 basechar 0
LayerCount: 2
Fore
SplineSet
62 0 m 1,0,-1
 202 700 l 1,1,-1
 468 700 l 2,2,3
 574 700 574 700 647.5 664.5 c 128,-1,4
 721 629 721 629 759.5 565.5 c 128,-1,5
 798 502 798 502 798 415 c 0,6,7
 798 323 798 323 767.5 246.5 c 128,-1,8
 737 170 737 170 679.5 115 c 128,-1,9
 622 60 622 60 542 30 c 128,-1,10
 462 0 462 0 363 0 c 2,11,-1
 62 0 l 1,0,-1
148 64 m 1,12,-1
 365 64 l 2,13,14
 476 64 476 64 556.5 109 c 128,-1,15
 637 154 637 154 680.5 232.5 c 128,-1,16
 724 311 724 311 724 412 c 0,17,18
 724 479 724 479 695 529.5 c 128,-1,19
 666 580 666 580 607.5 608 c 128,-1,20
 549 636 549 636 460 636 c 2,21,-1
 262 636 l 1,22,-1
 148 64 l 1,12,-1
EndSplineSet
Substitution2: "'c2sc' Capitals to Small Capitals lookup 45 subtable" d.sc
Substitution2: "'aalt' Access All Alternates lookup 0 subtable" d.sc
EndChar

StartChar: E
Encoding: 69 69 42
Width: 669
GlyphClass: 2
Flags: W
AnchorPoint: "Anchor-3" 442 700 basechar 0
AnchorPoint: "Anchor-2" 556 0 basechar 0
AnchorPoint: "Anchor-0" 315 0 basechar 0
LayerCount: 2
Fore
SplineSet
205 387 m 1,0,-1
 575 387 l 1,1,-1
 563 324 l 1,2,-1
 193 324 l 1,3,-1
 205 387 l 1,0,-1
148 64 m 1,4,-1
 569 64 l 1,5,-1
 556 0 l 1,6,-1
 62 0 l 1,7,-1
 202 700 l 1,8,-1
 682 700 l 1,9,-1
 669 636 l 1,10,-1
 262 636 l 1,11,-1
 148 64 l 1,4,-1
EndSplineSet
Substitution2: "'ss01' Style Set 1 lookup 50 subtable" E.ss01
Substitution2: "'c2sc' Capitals to Small Capitals lookup 45 subtable" e.sc
AlternateSubs2: "'aalt' Access All Alternates lookup 1 subtable" e.sc E.ss01
EndChar

StartChar: F
Encoding: 70 70 43
Width: 633
GlyphClass: 2
Flags: W
AnchorPoint: "Anchor-3" 404 700 basechar 0
AnchorPoint: "Anchor-0" 264 0 basechar 0
LayerCount: 2
Fore
SplineSet
200 361 m 1,0,-1
 570 361 l 1,1,-1
 557 297 l 1,2,-1
 186 297 l 1,3,-1
 200 361 l 1,0,-1
135 0 m 1,4,-1
 62 0 l 1,5,-1
 202 700 l 1,6,-1
 682 700 l 1,7,-1
 669 636 l 1,8,-1
 262 636 l 1,9,-1
 135 0 l 1,4,-1
EndSplineSet
Substitution2: "'ss01' Style Set 1 lookup 50 subtable" F.ss01
Substitution2: "'c2sc' Capitals to Small Capitals lookup 45 subtable" f.sc
AlternateSubs2: "'aalt' Access All Alternates lookup 1 subtable" f.sc F.ss01
EndChar

StartChar: G
Encoding: 71 71 44
Width: 773
GlyphClass: 2
Flags: W
AnchorPoint: "Anchor-3" 495 700 basechar 0
AnchorPoint: "Anchor-0" 351 0 basechar 0
LayerCount: 2
Fore
SplineSet
391 -6 m 0,0,1
 288 -6 288 -6 215 30.5 c 128,-1,2
 142 67 142 67 103 132.5 c 128,-1,3
 64 198 64 198 64 285 c 0,4,5
 64 371 64 371 93.5 447 c 128,-1,6
 123 523 123 523 178.5 581.5 c 128,-1,7
 234 640 234 640 313 673 c 128,-1,8
 392 706 392 706 491 706 c 0,9,10
 579 706 579 706 645.5 679.5 c 128,-1,11
 712 653 712 653 751 604 c 1,12,-1
 699 559 l 1,13,14
 663 601 663 601 610.5 620.5 c 128,-1,15
 558 640 558 640 488 640 c 0,16,17
 407 640 407 640 342.5 612.5 c 128,-1,18
 278 585 278 585 232.5 537 c 128,-1,19
 187 489 187 489 162 425 c 128,-1,20
 137 361 137 361 137 288 c 0,21,22
 137 221 137 221 166.5 169.5 c 128,-1,23
 196 118 196 118 254.5 89 c 128,-1,24
 313 60 313 60 399 60 c 0,25,26
 462 60 462 60 514.5 81 c 128,-1,27
 567 102 567 102 612 141 c 1,28,-1
 642 81 l 1,29,30
 594 41 594 41 528.5 17.5 c 128,-1,31
 463 -6 463 -6 391 -6 c 0,0,1
574 92 m 1,32,-1
 625 350 l 1,33,-1
 696 350 l 1,34,-1
 642 81 l 1,35,-1
 574 92 l 1,32,-1
EndSplineSet
Substitution2: "'ss01' Style Set 1 lookup 50 subtable" G.ss01
Substitution2: "'c2sc' Capitals to Small Capitals lookup 45 subtable" g.sc
AlternateSubs2: "'aalt' Access All Alternates lookup 1 subtable" g.sc G.ss01
EndChar

StartChar: H
Encoding: 72 72 45
Width: 813
GlyphClass: 2
Flags: W
AnchorPoint: "Anchor-3" 494 700 basechar 0
AnchorPoint: "Anchor-1" 463 548 basechar 0
AnchorPoint: "Anchor-0" 354 0 basechar 0
LayerCount: 2
Fore
SplineSet
713 700 m 1,0,-1
 786 700 l 1,1,-1
 646 0 l 1,2,-1
 573 0 l 1,3,-1
 713 700 l 1,0,-1
135 0 m 1,4,-1
 62 0 l 1,5,-1
 202 700 l 1,6,-1
 275 700 l 1,7,-1
 135 0 l 1,4,-1
645 323 m 1,8,-1
 193 323 l 1,9,-1
 205 388 l 1,10,-1
 658 388 l 1,11,-1
 645 323 l 1,8,-1
EndSplineSet
Substitution2: "'c2sc' Capitals to Small Capitals lookup 45 subtable" h.sc
Substitution2: "'aalt' Access All Alternates lookup 0 subtable" h.sc
EndChar

StartChar: I
Encoding: 73 73 46
Width: 302
GlyphClass: 2
Flags: W
AnchorPoint: "Anchor-3" 238 700 basechar 0
AnchorPoint: "Anchor-2" 135 0 basechar 0
AnchorPoint: "Anchor-1" 168 350 basechar 0
AnchorPoint: "Anchor-0" 98 0 basechar 0
LayerCount: 2
Fore
SplineSet
0 59 m 1,0,-1
 222 59 l 1,1,-1
 209 0 l 1,2,-1
 -13 0 l 1,3,-1
 0 59 l 1,0,-1
127 700 m 1,4,-1
 349 700 l 1,5,-1
 336 641 l 1,6,-1
 114 641 l 1,7,-1
 127 700 l 1,4,-1
62 1 m 1,8,-1
 202 699 l 1,9,-1
 275 699 l 1,10,-1
 135 1 l 1,11,-1
 62 1 l 1,8,-1
EndSplineSet
Substitution2: "'ss01' Style Set 1 lookup 50 subtable" I.ss01
Substitution2: "'c2sc' Capitals to Small Capitals lookup 45 subtable" i.sc
AlternateSubs2: "'aalt' Access All Alternates lookup 1 subtable" i.sc I.ss01
EndChar

StartChar: J
Encoding: 74 74 47
Width: 489
GlyphClass: 2
Flags: W
AnchorPoint: "Anchor-3" 316 700 basechar 0
LayerCount: 2
Fore
SplineSet
154 -6 m 0,0,1
 86 -6 86 -6 36.5 21 c 128,-1,2
 -13 48 -13 48 -37 95 c 1,3,-1
 15 142 l 1,4,5
 34 103 34 103 70.5 80.5 c 128,-1,6
 107 58 107 58 156 58 c 0,7,8
 217 58 217 58 255.5 92.5 c 128,-1,9
 294 127 294 127 310 209 c 2,10,-1
 395 636 l 1,11,-1
 140 636 l 1,12,-1
 153 700 l 1,13,-1
 480 700 l 1,14,-1
 382 209 l 2,15,16
 367 130 367 130 336.5 83 c 128,-1,17
 306 36 306 36 260.5 15 c 128,-1,18
 215 -6 215 -6 154 -6 c 0,0,1
EndSplineSet
Substitution2: "'ss01' Style Set 1 lookup 50 subtable" J.ss01
Substitution2: "'c2sc' Capitals to Small Capitals lookup 45 subtable" j.sc
AlternateSubs2: "'aalt' Access All Alternates lookup 1 subtable" j.sc J.ss01
EndChar

StartChar: K
Encoding: 75 75 48
Width: 711
GlyphClass: 2
Flags: W
AnchorPoint: "Anchor-3" 461 700 basechar 0
AnchorPoint: "Anchor-0" 321 0 basechar 0
LayerCount: 2
Fore
SplineSet
163 176 m 1,0,-1
 174 267 l 1,1,-1
 679 700 l 1,2,-1
 776 700 l 1,3,-1
 398 375 l 1,4,-1
 354 339 l 1,5,-1
 163 176 l 1,0,-1
62 0 m 1,6,-1
 202 700 l 1,7,-1
 275 700 l 1,8,-1
 135 0 l 1,9,-1
 62 0 l 1,6,-1
570 0 m 1,10,-1
 332 348 l 1,11,-1
 382 397 l 1,12,-1
 653 0 l 1,13,-1
 570 0 l 1,10,-1
EndSplineSet
Substitution2: "'c2sc' Capitals to Small Capitals lookup 45 subtable" k.sc
Substitution2: "'aalt' Access All Alternates lookup 0 subtable" k.sc
EndChar

StartChar: L
Encoding: 76 76 49
Width: 589
GlyphClass: 2
Flags: W
AnchorPoint: "Anchor-4" 528 700 basechar 0
AnchorPoint: "Anchor-3" 239 700 basechar 0
AnchorPoint: "Anchor-1" 188 373 basechar 0
AnchorPoint: "Anchor-0" 305 0 basechar 0
LayerCount: 2
Fore
SplineSet
62 0 m 1,0,-1
 202 700 l 1,1,-1
 275 700 l 1,2,-1
 148 64 l 1,3,-1
 540 64 l 1,4,-1
 527 0 l 1,5,-1
 62 0 l 1,0,-1
EndSplineSet
Substitution2: "'c2sc' Capitals to Small Capitals lookup 45 subtable" l.sc
Substitution2: "'aalt' Access All Alternates lookup 0 subtable" l.sc
EndChar

StartChar: M
Encoding: 77 77 50
Width: 955
GlyphClass: 2
Flags: W
AnchorPoint: "Anchor-3" 565 700 basechar 0
AnchorPoint: "Anchor-0" 425 0 basechar 0
LayerCount: 2
Fore
SplineSet
62 0 m 1,0,-1
 202 700 l 1,1,-1
 262 700 l 1,2,-1
 475 153 l 1,3,-1
 444 154 l 1,4,-1
 864 700 l 1,5,-1
 929 700 l 1,6,-1
 789 0 l 1,7,-1
 718 0 l 1,8,-1
 836 591 l 1,9,-1
 855 589 l 1,10,-1
 467 89 l 1,11,-1
 432 89 l 1,12,-1
 234 592 l 1,13,-1
 250 589 l 1,14,-1
 133 0 l 1,15,-1
 62 0 l 1,0,-1
EndSplineSet
Substitution2: "'ss01' Style Set 1 lookup 50 subtable" M.ss01
Substitution2: "'c2sc' Capitals to Small Capitals lookup 45 subtable" m.sc
AlternateSubs2: "'aalt' Access All Alternates lookup 1 subtable" m.sc M.ss01
EndChar

StartChar: N
Encoding: 78 78 51
Width: 813
GlyphClass: 2
Flags: W
AnchorPoint: "Anchor-3" 494 700 basechar 0
AnchorPoint: "Anchor-0" 354 0 basechar 0
LayerCount: 2
Fore
SplineSet
62 0 m 1,0,-1
 202 700 l 1,1,-1
 262 700 l 1,2,-1
 615 89 l 1,3,-1
 592 93 l 1,4,-1
 713 700 l 1,5,-1
 786 700 l 1,6,-1
 646 0 l 1,7,-1
 586 0 l 1,8,-1
 233 611 l 1,9,-1
 256 607 l 1,10,-1
 135 0 l 1,11,-1
 62 0 l 1,0,-1
EndSplineSet
Substitution2: "'ss01' Style Set 1 lookup 50 subtable" N.ss01
Substitution2: "'c2sc' Capitals to Small Capitals lookup 45 subtable" n.sc
AlternateSubs2: "'aalt' Access All Alternates lookup 1 subtable" n.sc N.ss01
EndChar

StartChar: O
Encoding: 79 79 52
Width: 839
GlyphClass: 2
Flags: W
AnchorPoint: "Anchor-4" 735 700 basechar 0
AnchorPoint: "Anchor-3" 507 700 basechar 0
AnchorPoint: "Anchor-2" 436 0 basechar 0
AnchorPoint: "Anchor-1" 436 350 basechar 0
AnchorPoint: "Anchor-0" 367 0 basechar 0
LayerCount: 2
Fore
SplineSet
388 -6 m 0,0,1
 285 -6 285 -6 212 30.5 c 128,-1,2
 139 67 139 67 101.5 132.5 c 128,-1,3
 64 198 64 198 64 285 c 0,4,5
 64 371 64 371 93 447 c 128,-1,6
 122 523 122 523 177.5 581.5 c 128,-1,7
 233 640 233 640 311 673 c 128,-1,8
 389 706 389 706 486 706 c 0,9,10
 590 706 590 706 662.5 669.5 c 128,-1,11
 735 633 735 633 772.5 567.5 c 128,-1,12
 810 502 810 502 810 415 c 0,13,14
 810 329 810 329 781 253 c 128,-1,15
 752 177 752 177 696.5 118.5 c 128,-1,16
 641 60 641 60 563 27 c 128,-1,17
 485 -6 485 -6 388 -6 c 0,0,1
395 60 m 0,18,19
 473 60 473 60 536 87.5 c 128,-1,20
 599 115 599 115 644 164 c 128,-1,21
 689 213 689 213 713 276.5 c 128,-1,22
 737 340 737 340 737 412 c 0,23,24
 737 480 737 480 707.5 531 c 128,-1,25
 678 582 678 582 621 611 c 128,-1,26
 564 640 564 640 479 640 c 0,27,28
 401 640 401 640 338 612.5 c 128,-1,29
 275 585 275 585 230.5 536 c 128,-1,30
 186 487 186 487 161.5 423.5 c 128,-1,31
 137 360 137 360 137 288 c 0,32,33
 137 221 137 221 166.5 169.5 c 128,-1,34
 196 118 196 118 253 89 c 128,-1,35
 310 60 310 60 395 60 c 0,18,19
EndSplineSet
Substitution2: "'c2sc' Capitals to Small Capitals lookup 45 subtable" o.sc
Substitution2: "Single Substitution lookup 39 subtable" ordmasculine
AlternateSubs2: "'aalt' Access All Alternates lookup 1 subtable" ordmasculine o.sc
EndChar

StartChar: P
Encoding: 80 80 53
Width: 718
GlyphClass: 2
Flags: W
AnchorPoint: "Anchor-3" 446 700 basechar 0
AnchorPoint: "Anchor-0" 306 0 basechar 0
LayerCount: 2
Fore
SplineSet
62 0 m 1,0,-1
 202 700 l 1,1,-1
 453 700 l 2,2,3
 572 700 572 700 637.5 648 c 128,-1,4
 703 596 703 596 703 502 c 0,5,6
 703 412 703 412 663.5 349.5 c 128,-1,7
 624 287 624 287 551 254 c 128,-1,8
 478 221 478 221 378 221 c 2,9,-1
 147 221 l 1,10,-1
 187 256 l 1,11,-1
 135 0 l 1,12,-1
 62 0 l 1,0,-1
185 250 m 1,13,-1
 159 286 l 1,14,-1
 379 286 l 2,15,16
 498 286 498 286 563.5 339 c 128,-1,17
 629 392 629 392 629 495 c 0,18,19
 629 564 629 564 582 600 c 128,-1,20
 535 636 535 636 447 636 c 2,21,-1
 231 636 l 1,22,-1
 270 673 l 1,23,-1
 185 250 l 1,13,-1
EndSplineSet
Substitution2: "'c2sc' Capitals to Small Capitals lookup 45 subtable" p.sc
Substitution2: "'aalt' Access All Alternates lookup 0 subtable" p.sc
EndChar

StartChar: Q
Encoding: 81 81 54
Width: 839
GlyphClass: 2
Flags: W
AnchorPoint: "Anchor-3" 507 700 basechar 0
LayerCount: 2
Fore
SplineSet
388 -6 m 0,0,1
 285 -6 285 -6 212 30.5 c 128,-1,2
 139 67 139 67 101.5 132.5 c 128,-1,3
 64 198 64 198 64 285 c 0,4,5
 64 371 64 371 93 447 c 128,-1,6
 122 523 122 523 177.5 581.5 c 128,-1,7
 233 640 233 640 311 673 c 128,-1,8
 389 706 389 706 486 706 c 0,9,10
 590 706 590 706 662.5 669.5 c 128,-1,11
 735 633 735 633 772.5 567.5 c 128,-1,12
 810 502 810 502 810 415 c 0,13,14
 810 329 810 329 781 253 c 128,-1,15
 752 177 752 177 696.5 118.5 c 128,-1,16
 641 60 641 60 563 27 c 128,-1,17
 485 -6 485 -6 388 -6 c 0,0,1
588 -139 m 0,18,19
 513 -139 513 -139 453 -100 c 128,-1,20
 393 -61 393 -61 347 10 c 1,21,-1
 430 28 l 1,22,23
 462 -27 462 -27 501 -53.5 c 128,-1,24
 540 -80 540 -80 590 -80 c 0,25,26
 629 -80 629 -80 663.5 -64 c 128,-1,27
 698 -48 698 -48 725 -19 c 1,28,-1
 757 -64 l 1,29,30
 726 -102 726 -102 681.5 -120.5 c 128,-1,31
 637 -139 637 -139 588 -139 c 0,18,19
395 60 m 0,32,33
 473 60 473 60 536 87.5 c 128,-1,34
 599 115 599 115 644 164 c 128,-1,35
 689 213 689 213 713 276.5 c 128,-1,36
 737 340 737 340 737 412 c 0,37,38
 737 480 737 480 707.5 531 c 128,-1,39
 678 582 678 582 621 611 c 128,-1,40
 564 640 564 640 479 640 c 0,41,42
 401 640 401 640 338 612.5 c 128,-1,43
 275 585 275 585 230.5 536 c 128,-1,44
 186 487 186 487 161.5 423.5 c 128,-1,45
 137 360 137 360 137 288 c 0,46,47
 137 221 137 221 166.5 169.5 c 128,-1,48
 196 118 196 118 253 89 c 128,-1,49
 310 60 310 60 395 60 c 0,32,33
EndSplineSet
Substitution2: "'ss01' Style Set 1 lookup 50 subtable" Q.ss01
Substitution2: "'c2sc' Capitals to Small Capitals lookup 45 subtable" q.sc
AlternateSubs2: "'aalt' Access All Alternates lookup 1 subtable" q.sc Q.ss01
EndChar

StartChar: R
Encoding: 82 82 55
Width: 723
GlyphClass: 2
Flags: W
AnchorPoint: "Anchor-3" 456 700 basechar 0
AnchorPoint: "Anchor-0" 316 0 basechar 0
LayerCount: 2
Fore
SplineSet
62 0 m 1,0,-1
 202 700 l 1,1,-1
 454 700 l 2,2,3
 573 700 573 700 638.5 648 c 128,-1,4
 704 596 704 596 704 502 c 0,5,6
 704 413 704 413 664.5 350.5 c 128,-1,7
 625 288 625 288 552 255 c 128,-1,8
 479 222 479 222 379 222 c 2,9,-1
 148 222 l 1,10,-1
 187 256 l 1,11,-1
 136 0 l 1,12,-1
 62 0 l 1,0,-1
541 0 m 1,13,-1
 398 254 l 1,14,-1
 477 254 l 1,15,-1
 621 0 l 1,16,-1
 541 0 l 1,13,-1
185 250 m 1,17,-1
 160 286 l 1,18,-1
 380 286 l 2,19,20
 499 286 499 286 564.5 339 c 128,-1,21
 630 392 630 392 630 495 c 0,22,23
 630 564 630 564 583 600 c 128,-1,24
 536 636 536 636 449 636 c 2,25,-1
 232 636 l 1,26,-1
 270 672 l 1,27,-1
 185 250 l 1,17,-1
EndSplineSet
Substitution2: "'c2sc' Capitals to Small Capitals lookup 45 subtable" r.sc
Substitution2: "'aalt' Access All Alternates lookup 0 subtable" r.sc
EndChar

StartChar: S
Encoding: 83 83 56
Width: 615
GlyphClass: 2
Flags: W
AnchorPoint: "Anchor-3" 407 700 basechar 0
AnchorPoint: "Anchor-1" 341 350 basechar 0
AnchorPoint: "Anchor-0" 267 0 basechar 0
LayerCount: 2
Fore
SplineSet
266 -6 m 0,0,1
 215 -6 215 -6 165.5 5.5 c 128,-1,2
 116 17 116 17 76 37.5 c 128,-1,3
 36 58 36 58 12 83 c 1,4,-1
 48 141 l 1,5,6
 72 116 72 116 107.5 97 c 128,-1,7
 143 78 143 78 186 67.5 c 128,-1,8
 229 57 229 57 272 57 c 0,9,10
 334 57 334 57 380.5 73 c 128,-1,11
 427 89 427 89 453 120 c 128,-1,12
 479 151 479 151 479 195 c 0,13,14
 479 230 479 230 459 251.5 c 128,-1,15
 439 273 439 273 407 286.5 c 128,-1,16
 375 300 375 300 336 311 c 128,-1,17
 297 322 297 322 258 335 c 128,-1,18
 219 348 219 348 186.5 367 c 128,-1,19
 154 386 154 386 134.5 417 c 128,-1,20
 115 448 115 448 115 495 c 0,21,22
 115 561 115 561 151 608.5 c 128,-1,23
 187 656 187 656 250 681 c 128,-1,24
 313 706 313 706 395 706 c 0,25,26
 457 706 457 706 514.5 691 c 128,-1,27
 572 676 572 676 612 646 c 1,28,-1
 581 586 l 1,29,30
 543 614 543 614 494 628.5 c 128,-1,31
 445 643 445 643 391 643 c 0,32,33
 330 643 330 643 284 626 c 128,-1,34
 238 609 238 609 212.5 577.5 c 128,-1,35
 187 546 187 546 187 502 c 0,36,37
 187 467 187 467 206.5 445 c 128,-1,38
 226 423 226 423 258.5 409 c 128,-1,39
 291 395 291 395 330 383.5 c 128,-1,40
 369 372 369 372 408 359.5 c 128,-1,41
 447 347 447 347 479.5 328.5 c 128,-1,42
 512 310 512 310 532 280.5 c 128,-1,43
 552 251 552 251 552 205 c 0,44,45
 552 138 552 138 515 90.5 c 128,-1,46
 478 43 478 43 413.5 18.5 c 128,-1,47
 349 -6 349 -6 266 -6 c 0,0,1
EndSplineSet
Substitution2: "'c2sc' Capitals to Small Capitals lookup 45 subtable" s.sc
Substitution2: "'aalt' Access All Alternates lookup 0 subtable" s.sc
EndChar

StartChar: T
Encoding: 84 84 57
Width: 574
GlyphClass: 2
Flags: W
AnchorPoint: "Anchor-3" 374 700 basechar 0
AnchorPoint: "Anchor-1" 305 357 basechar 0
AnchorPoint: "Anchor-0" 234 0 basechar 0
LayerCount: 2
Fore
SplineSet
198 0 m 1,0,-1
 325 636 l 1,1,-1
 78 636 l 1,2,-1
 91 700 l 1,3,-1
 657 700 l 1,4,-1
 644 636 l 1,5,-1
 398 636 l 1,6,-1
 271 0 l 1,7,-1
 198 0 l 1,0,-1
EndSplineSet
Substitution2: "'ss01' Style Set 1 lookup 50 subtable" T.ss01
Substitution2: "'c2sc' Capitals to Small Capitals lookup 45 subtable" t.sc
AlternateSubs2: "'aalt' Access All Alternates lookup 1 subtable" t.sc T.ss01
EndChar

StartChar: U
Encoding: 85 85 58
Width: 768
GlyphClass: 2
Flags: W
AnchorPoint: "Anchor-4" 740 700 basechar 0
AnchorPoint: "Anchor-3" 471 700 basechar 0
AnchorPoint: "Anchor-2" 528 0 basechar 0
AnchorPoint: "Anchor-0" 331 0 basechar 0
LayerCount: 2
Fore
SplineSet
349 -6 m 0,0,1
 256 -6 256 -6 194.5 31 c 128,-1,2
 133 68 133 68 109 136.5 c 128,-1,3
 85 205 85 205 104 299 c 2,4,-1
 184 700 l 1,5,-1
 257 700 l 1,6,-1
 177 301 l 2,7,8
 154 183 154 183 201 121.5 c 128,-1,9
 248 60 248 60 355 60 c 0,10,11
 457 60 457 60 519.5 118.5 c 128,-1,12
 582 177 582 177 606 301 c 2,13,-1
 686 700 l 1,14,-1
 758 700 l 1,15,-1
 678 296 l 2,16,17
 647 144 647 144 564.5 69 c 128,-1,18
 482 -6 482 -6 349 -6 c 0,0,1
EndSplineSet
Substitution2: "'ss01' Style Set 1 lookup 50 subtable" U.ss01
Substitution2: "'c2sc' Capitals to Small Capitals lookup 45 subtable" u.sc
AlternateSubs2: "'aalt' Access All Alternates lookup 1 subtable" u.sc U.ss01
EndChar

StartChar: V
Encoding: 86 86 59
Width: 698
GlyphClass: 2
Flags: W
AnchorPoint: "Anchor-3" 437 700 basechar 0
AnchorPoint: "Anchor-2" 333 0 basechar 0
AnchorPoint: "Anchor-0" 297 0 basechar 0
LayerCount: 2
Fore
SplineSet
261 0 m 1,0,-1
 90 700 l 1,1,-1
 166 700 l 1,2,-1
 325 42 l 1,3,-1
 280 42 l 1,4,-1
 705 700 l 1,5,-1
 783 700 l 1,6,-1
 333 0 l 1,7,-1
 261 0 l 1,0,-1
EndSplineSet
Substitution2: "'c2sc' Capitals to Small Capitals lookup 45 subtable" v.sc
Substitution2: "'aalt' Access All Alternates lookup 0 subtable" v.sc
EndChar

StartChar: W
Encoding: 87 87 60
Width: 1091
GlyphClass: 2
Flags: W
AnchorPoint: "Anchor-3" 633 700 basechar 0
AnchorPoint: "Anchor-0" 493 0 basechar 0
LayerCount: 2
Fore
SplineSet
209 0 m 1,0,-1
 113 700 l 1,1,-1
 186 700 l 1,2,-1
 276 42 l 1,3,-1
 239 42 l 1,4,-1
 598 700 l 1,5,-1
 667 700 l 1,6,-1
 759 42 l 1,7,-1
 723 42 l 1,8,-1
 1078 700 l 1,9,-1
 1153 700 l 1,10,-1
 776 0 l 1,11,-1
 699 0 l 1,12,-1
 609 623 l 1,13,-1
 630 624 l 1,14,-1
 287 0 l 1,15,-1
 209 0 l 1,0,-1
EndSplineSet
Substitution2: "'ss01' Style Set 1 lookup 50 subtable" W.ss01
Substitution2: "'c2sc' Capitals to Small Capitals lookup 45 subtable" w.sc
AlternateSubs2: "'aalt' Access All Alternates lookup 1 subtable" w.sc W.ss01
EndChar

StartChar: X
Encoding: 88 88 61
Width: 656
GlyphClass: 2
Flags: W
AnchorPoint: "Anchor-3" 416 700 basechar 0
AnchorPoint: "Anchor-0" 276 0 basechar 0
LayerCount: 2
Fore
SplineSet
-35 0 m 1,0,-1
 324 382 l 1,1,-1
 320 341 l 1,2,-1
 122 700 l 1,3,-1
 200 700 l 1,4,-1
 370 391 l 1,5,-1
 337 395 l 1,6,-1
 624 700 l 1,7,-1
 708 700 l 1,8,-1
 373 342 l 1,9,-1
 375 382 l 1,10,-1
 585 0 l 1,11,-1
 507 0 l 1,12,-1
 327 329 l 1,13,-1
 358 327 l 1,14,-1
 53 0 l 1,15,-1
 -35 0 l 1,0,-1
EndSplineSet
Substitution2: "'c2sc' Capitals to Small Capitals lookup 45 subtable" x.sc
Substitution2: "'aalt' Access All Alternates lookup 0 subtable" x.sc
EndChar

StartChar: Y
Encoding: 89 89 62
Width: 654
GlyphClass: 2
Flags: W
AnchorPoint: "Anchor-3" 414 700 basechar 0
AnchorPoint: "Anchor-2" 310 0 basechar 0
AnchorPoint: "Anchor-1" 321 238 basechar 0
AnchorPoint: "Anchor-0" 274 0 basechar 0
LayerCount: 2
Fore
SplineSet
237 0 m 1,0,-1
 290 262 l 1,1,-1
 298 212 l 1,2,-1
 98 700 l 1,3,-1
 171 700 l 1,4,-1
 346 274 l 1,5,-1
 306 273 l 1,6,-1
 651 700 l 1,7,-1
 731 700 l 1,8,-1
 337 211 l 1,9,-1
 363 262 l 1,10,-1
 310 0 l 1,11,-1
 237 0 l 1,0,-1
EndSplineSet
Substitution2: "'ss01' Style Set 1 lookup 50 subtable" Y.ss01
Substitution2: "'c2sc' Capitals to Small Capitals lookup 45 subtable" y.sc
AlternateSubs2: "'aalt' Access All Alternates lookup 1 subtable" y.sc Y.ss01
EndChar

StartChar: Z
Encoding: 90 90 63
Width: 651
GlyphClass: 2
Flags: W
AnchorPoint: "Anchor-3" 419 700 basechar 0
AnchorPoint: "Anchor-2" 566 0 basechar 0
AnchorPoint: "Anchor-0" 287 0 basechar 0
LayerCount: 2
Fore
SplineSet
-8 0 m 1,0,-1
 2 51 l 1,1,-1
 606 664 l 1,2,-1
 612 636 l 1,3,-1
 127 636 l 1,4,-1
 140 700 l 1,5,-1
 695 700 l 1,6,-1
 685 649 l 1,7,-1
 80 36 l 1,8,-1
 75 64 l 1,9,-1
 579 64 l 1,10,-1
 566 0 l 1,11,-1
 -8 0 l 1,0,-1
EndSplineSet
Substitution2: "'ss01' Style Set 1 lookup 50 subtable" Z.ss01
Substitution2: "'c2sc' Capitals to Small Capitals lookup 45 subtable" z.sc
AlternateSubs2: "'aalt' Access All Alternates lookup 1 subtable" z.sc Z.ss01
EndChar

StartChar: bracketleft
Encoding: 91 91 64
Width: 319
GlyphClass: 1
Flags: W
LayerCount: 2
Fore
SplineSet
22 -194 m 1,0,-1
 209 742 l 1,1,-1
 392 742 l 1,2,-1
 380 682 l 1,3,-1
 268 682 l 1,4,-1
 106 -134 l 1,5,-1
 217 -134 l 1,6,-1
 205 -194 l 1,7,-1
 22 -194 l 1,0,-1
EndSplineSet
Substitution2: "'case' Case-Sensitive Forms lookup 47 subtable" bracketleft.case
Substitution2: "'aalt' Access All Alternates lookup 0 subtable" bracketleft.case
EndChar

StartChar: backslash
Encoding: 92 92 65
Width: 335
GlyphClass: 1
Flags: W
LayerCount: 2
Fore
SplineSet
287 -100 m 1,0,-1
 225 -100 l 1,1,-1
 80 842 l 1,2,-1
 142 842 l 1,3,-1
 287 -100 l 1,0,-1
EndSplineSet
Substitution2: "'case' Case-Sensitive Forms lookup 47 subtable" backslash.case
Substitution2: "'aalt' Access All Alternates lookup 0 subtable" backslash.case
EndChar

StartChar: bracketright
Encoding: 93 93 66
Width: 318
GlyphClass: 1
Flags: W
LayerCount: 2
Fore
SplineSet
114 -194 m 1,0,-1
 -69 -194 l 1,1,-1
 -57 -134 l 1,2,-1
 55 -134 l 1,3,-1
 217 682 l 1,4,-1
 105 682 l 1,5,-1
 117 742 l 1,6,-1
 301 742 l 1,7,-1
 114 -194 l 1,0,-1
EndSplineSet
Substitution2: "'case' Case-Sensitive Forms lookup 47 subtable" bracketright.case
Substitution2: "'aalt' Access All Alternates lookup 0 subtable" bracketright.case
EndChar

StartChar: asciicircum
Encoding: 94 94 67
Width: 576
GlyphClass: 1
Flags: W
LayerCount: 2
Fore
SplineSet
60 143 m 1,0,-1
 317 557 l 1,1,-1
 377 557 l 1,2,-1
 469 143 l 1,3,-1
 413 143 l 1,4,-1
 330 532 l 1,5,-1
 361 532 l 1,6,-1
 121 143 l 1,7,-1
 60 143 l 1,0,-1
EndSplineSet
EndChar

StartChar: underscore
Encoding: 95 95 68
Width: 500
GlyphClass: 1
Flags: W
LayerCount: 2
Fore
SplineSet
-62 -48 m 1,0,-1
 -52 0 l 1,1,-1
 448 0 l 1,2,-1
 438 -48 l 1,3,-1
 -62 -48 l 1,0,-1
EndSplineSet
EndChar

StartChar: a
Encoding: 97 97 70
Width: 678
GlyphClass: 2
Flags: W
AnchorPoint: "Anchor-3" 381 526 basechar 0
AnchorPoint: "Anchor-2" 527 0 basechar 0
AnchorPoint: "Anchor-0" 283 0 basechar 0
LayerCount: 2
Fore
SplineSet
271 -5 m 0,0,1
 204 -5 204 -5 152 22 c 128,-1,2
 100 49 100 49 71 99 c 128,-1,3
 42 149 42 149 42 218 c 0,4,5
 42 285 42 285 64 342 c 128,-1,6
 86 399 86 399 126 441.5 c 128,-1,7
 166 484 166 484 220.5 507 c 128,-1,8
 275 530 275 530 339 530 c 0,9,10
 408 530 408 530 456 505.5 c 128,-1,11
 504 481 504 481 530 434.5 c 128,-1,12
 556 388 556 388 556 322 c 0,13,14
 556 227 556 227 521 153 c 128,-1,15
 486 79 486 79 422 37 c 128,-1,16
 358 -5 358 -5 271 -5 c 0,0,1
286 58 m 0,17,18
 352 58 352 58 403.5 89.5 c 128,-1,19
 455 121 455 121 484.5 177 c 128,-1,20
 514 233 514 233 514 304 c 0,21,22
 514 382 514 382 468.5 425 c 128,-1,23
 423 468 423 468 341 468 c 0,24,25
 276 468 276 468 224 436 c 128,-1,26
 172 404 172 404 142.5 348.5 c 128,-1,27
 113 293 113 293 113 221 c 0,28,29
 113 144 113 144 158.5 101 c 128,-1,30
 204 58 204 58 286 58 c 0,17,18
459 0 m 1,31,-1
 489 151 l 1,32,-1
 519 257 l 1,33,-1
 529 367 l 1,34,-1
 561 525 l 1,35,-1
 632 525 l 1,36,-1
 527 0 l 1,37,-1
 459 0 l 1,31,-1
EndSplineSet
Substitution2: "'ss01' Style Set 1 lookup 50 subtable" a.ss01
Substitution2: "'smcp' Lowercase to Small Capitals lookup 46 subtable" a.sc
Substitution2: "Single Substitution lookup 39 subtable" ordfeminine
AlternateSubs2: "'aalt' Access All Alternates lookup 1 subtable" ordfeminine a.sc a.ss01
EndChar

StartChar: b
Encoding: 98 98 71
Width: 678
GlyphClass: 2
Flags: W
AnchorPoint: "Anchor-3" 428 526 basechar 0
AnchorPoint: "Anchor-0" 296 0 basechar 0
LayerCount: 2
Fore
SplineSet
47 0 m 1,0,-1
 195 742 l 1,1,-1
 266 742 l 1,2,-1
 192 373 l 1,3,-1
 160 269 l 1,4,-1
 148 167 l 1,5,-1
 115 0 l 1,6,-1
 47 0 l 1,0,-1
339 -5 m 0,7,8
 271 -5 271 -5 222.5 19.5 c 128,-1,9
 174 44 174 44 148.5 90.5 c 128,-1,10
 123 137 123 137 122 203 c 0,11,12
 122 275 122 275 142 335 c 128,-1,13
 162 395 162 395 199.5 438.5 c 128,-1,14
 237 482 237 482 289.5 506 c 128,-1,15
 342 530 342 530 407 530 c 0,16,17
 475 530 475 530 526.5 503.5 c 128,-1,18
 578 477 578 477 607.5 427 c 128,-1,19
 637 377 637 377 637 308 c 0,20,21
 637 240 637 240 615 183 c 128,-1,22
 593 126 593 126 552.5 84 c 128,-1,23
 512 42 512 42 458 18.5 c 128,-1,24
 404 -5 404 -5 339 -5 c 0,7,8
338 58 m 0,25,26
 404 58 404 58 455 89.5 c 128,-1,27
 506 121 506 121 535.5 177 c 128,-1,28
 565 233 565 233 565 304 c 0,29,30
 565 382 565 382 520 425 c 128,-1,31
 475 468 475 468 392 468 c 0,32,33
 327 468 327 468 275.5 436 c 128,-1,34
 224 404 224 404 194.5 348.5 c 128,-1,35
 165 293 165 293 165 221 c 0,36,37
 165 144 165 144 210 101 c 128,-1,38
 255 58 255 58 338 58 c 0,25,26
EndSplineSet
Substitution2: "'smcp' Lowercase to Small Capitals lookup 46 subtable" b.sc
Substitution2: "'aalt' Access All Alternates lookup 0 subtable" b.sc
EndChar

StartChar: c
Encoding: 99 99 72
Width: 563
GlyphClass: 2
Flags: W
AnchorPoint: "Anchor-3" 351 526 basechar 0
AnchorPoint: "Anchor-0" 279 -1 basechar 0
LayerCount: 2
Fore
SplineSet
285 -5 m 0,0,1
 210 -5 210 -5 155.5 22.5 c 128,-1,2
 101 50 101 50 71.5 100 c 128,-1,3
 42 150 42 150 42 218 c 0,4,5
 42 308 42 308 81 378.5 c 128,-1,6
 120 449 120 449 189.5 489.5 c 128,-1,7
 259 530 259 530 348 530 c 0,8,9
 421 530 421 530 473.5 503.5 c 128,-1,10
 526 477 526 477 555 425 c 1,11,-1
 495 390 l 1,12,13
 473 430 473 430 434.5 449 c 128,-1,14
 396 468 396 468 342 468 c 0,15,16
 276 468 276 468 224 436 c 128,-1,17
 172 404 172 404 142.5 348.5 c 128,-1,18
 113 293 113 293 113 221 c 0,19,20
 113 144 113 144 158.5 101 c 128,-1,21
 204 58 204 58 288 58 c 0,22,23
 339 58 339 58 382.5 77.5 c 128,-1,24
 426 97 426 97 454 134 c 1,25,-1
 505 95 l 1,26,27
 471 48 471 48 412 21.5 c 128,-1,28
 353 -5 353 -5 285 -5 c 0,0,1
EndSplineSet
Substitution2: "'smcp' Lowercase to Small Capitals lookup 46 subtable" c.sc
Substitution2: "'aalt' Access All Alternates lookup 0 subtable" c.sc
EndChar

StartChar: d
Encoding: 100 100 73
Width: 678
GlyphClass: 2
Flags: W
AnchorPoint: "Anchor-4" 767 742 basechar 0
AnchorPoint: "Anchor-3" 356 526 basechar 0
AnchorPoint: "Anchor-1" 557 633 basechar 0
AnchorPoint: "Anchor-0" 287 0 basechar 0
LayerCount: 2
Fore
SplineSet
271 -5 m 0,0,1
 204 -5 204 -5 152 22 c 128,-1,2
 100 49 100 49 71 99 c 128,-1,3
 42 149 42 149 42 218 c 0,4,5
 42 285 42 285 64 342 c 128,-1,6
 86 399 86 399 126 441.5 c 128,-1,7
 166 484 166 484 220.5 507 c 128,-1,8
 275 530 275 530 339 530 c 0,9,10
 408 530 408 530 456 505.5 c 128,-1,11
 504 481 504 481 530 434.5 c 128,-1,12
 556 388 556 388 556 322 c 0,13,14
 556 251 556 251 536.5 191 c 128,-1,15
 517 131 517 131 479 87 c 128,-1,16
 441 43 441 43 388.5 19 c 128,-1,17
 336 -5 336 -5 271 -5 c 0,0,1
286 58 m 0,18,19
 352 58 352 58 403.5 89.5 c 128,-1,20
 455 121 455 121 484.5 177 c 128,-1,21
 514 233 514 233 514 304 c 0,22,23
 514 382 514 382 468.5 425 c 128,-1,24
 423 468 423 468 341 468 c 0,25,26
 276 468 276 468 224 436 c 128,-1,27
 172 404 172 404 142.5 348.5 c 128,-1,28
 113 293 113 293 113 221 c 0,29,30
 113 144 113 144 158.5 101 c 128,-1,31
 204 58 204 58 286 58 c 0,18,19
459 0 m 1,32,-1
 489 151 l 1,33,-1
 519 257 l 1,34,-1
 529 367 l 1,35,-1
 604 742 l 1,36,-1
 675 742 l 1,37,-1
 527 0 l 1,38,-1
 459 0 l 1,32,-1
EndSplineSet
Substitution2: "'ss01' Style Set 1 lookup 50 subtable" d.ss01
Substitution2: "'smcp' Lowercase to Small Capitals lookup 46 subtable" d.sc
AlternateSubs2: "'aalt' Access All Alternates lookup 1 subtable" d.sc d.ss01
EndChar

StartChar: e
Encoding: 101 101 74
Width: 604
GlyphClass: 2
Flags: W
AnchorPoint: "Anchor-3" 349 525 basechar 0
AnchorPoint: "Anchor-2" 442 0 basechar 0
AnchorPoint: "Anchor-0" 277 0 basechar 0
LayerCount: 2
Fore
SplineSet
287 -5 m 0,0,1
 212 -5 212 -5 156.5 22.5 c 128,-1,2
 101 50 101 50 71.5 100 c 128,-1,3
 42 150 42 150 42 219 c 0,4,5
 42 309 42 309 80 379 c 128,-1,6
 118 449 118 449 184 489.5 c 128,-1,7
 250 530 250 530 333 530 c 0,8,9
 403 530 403 530 454 503.5 c 128,-1,10
 505 477 505 477 534 427 c 0,11,12
 572 361 572 361 555 277 c 1,13,-1
 74 187 l 1,14,-1
 83 246 l 1,15,-1
 522 330 l 1,16,-1
 493 276 l 1,17,18
 503 339 503 339 484 382 c 128,-1,19
 465 425 465 425 425.5 447.5 c 128,-1,20
 386 470 386 470 331 470 c 0,21,22
 267 470 267 470 217 438.5 c 128,-1,23
 167 407 167 407 139 351.5 c 128,-1,24
 111 296 111 296 111 222 c 0,25,26
 111 143 111 143 156.5 100.5 c 128,-1,27
 202 58 202 58 293 58 c 0,28,29
 346 58 346 58 391 75.5 c 128,-1,30
 436 93 436 93 465 124 c 1,31,-1
 497 73 l 1,32,33
 460 36 460 36 404.5 15.5 c 128,-1,34
 349 -5 349 -5 287 -5 c 0,0,1
EndSplineSet
Substitution2: "'ss01' Style Set 1 lookup 50 subtable" e.ss01
Substitution2: "'smcp' Lowercase to Small Capitals lookup 46 subtable" e.sc
AlternateSubs2: "'aalt' Access All Alternates lookup 1 subtable" e.sc e.ss01
EndChar

StartChar: f
Encoding: 102 102 75
Width: 339
GlyphClass: 2
Flags: W
AnchorPoint: "Anchor-3" 346 725 basechar 0
AnchorPoint: "Anchor-0" 118 0 basechar 0
LayerCount: 2
Fore
SplineSet
59 0 m 1,0,-1
 177 592 l 2,1,2
 192 666 192 666 237.5 706.5 c 128,-1,3
 283 747 283 747 357 747 c 0,4,5
 389 747 389 747 417 738 c 128,-1,6
 445 729 445 729 463 713 c 1,7,-1
 431 661 l 1,8,9
 403 687 403 687 357 687 c 256,10,11
 311 687 311 687 284 662.5 c 128,-1,12
 257 638 257 638 245 584 c 2,13,-1
 229 507 l 1,14,-1
 225 476 l 1,15,-1
 130 0 l 1,16,-1
 59 0 l 1,0,-1
58 466 m 1,17,-1
 69 525 l 1,18,-1
 394 525 l 1,19,-1
 382 466 l 1,20,-1
 58 466 l 1,17,-1
EndSplineSet
Substitution2: "'ss01' Style Set 1 lookup 50 subtable" f.ss01
Substitution2: "'smcp' Lowercase to Small Capitals lookup 46 subtable" f.sc
AlternateSubs2: "'aalt' Access All Alternates lookup 1 subtable" f.sc f.ss01
EndChar

StartChar: g
Encoding: 103 103 76
Width: 685
GlyphClass: 2
Flags: W
AnchorPoint: "Anchor-3" 377 526 basechar 0
AnchorPoint: "Anchor-0" 237 -193 basechar 0
LayerCount: 2
Fore
SplineSet
241 -199 m 0,0,1
 168 -199 168 -199 108 -178.5 c 128,-1,2
 48 -158 48 -158 7 -120 c 1,3,-1
 49 -66 l 1,4,5
 81 -98 81 -98 132.5 -117 c 128,-1,6
 184 -136 184 -136 246 -136 c 0,7,8
 346 -136 346 -136 401 -90 c 128,-1,9
 456 -44 456 -44 474 52 c 2,10,-1
 502 190 l 1,11,-1
 529 276 l 1,12,-1
 540 366 l 1,13,-1
 571 525 l 1,14,-1
 639 525 l 1,15,-1
 547 64 l 2,16,17
 520 -75 520 -75 445 -137 c 128,-1,18
 370 -199 370 -199 241 -199 c 0,0,1
276 20 m 0,19,20
 207 20 207 20 154.5 46 c 128,-1,21
 102 72 102 72 73 119.5 c 128,-1,22
 44 167 44 167 44 232 c 0,23,24
 44 296 44 296 66 350 c 128,-1,25
 88 404 88 404 128 444.5 c 128,-1,26
 168 485 168 485 223 507.5 c 128,-1,27
 278 530 278 530 344 530 c 0,28,29
 407 530 407 530 456 508 c 128,-1,30
 505 486 505 486 533.5 442 c 128,-1,31
 562 398 562 398 562 330 c 0,32,33
 563 244 563 244 528 173.5 c 128,-1,34
 493 103 493 103 429 61.5 c 128,-1,35
 365 20 365 20 276 20 c 0,19,20
290 83 m 0,36,37
 356 83 356 83 407.5 113 c 128,-1,38
 459 143 459 143 489 195.5 c 128,-1,39
 519 248 519 248 519 315 c 0,40,41
 519 387 519 387 473 427.5 c 128,-1,42
 427 468 427 468 345 468 c 0,43,44
 279 468 279 468 227 438 c 128,-1,45
 175 408 175 408 145.5 355.5 c 128,-1,46
 116 303 116 303 116 236 c 0,47,48
 116 164 116 164 162 123.5 c 128,-1,49
 208 83 208 83 290 83 c 0,36,37
EndSplineSet
Substitution2: "'smcp' Lowercase to Small Capitals lookup 46 subtable" g.sc
Substitution2: "'aalt' Access All Alternates lookup 0 subtable" g.sc
EndChar

StartChar: h
Encoding: 104 104 77
Width: 676
GlyphClass: 2
Flags: W
AnchorPoint: "Anchor-4" 300 526 basechar 0
AnchorPoint: "Anchor-3" 227 725 basechar 0
AnchorPoint: "Anchor-1" 269 633 basechar 0
AnchorPoint: "Anchor-0" 287 0 basechar 0
LayerCount: 2
Fore
SplineSet
408 530 m 0,0,1
 479 530 479 530 524.5 502.5 c 128,-1,2
 570 475 570 475 587.5 423 c 128,-1,3
 605 371 605 371 590 299 c 2,4,-1
 530 0 l 1,5,-1
 459 0 l 1,6,-1
 519 300 l 2,7,8
 535 378 535 378 502.5 422 c 128,-1,9
 470 466 470 466 388 466 c 0,10,11
 304 466 304 466 248.5 420 c 128,-1,12
 193 374 193 374 174 282 c 2,13,-1
 118 0 l 1,14,-1
 47 0 l 1,15,-1
 195 742 l 1,16,-1
 266 742 l 1,17,-1
 192 374 l 1,18,-1
 174 400 l 1,19,20
 212 468 212 468 272.5 499 c 128,-1,21
 333 530 333 530 408 530 c 0,0,1
EndSplineSet
Substitution2: "'smcp' Lowercase to Small Capitals lookup 46 subtable" h.sc
Substitution2: "'aalt' Access All Alternates lookup 0 subtable" h.sc
EndChar

StartChar: k
Encoding: 107 107 80
Width: 594
GlyphClass: 2
Flags: W
AnchorPoint: "Anchor-4" 296 526 basechar 0
AnchorPoint: "Anchor-3" 230 742 basechar 0
AnchorPoint: "Anchor-0" 259 0 basechar 0
LayerCount: 2
Fore
SplineSet
132 140 m 1,0,-1
 146 227 l 1,1,-1
 528 525 l 1,2,-1
 629 525 l 1,3,-1
 342 302 l 1,4,-1
 303 272 l 1,5,-1
 132 140 l 1,0,-1
47 0 m 1,6,-1
 195 742 l 1,7,-1
 266 742 l 1,8,-1
 118 0 l 1,9,-1
 47 0 l 1,6,-1
457 0 m 1,10,-1
 291 273 l 1,11,-1
 340 326 l 1,12,-1
 540 0 l 1,13,-1
 457 0 l 1,10,-1
EndSplineSet
Substitution2: "'smcp' Lowercase to Small Capitals lookup 46 subtable" k.sc
Substitution2: "'aalt' Access All Alternates lookup 0 subtable" k.sc
EndChar

StartChar: l
Encoding: 108 108 81
Width: 329
GlyphClass: 2
Flags: WO
AnchorPoint: "Anchor-4" 358 742 basechar 0
AnchorPoint: "Anchor-3" 227 725 basechar 0
AnchorPoint: "Anchor-1" 153 346 basechar 0
AnchorPoint: "Anchor-0" 82 0 basechar 0
LayerCount: 2
Fore
SplineSet
183.226775956 683 m 1,0,-1
 124 683 l 1,1,-1
 136 742 l 1,2,-1
 266 742 l 1,3,-1
 149 159 l 2,4,5
 139 110 139 110 157.5 83 c 128,-1,6
 176 56 176 56 223 56 c 0,7,8
 256 56 256 56 276.07421875 66.9052734375 c 1,9,10
 276.07421875 66.9052734375 276.07421875 66.9052734375 264.537109375 9.03125 c 0,11,12
 247 -4 247 -4 204 -4.5 c 128,-1,13
 161 -5 161 -5 126.5 14.5 c 0,14,15
 94 32 94 32 80.5 70 c 0,16,17
 68.0104345156 105.969948595 68.0104345156 105.969948595 78 156 c 2,18,-1
 183.226775956 683 l 1,0,-1
EndSplineSet
Substitution2: "'ss01' Style Set 1 lookup 50 subtable" l.ss01
Substitution2: "'smcp' Lowercase to Small Capitals lookup 46 subtable" l.sc
AlternateSubs2: "'aalt' Access All Alternates lookup 1 subtable" l.sc l.ss01
EndChar

StartChar: m
Encoding: 109 109 82
Width: 1061
GlyphClass: 2
Flags: W
AnchorPoint: "Anchor-3" 583 526 basechar 0
AnchorPoint: "Anchor-0" 480 0 basechar 0
LayerCount: 2
Fore
SplineSet
795 530 m 0,0,1
 866 530 866 530 910.5 502.5 c 128,-1,2
 955 475 955 475 972 423 c 128,-1,3
 989 371 989 371 974 299 c 2,4,-1
 914 0 l 1,5,-1
 843 0 l 1,6,-1
 903 300 l 2,7,8
 919 378 919 378 888.5 422 c 128,-1,9
 858 466 858 466 778 466 c 0,10,11
 699 466 699 466 645.5 422 c 128,-1,12
 592 378 592 378 574 290 c 2,13,-1
 516 0 l 1,14,-1
 445 0 l 1,15,-1
 505 300 l 2,16,17
 521 378 521 378 490 422 c 128,-1,18
 459 466 459 466 380 466 c 0,19,20
 299 466 299 466 246 420 c 128,-1,21
 193 374 193 374 174 282 c 2,22,-1
 118 0 l 1,23,-1
 47 0 l 1,24,-1
 151 525 l 1,25,-1
 219 525 l 1,26,-1
 189 374 l 1,27,-1
 174 400 l 1,28,29
 212 468 212 468 270 499 c 128,-1,30
 328 530 328 530 401 530 c 0,31,32
 456 530 456 530 495.5 511.5 c 128,-1,33
 535 493 535 493 557.5 457.5 c 128,-1,34
 580 422 580 422 582 373 c 1,35,-1
 545 381 l 1,36,37
 584 456 584 456 648.5 493 c 128,-1,38
 713 530 713 530 795 530 c 0,0,1
EndSplineSet
Substitution2: "'smcp' Lowercase to Small Capitals lookup 46 subtable" m.sc
Substitution2: "'aalt' Access All Alternates lookup 0 subtable" m.sc
EndChar

StartChar: n
Encoding: 110 110 83
Width: 676
GlyphClass: 2
Flags: W
AnchorPoint: "Anchor-3" 392 526 basechar 0
AnchorPoint: "Anchor-0" 288 0 basechar 0
LayerCount: 2
Fore
SplineSet
408 530 m 0,0,1
 479 530 479 530 524.5 502.5 c 128,-1,2
 570 475 570 475 587.5 423 c 128,-1,3
 605 371 605 371 590 299 c 2,4,-1
 530 0 l 1,5,-1
 459 0 l 1,6,-1
 519 300 l 2,7,8
 535 378 535 378 502.5 422 c 128,-1,9
 470 466 470 466 388 466 c 0,10,11
 304 466 304 466 248.5 420 c 128,-1,12
 193 374 193 374 174 282 c 2,13,-1
 118 0 l 1,14,-1
 47 0 l 1,15,-1
 151 525 l 1,16,-1
 219 525 l 1,17,-1
 189 374 l 1,18,-1
 174 400 l 1,19,20
 212 468 212 468 272.5 499 c 128,-1,21
 333 530 333 530 408 530 c 0,0,1
EndSplineSet
Substitution2: "'smcp' Lowercase to Small Capitals lookup 46 subtable" n.sc
Substitution2: "'aalt' Access All Alternates lookup 0 subtable" n.sc
EndChar

StartChar: o
Encoding: 111 111 84
Width: 627
GlyphClass: 2
Flags: W
AnchorPoint: "Anchor-4" 510 526 basechar 0
AnchorPoint: "Anchor-3" 364 526 basechar 0
AnchorPoint: "Anchor-2" 354 0 basechar 0
AnchorPoint: "Anchor-1" 312 263 basechar 0
AnchorPoint: "Anchor-0" 260 0 basechar 0
LayerCount: 2
Fore
SplineSet
281 -5 m 0,0,1
 208 -5 208 -5 154.5 22.5 c 128,-1,2
 101 50 101 50 71.5 100 c 128,-1,3
 42 150 42 150 42 218 c 0,4,5
 42 308 42 308 81 378.5 c 128,-1,6
 120 449 120 449 189 489.5 c 128,-1,7
 258 530 258 530 346 530 c 0,8,9
 419 530 419 530 472.5 503 c 128,-1,10
 526 476 526 476 555.5 426 c 128,-1,11
 585 376 585 376 585 308 c 0,12,13
 585 218 585 218 546 147.5 c 128,-1,14
 507 77 507 77 438.5 36 c 128,-1,15
 370 -5 370 -5 281 -5 c 0,0,1
286 58 m 0,16,17
 352 58 352 58 403.5 89.5 c 128,-1,18
 455 121 455 121 484.5 177 c 128,-1,19
 514 233 514 233 514 304 c 0,20,21
 514 382 514 382 468.5 425 c 128,-1,22
 423 468 423 468 341 468 c 0,23,24
 276 468 276 468 224 436 c 128,-1,25
 172 404 172 404 142.5 348.5 c 128,-1,26
 113 293 113 293 113 221 c 0,27,28
 113 144 113 144 158.5 101 c 128,-1,29
 204 58 204 58 286 58 c 0,16,17
EndSplineSet
Substitution2: "'smcp' Lowercase to Small Capitals lookup 46 subtable" o.sc
Substitution2: "Single Substitution lookup 39 subtable" ordmasculine
AlternateSubs2: "'aalt' Access All Alternates lookup 1 subtable" ordmasculine o.sc
EndChar

StartChar: p
Encoding: 112 112 85
Width: 678
GlyphClass: 2
Flags: W
AnchorPoint: "Anchor-3" 418 526 basechar 0
AnchorPoint: "Anchor-0" 304 -111 basechar 0
LayerCount: 2
Fore
SplineSet
339 -5 m 0,0,1
 271 -5 271 -5 222.5 19.5 c 128,-1,2
 174 44 174 44 148.5 90.5 c 128,-1,3
 123 137 123 137 122 203 c 0,4,5
 122 300 122 300 157 373.5 c 128,-1,6
 192 447 192 447 256 488.5 c 128,-1,7
 320 530 320 530 407 530 c 0,8,9
 475 530 475 530 526.5 503.5 c 128,-1,10
 578 477 578 477 607.5 427 c 128,-1,11
 637 377 637 377 637 308 c 0,12,13
 637 240 637 240 615 183 c 128,-1,14
 593 126 593 126 552.5 84 c 128,-1,15
 512 42 512 42 458 18.5 c 128,-1,16
 404 -5 404 -5 339 -5 c 0,0,1
8 -194 m 1,17,-1
 151 525 l 1,18,-1
 219 525 l 1,19,-1
 189 374 l 1,20,-1
 160 269 l 1,21,-1
 149 159 l 1,22,-1
 79 -194 l 1,23,-1
 8 -194 l 1,17,-1
338 58 m 0,24,25
 404 58 404 58 455 89.5 c 128,-1,26
 506 121 506 121 535.5 177 c 128,-1,27
 565 233 565 233 565 304 c 0,28,29
 565 382 565 382 520 425 c 128,-1,30
 475 468 475 468 392 468 c 0,31,32
 327 468 327 468 275.5 436 c 128,-1,33
 224 404 224 404 194.5 348.5 c 128,-1,34
 165 293 165 293 165 221 c 0,35,36
 165 144 165 144 210 101 c 128,-1,37
 255 58 255 58 338 58 c 0,24,25
EndSplineSet
Substitution2: "'smcp' Lowercase to Small Capitals lookup 46 subtable" p.sc
Substitution2: "'aalt' Access All Alternates lookup 0 subtable" p.sc
EndChar

StartChar: q
Encoding: 113 113 86
Width: 678
GlyphClass: 2
Flags: W
AnchorPoint: "Anchor-3" 366 526 basechar 0
AnchorPoint: "Anchor-0" 248 0 basechar 0
LayerCount: 2
Fore
SplineSet
271 -5 m 0,0,1
 204 -5 204 -5 152 22 c 128,-1,2
 100 49 100 49 71 99 c 128,-1,3
 42 149 42 149 42 218 c 0,4,5
 42 285 42 285 64 342 c 128,-1,6
 86 399 86 399 126 441.5 c 128,-1,7
 166 484 166 484 220.5 507 c 128,-1,8
 275 530 275 530 339 530 c 0,9,10
 408 530 408 530 456 505.5 c 128,-1,11
 504 481 504 481 530 434.5 c 128,-1,12
 556 388 556 388 556 322 c 0,13,14
 556 227 556 227 521 153 c 128,-1,15
 486 79 486 79 422 37 c 128,-1,16
 358 -5 358 -5 271 -5 c 0,0,1
286 58 m 0,17,18
 352 58 352 58 403.5 89.5 c 128,-1,19
 455 121 455 121 484.5 177 c 128,-1,20
 514 233 514 233 514 304 c 0,21,22
 514 382 514 382 468.5 425 c 128,-1,23
 423 468 423 468 341 468 c 0,24,25
 276 468 276 468 224 436 c 128,-1,26
 172 404 172 404 142.5 348.5 c 128,-1,27
 113 293 113 293 113 221 c 0,28,29
 113 144 113 144 158.5 101 c 128,-1,30
 204 58 204 58 286 58 c 0,17,18
417 -194 m 1,31,-1
 486 152 l 1,32,-1
 519 257 l 1,33,-1
 530 358 l 1,34,-1
 564 525 l 1,35,-1
 632 525 l 1,36,-1
 488 -194 l 1,37,-1
 417 -194 l 1,31,-1
EndSplineSet
Substitution2: "'smcp' Lowercase to Small Capitals lookup 46 subtable" q.sc
Substitution2: "'aalt' Access All Alternates lookup 0 subtable" q.sc
EndChar

StartChar: r
Encoding: 114 114 87
Width: 401
GlyphClass: 2
Flags: W
AnchorPoint: "Anchor-3" 284 526 basechar 0
AnchorPoint: "Anchor-0" 82 0 basechar 0
LayerCount: 2
Fore
SplineSet
47 0 m 1,0,-1
 151 525 l 1,1,-1
 219 525 l 1,2,-1
 189 370 l 1,3,-1
 181 397 l 1,4,5
 216 466 216 466 273.5 498 c 128,-1,6
 331 530 331 530 417 530 c 1,7,-1
 404 461 l 1,8,9
 399 461 399 461 394.5 461.5 c 128,-1,10
 390 462 390 462 384 462 c 0,11,12
 300 462 300 462 245.5 413.5 c 128,-1,13
 191 365 191 365 171 267 c 2,14,-1
 118 0 l 1,15,-1
 47 0 l 1,0,-1
EndSplineSet
Substitution2: "'smcp' Lowercase to Small Capitals lookup 46 subtable" r.sc
Substitution2: "'aalt' Access All Alternates lookup 0 subtable" r.sc
EndChar

StartChar: s
Encoding: 115 115 88
Width: 488
GlyphClass: 2
Flags: W
AnchorPoint: "Anchor-3" 295 526 basechar 0
AnchorPoint: "Anchor-1" 243 263 basechar 0
AnchorPoint: "Anchor-0" 190 0 basechar 0
LayerCount: 2
Fore
SplineSet
200 -5 m 0,0,1
 136 -5 136 -5 79 13 c 128,-1,2
 22 31 22 31 -9 59 c 1,3,-1
 25 115 l 1,4,5
 55 88 55 88 104 72.5 c 128,-1,6
 153 57 153 57 207 57 c 0,7,8
 282 57 282 57 322.5 82 c 128,-1,9
 363 107 363 107 363 151 c 0,10,11
 363 181 363 181 341.5 196.5 c 128,-1,12
 320 212 320 212 286 220.5 c 128,-1,13
 252 229 252 229 214 237 c 128,-1,14
 176 245 176 245 142 257.5 c 128,-1,15
 108 270 108 270 86.5 296 c 128,-1,16
 65 322 65 322 65 366 c 0,17,18
 65 416 65 416 93.5 453 c 128,-1,19
 122 490 122 490 173 510 c 128,-1,20
 224 530 224 530 293 530 c 0,21,22
 343 530 343 530 392 517 c 128,-1,23
 441 504 441 504 471 481 c 1,24,-1
 441 424 l 1,25,26
 410 448 410 448 369 458.5 c 128,-1,27
 328 469 328 469 287 469 c 0,28,29
 214 469 214 469 174.5 442.5 c 128,-1,30
 135 416 135 416 135 373 c 0,31,32
 135 343 135 343 156.5 327 c 128,-1,33
 178 311 178 311 212 302 c 128,-1,34
 246 293 246 293 284.5 285.5 c 128,-1,35
 323 278 323 278 356.5 265 c 128,-1,36
 390 252 390 252 411.5 227.5 c 128,-1,37
 433 203 433 203 433 159 c 0,38,39
 433 107 433 107 404 70.5 c 128,-1,40
 375 34 375 34 322.5 14.5 c 128,-1,41
 270 -5 270 -5 200 -5 c 0,0,1
EndSplineSet
Substitution2: "'smcp' Lowercase to Small Capitals lookup 46 subtable" s.sc
Substitution2: "'aalt' Access All Alternates lookup 0 subtable" s.sc
EndChar

StartChar: t
Encoding: 116 116 89
Width: 407
GlyphClass: 2
Flags: W
AnchorPoint: "Anchor-4" 368 742 basechar 0
AnchorPoint: "Anchor-3" 222 641 basechar 0
AnchorPoint: "Anchor-1" 184 277 basechar 0
AnchorPoint: "Anchor-0" 196 0 basechar 0
LayerCount: 2
Fore
SplineSet
214 -5 m 4,0,1
 169 -5 169 -5 137 14.5 c 132,-1,2
 105 34 105 34 92.5 70 c 132,-1,3
 80 106 80 106 90 156 c 6,4,-1
 186 641 l 1,5,-1
 257 641 l 1,6,-1
 161 159 l 6,7,8
 151 110 151 110 168.5 83 c 132,-1,9
 186 56 186 56 233 56 c 4,10,11
 255 56 255 56 276 62.5 c 132,-1,12
 297 69 297 69 314 83 c 5,13,-1
 331 29 l 5,14,15
 306 10 306 10 275 2.5 c 132,-1,16
 244 -5 244 -5 214 -5 c 4,0,1
58 466 m 1,17,-1
 69 525 l 1,18,-1
 394 525 l 1,19,-1
 382 466 l 1,20,-1
 58 466 l 1,17,-1
EndSplineSet
Substitution2: "'ss01' Style Set 1 lookup 50 subtable" t.ss01
Substitution2: "'smcp' Lowercase to Small Capitals lookup 46 subtable" t.sc
AlternateSubs2: "'aalt' Access All Alternates lookup 1 subtable" t.sc t.ss01
EndChar

StartChar: u
Encoding: 117 117 90
Width: 672
GlyphClass: 2
Flags: W
AnchorPoint: "Anchor-4" 590 526 basechar 0
AnchorPoint: "Anchor-3" 386 526 basechar 0
AnchorPoint: "Anchor-2" 521 0 basechar 0
AnchorPoint: "Anchor-0" 281 0 basechar 0
LayerCount: 2
Fore
SplineSet
267 -5 m 0,0,1
 198 -5 198 -5 152.5 23 c 128,-1,2
 107 51 107 51 90 103 c 128,-1,3
 73 155 73 155 86 226 c 2,4,-1
 146 525 l 1,5,-1
 217 525 l 1,6,-1
 157 226 l 2,7,8
 142 148 142 148 174 103.5 c 128,-1,9
 206 59 206 59 286 59 c 0,10,11
 369 59 369 59 424.5 105 c 128,-1,12
 480 151 480 151 499 243 c 2,13,-1
 555 525 l 1,14,-1
 626 525 l 1,15,-1
 521 0 l 1,16,-1
 453 0 l 1,17,-1
 483 151 l 1,18,-1
 498 126 l 1,19,20
 461 58 461 58 400.5 26.5 c 128,-1,21
 340 -5 340 -5 267 -5 c 0,0,1
EndSplineSet
Substitution2: "'ss01' Style Set 1 lookup 50 subtable" u.ss01
Substitution2: "'smcp' Lowercase to Small Capitals lookup 46 subtable" u.sc
AlternateSubs2: "'aalt' Access All Alternates lookup 1 subtable" u.sc u.ss01
EndChar

StartChar: v
Encoding: 118 118 91
Width: 542
GlyphClass: 2
Flags: W
AnchorPoint: "Anchor-3" 324 526 basechar 0
AnchorPoint: "Anchor-2" 256 0 basechar 0
AnchorPoint: "Anchor-0" 219 0 basechar 0
LayerCount: 2
Fore
SplineSet
183 0 m 1,0,-1
 53 525 l 1,1,-1
 124 525 l 1,2,-1
 242 38 l 1,3,-1
 208 38 l 1,4,-1
 520 525 l 1,5,-1
 594 525 l 1,6,-1
 255 0 l 1,7,-1
 183 0 l 1,0,-1
EndSplineSet
Substitution2: "'smcp' Lowercase to Small Capitals lookup 46 subtable" v.sc
Substitution2: "'aalt' Access All Alternates lookup 0 subtable" v.sc
EndChar

StartChar: w
Encoding: 119 119 92
Width: 959
GlyphClass: 2
Flags: W
AnchorPoint: "Anchor-3" 552 526 basechar 0
AnchorPoint: "Anchor-0" 455 0 basechar 0
LayerCount: 2
Fore
SplineSet
243 -5 m 0,0,1
 11 -4 11 -4 57 226 c 2,2,-1
 117 525 l 1,3,-1
 188 525 l 1,4,-1
 131 246 l 2,5,6
 93 59 93 59 263 59 c 0,7,8
 421 59 421 59 459 247 c 2,9,-1
 515 525 l 1,10,-1
 586 525 l 1,11,-1
 529 243 l 2,12,13
 492 59 492 59 661 59 c 0,14,15
 820 59 820 59 857 243 c 2,16,-1
 913 525 l 1,17,-1
 984 525 l 1,18,-1
 920 206 l 1,19,20
 873 -4 873 -4 640 -5 c 0,21,22
 412 -4 412 -4 458 225 c 1,23,-1
 518 222 l 1,24,25
 473 -6 473 -6 243 -5 c 0,0,1
82 525 m 1,26,-1
 141 525 l 1,27,-1
 129 466 l 1,28,-1
 70 466 l 1,29,-1
 82 525 l 1,26,-1
EndSplineSet
Substitution2: "'ss01' Style Set 1 lookup 50 subtable" w.ss01
Substitution2: "'smcp' Lowercase to Small Capitals lookup 46 subtable" w.sc
AlternateSubs2: "'aalt' Access All Alternates lookup 1 subtable" w.sc w.ss01
EndChar

StartChar: x
Encoding: 120 120 93
Width: 534
GlyphClass: 2
Flags: W
AnchorPoint: "Anchor-3" 320 526 basechar 0
AnchorPoint: "Anchor-0" 215 0 basechar 0
LayerCount: 2
Fore
SplineSet
-35 0 m 1,0,-1
 248 290 l 1,1,-1
 240 255 l 1,2,-1
 84 525 l 1,3,-1
 159 525 l 1,4,-1
 289 298 l 1,5,-1
 257 299 l 1,6,-1
 475 525 l 1,7,-1
 557 525 l 1,8,-1
 288 248 l 1,9,-1
 294 288 l 1,10,-1
 461 0 l 1,11,-1
 385 0 l 1,12,-1
 248 240 l 1,13,-1
 280 240 l 1,14,-1
 49 0 l 1,15,-1
 -35 0 l 1,0,-1
EndSplineSet
Substitution2: "'smcp' Lowercase to Small Capitals lookup 46 subtable" x.sc
Substitution2: "'aalt' Access All Alternates lookup 0 subtable" x.sc
EndChar

StartChar: y
Encoding: 121 121 94
Width: 542
GlyphClass: 2
Flags: W
AnchorPoint: "Anchor-3" 309 526 basechar 0
AnchorPoint: "Anchor-2" 57 -194 basechar 0
AnchorPoint: "Anchor-0" 335 0 basechar 0
LayerCount: 2
Fore
SplineSet
20 -199 m 0,0,1
 -17 -199 -17 -199 -51 -186.5 c 128,-1,2
 -85 -174 -85 -174 -105 -152 c 1,3,-1
 -67 -100 l 1,4,5
 -50 -118 -50 -118 -27 -128 c 128,-1,6
 -4 -138 -4 -138 25 -138 c 0,7,8
 59 -138 59 -138 87.5 -119.5 c 128,-1,9
 116 -101 116 -101 147 -53 c 2,10,-1
 200 28 l 1,11,-1
 209 38 l 1,12,-1
 521 525 l 1,13,-1
 594 525 l 1,14,-1
 210 -68 l 2,15,16
 177 -118 177 -118 148 -146.5 c 128,-1,17
 119 -175 119 -175 88.5 -187 c 128,-1,18
 58 -199 58 -199 20 -199 c 0,0,1
188 -15 m 1,19,-1
 53 525 l 1,20,-1
 125 525 l 1,21,-1
 243 43 l 1,22,-1
 188 -15 l 1,19,-1
EndSplineSet
Substitution2: "'ss01' Style Set 1 lookup 50 subtable" y.ss01
Substitution2: "'smcp' Lowercase to Small Capitals lookup 46 subtable" y.sc
AlternateSubs2: "'aalt' Access All Alternates lookup 1 subtable" y.sc y.ss01
EndChar

StartChar: z
Encoding: 122 122 95
Width: 511
GlyphClass: 2
Flags: W
AnchorPoint: "Anchor-3" 308 526 basechar 0
AnchorPoint: "Anchor-2" 417 0 basechar 0
AnchorPoint: "Anchor-0" 211 0 basechar 0
LayerCount: 2
Fore
SplineSet
-11 0 m 1,0,-1
 -2 47 l 1,1,-1
 432 490 l 1,2,-1
 448 466 l 1,3,-1
 89 466 l 1,4,-1
 101 525 l 1,5,-1
 516 525 l 1,6,-1
 506 479 l 1,7,-1
 73 35 l 1,8,-1
 54 59 l 1,9,-1
 429 59 l 1,10,-1
 417 0 l 1,11,-1
 -11 0 l 1,0,-1
EndSplineSet
Substitution2: "'ss01' Style Set 1 lookup 50 subtable" z.ss01
Substitution2: "'smcp' Lowercase to Small Capitals lookup 46 subtable" z.sc
AlternateSubs2: "'aalt' Access All Alternates lookup 1 subtable" z.sc z.ss01
EndChar

StartChar: braceleft
Encoding: 123 123 96
Width: 335
GlyphClass: 1
Flags: W
LayerCount: 2
Fore
SplineSet
184 -194 m 2,0,1
 144 -194 144 -194 116.5 -178 c 128,-1,2
 89 -162 89 -162 78 -130.5 c 128,-1,3
 67 -99 67 -99 76 -53 c 2,4,-1
 125 193 l 2,5,6
 130 220 130 220 121 232 c 128,-1,7
 112 244 112 244 91 244 c 2,8,-1
 56 244 l 1,9,-1
 68 304 l 1,10,-1
 103 304 l 2,11,12
 126 304 126 304 139 316 c 128,-1,13
 152 328 152 328 157 355 c 2,14,-1
 210 617 l 2,15,16
 223 680 223 680 261 711 c 128,-1,17
 299 742 299 742 371 742 c 2,18,-1
 408 742 l 1,19,-1
 396 682 l 1,20,-1
 370 682 l 2,21,22
 330 682 330 682 308.5 662.5 c 128,-1,23
 287 643 287 643 280 610 c 2,24,-1
 229 356 l 2,25,26
 223 326 223 326 213 308.5 c 128,-1,27
 203 291 203 291 187 282 c 128,-1,28
 171 273 171 273 145 269 c 1,29,-1
 147 278 l 1,30,31
 177 273 177 273 190.5 252.5 c 128,-1,32
 204 232 204 232 196 192 c 2,33,-1
 148 -46 l 2,34,35
 139 -92 139 -92 156 -113 c 128,-1,36
 173 -134 173 -134 206 -134 c 2,37,-1
 233 -134 l 1,38,-1
 221 -194 l 1,39,-1
 184 -194 l 2,0,1
EndSplineSet
Substitution2: "'case' Case-Sensitive Forms lookup 47 subtable" braceleft.case
Substitution2: "'aalt' Access All Alternates lookup 0 subtable" braceleft.case
EndChar

StartChar: bar
Encoding: 124 124 97
Width: 294
GlyphClass: 1
Flags: W
LayerCount: 2
Fore
SplineSet
23 -194 m 1,0,-1
 210 742 l 1,1,-1
 276 742 l 1,2,-1
 89 -194 l 1,3,-1
 23 -194 l 1,0,-1
EndSplineSet
EndChar

StartChar: braceright
Encoding: 125 125 98
Width: 335
GlyphClass: 1
Flags: W
LayerCount: 2
Fore
SplineSet
-70 -194 m 1,0,-1
 -58 -134 l 1,1,-1
 -31 -134 l 2,2,3
 10 -134 10 -134 31 -114.5 c 128,-1,4
 52 -95 52 -95 59 -62 c 2,5,-1
 110 192 l 2,6,7
 117 223 117 223 126.5 240.5 c 128,-1,8
 136 258 136 258 152.5 267 c 128,-1,9
 169 276 169 276 194 279 c 1,10,-1
 192 270 l 1,11,12
 162 275 162 275 148.5 295.5 c 128,-1,13
 135 316 135 316 143 356 c 2,14,-1
 191 594 l 2,15,16
 200 640 200 640 183 661 c 128,-1,17
 166 682 166 682 133 682 c 2,18,-1
 106 682 l 1,19,-1
 117 742 l 1,20,-1
 155 742 l 2,21,22
 195 742 195 742 222.5 726 c 128,-1,23
 250 710 250 710 261 678.5 c 128,-1,24
 272 647 272 647 263 601 c 2,25,-1
 213 355 l 2,26,27
 208 328 208 328 217.5 316 c 128,-1,28
 227 304 227 304 247 304 c 2,29,-1
 282 304 l 1,30,-1
 271 244 l 1,31,-1
 236 244 l 2,32,33
 213 244 213 244 200 232 c 128,-1,34
 187 220 187 220 182 193 c 2,35,-1
 129 -69 l 2,36,37
 116 -132 116 -132 78 -163 c 128,-1,38
 40 -194 40 -194 -32 -194 c 2,39,-1
 -70 -194 l 1,0,-1
EndSplineSet
Substitution2: "'case' Case-Sensitive Forms lookup 47 subtable" braceright.case
Substitution2: "'aalt' Access All Alternates lookup 0 subtable" braceright.case
EndChar

StartChar: asciitilde
Encoding: 126 126 99
Width: 575
GlyphClass: 1
Flags: W
LayerCount: 2
Fore
SplineSet
401 272 m 0,0,1
 363 272 363 272 338 287.5 c 128,-1,2
 313 303 313 303 294.5 323 c 128,-1,3
 276 343 276 343 257 358 c 128,-1,4
 238 373 238 373 211 373 c 0,5,6
 174 373 174 373 148.5 347.5 c 128,-1,7
 123 322 123 322 114 278 c 1,8,-1
 65 278 l 1,9,10
 74 328 74 328 95 361.5 c 128,-1,11
 116 395 116 395 146 412 c 128,-1,12
 176 429 176 429 209 429 c 0,13,14
 248 429 248 429 272.5 413.5 c 128,-1,15
 297 398 297 398 315.5 378 c 128,-1,16
 334 358 334 358 353 342.5 c 128,-1,17
 372 327 372 327 399 327 c 0,18,19
 436 327 436 327 461.5 353.5 c 128,-1,20
 487 380 487 380 496 423 c 1,21,-1
 545 423 l 1,22,23
 536 374 536 374 515 340 c 128,-1,24
 494 306 494 306 464.5 289 c 128,-1,25
 435 272 435 272 401 272 c 0,0,1
EndSplineSet
EndChar

StartChar: exclamdown
Encoding: 161 161 101
Width: 260
GlyphClass: 1
Flags: W
LayerCount: 2
Fore
SplineSet
4 -154 m 1,0,-1
 113 315 l 1,1,-1
 167 315 l 1,2,-1
 88 -154 l 1,3,-1
 4 -154 l 1,0,-1
171 427 m 0,4,5
 150 427 150 427 135 441.5 c 128,-1,6
 120 456 120 456 120 475 c 0,7,8
 120 491 120 491 127.5 503 c 128,-1,9
 135 515 135 515 147.5 522.5 c 128,-1,10
 160 530 160 530 175 530 c 0,11,12
 197 530 197 530 211 516 c 128,-1,13
 225 502 225 502 225 481 c 0,14,15
 225 459 225 459 209.5 443 c 128,-1,16
 194 427 194 427 171 427 c 0,4,5
EndSplineSet
Substitution2: "'case' Case-Sensitive Forms lookup 47 subtable" exclamdown.case
Substitution2: "'smcp' Lowercase to Small Capitals lookup 46 subtable" exclamdown.sc
Substitution2: "'c2sc' Capitals to Small Capitals lookup 45 subtable" exclamdown.sc
AlternateSubs2: "'aalt' Access All Alternates lookup 1 subtable" exclamdown.sc exclamdown.case
EndChar

StartChar: cent
Encoding: 162 162 102
Width: 563
GlyphClass: 1
Flags: W
LayerCount: 2
Fore
SplineSet
285 -5 m 0,0,1
 210 -5 210 -5 155.5 22.5 c 128,-1,2
 101 50 101 50 71.5 100 c 128,-1,3
 42 150 42 150 42 218 c 0,4,5
 42 308 42 308 81 378.5 c 128,-1,6
 120 449 120 449 189.5 489.5 c 128,-1,7
 259 530 259 530 348 530 c 0,8,9
 421 530 421 530 473.5 503.5 c 128,-1,10
 526 477 526 477 555 425 c 1,11,-1
 495 390 l 1,12,13
 473 430 473 430 434.5 449 c 128,-1,14
 396 468 396 468 342 468 c 0,15,16
 276 468 276 468 224 436 c 128,-1,17
 172 404 172 404 142.5 348.5 c 128,-1,18
 113 293 113 293 113 221 c 0,19,20
 113 144 113 144 158.5 101 c 128,-1,21
 204 58 204 58 288 58 c 0,22,23
 339 58 339 58 382.5 77.5 c 128,-1,24
 426 97 426 97 454 134 c 1,25,-1
 505 95 l 1,26,27
 471 48 471 48 412 21.5 c 128,-1,28
 353 -5 353 -5 285 -5 c 0,0,1
209 -120 m 1,29,-1
 361 645 l 1,30,-1
 410 645 l 1,31,-1
 258 -120 l 1,32,-1
 209 -120 l 1,29,-1
EndSplineSet
EndChar

StartChar: sterling
Encoding: 163 163 103
Width: 637
GlyphClass: 1
Flags: W
LayerCount: 2
Fore
SplineSet
93 13 m 1,0,-1
 182 459 l 2,1,2
 199 545 199 545 243.5 599.5 c 128,-1,3
 288 654 288 654 353 680 c 128,-1,4
 418 706 418 706 496 706 c 0,5,6
 557 706 557 706 609 692.5 c 128,-1,7
 661 679 661 679 695 650 c 1,8,-1
 660 592 l 1,9,10
 628 618 628 618 585.5 629 c 128,-1,11
 543 640 543 640 492 640 c 0,12,13
 394 640 394 640 334 595.5 c 128,-1,14
 274 551 274 551 254 452 c 2,15,-1
 166 13 l 1,16,-1
 93 13 l 1,0,-1
-23 0 m 1,17,-1
 -10 64 l 1,18,-1
 567 64 l 1,19,-1
 554 0 l 1,20,-1
 -23 0 l 1,17,-1
41 325 m 1,21,-1
 52 375 l 1,22,-1
 515 375 l 1,23,-1
 505 325 l 1,24,-1
 41 325 l 1,21,-1
EndSplineSet
EndChar

StartChar: currency
Encoding: 164 164 104
Width: 700
GlyphClass: 1
Flags: W
LayerCount: 2
Fore
SplineSet
161 473 m 1,0,-1
 44 590 l 1,1,-1
 86 635 l 1,2,-1
 203 518 l 1,3,-1
 161 473 l 1,0,-1
559 473 m 1,4,-1
 517 518 l 1,5,-1
 635 635 l 1,6,-1
 677 590 l 1,7,-1
 559 473 l 1,4,-1
635 0 m 1,8,-1
 517 117 l 1,9,-1
 559 162 l 1,10,-1
 677 45 l 1,11,-1
 635 0 l 1,8,-1
86 0 m 1,12,-1
 44 45 l 1,13,-1
 161 162 l 1,14,-1
 203 117 l 1,15,-1
 86 0 l 1,12,-1
360 52 m 0,16,17
 304 52 304 52 254.5 73 c 128,-1,18
 205 94 205 94 167.5 130.5 c 128,-1,19
 130 167 130 167 108.5 215 c 128,-1,20
 87 263 87 263 87 318 c 256,21,22
 87 373 87 373 108.5 421.5 c 128,-1,23
 130 470 130 470 167.5 507 c 128,-1,24
 205 544 205 544 254.5 565 c 128,-1,25
 304 586 304 586 360 586 c 0,26,27
 418 586 418 586 467.5 565 c 128,-1,28
 517 544 517 544 555 507 c 128,-1,29
 593 470 593 470 614.5 421.5 c 128,-1,30
 636 373 636 373 636 318 c 256,31,32
 636 263 636 263 614.5 215 c 128,-1,33
 593 167 593 167 555 130.5 c 128,-1,34
 517 94 517 94 467.5 73 c 128,-1,35
 418 52 418 52 360 52 c 0,16,17
360 112 m 0,36,37
 420 112 420 112 469 140 c 128,-1,38
 518 168 518 168 548 214.5 c 128,-1,39
 578 261 578 261 578 318 c 256,40,41
 578 375 578 375 548 422 c 128,-1,42
 518 469 518 469 469 497.5 c 128,-1,43
 420 526 420 526 360 526 c 0,44,45
 302 526 302 526 253 497.5 c 128,-1,46
 204 469 204 469 175 422 c 128,-1,47
 146 375 146 375 146 318 c 256,48,49
 146 261 146 261 175 214.5 c 128,-1,50
 204 168 204 168 253 140 c 128,-1,51
 302 112 302 112 360 112 c 0,36,37
EndSplineSet
EndChar

StartChar: yen
Encoding: 165 165 105
Width: 695
GlyphClass: 1
Flags: W
LayerCount: 2
Fore
SplineSet
258 0 m 1,0,-1
 319 305 l 1,1,-1
 328 262 l 1,2,-1
 88 700 l 1,3,-1
 164 700 l 1,4,-1
 377 307 l 1,5,-1
 336 307 l 1,6,-1
 703 700 l 1,7,-1
 781 700 l 1,8,-1
 367 255 l 1,9,-1
 393 305 l 1,10,-1
 332 0 l 1,11,-1
 258 0 l 1,0,-1
63 130 m 1,12,-1
 73 174 l 1,13,-1
 586 174 l 1,14,-1
 577 130 l 1,15,-1
 63 130 l 1,12,-1
91 268 m 1,16,-1
 101 312 l 1,17,-1
 614 312 l 1,18,-1
 605 268 l 1,19,-1
 91 268 l 1,16,-1
EndSplineSet
EndChar

StartChar: brokenbar
Encoding: 166 166 106
Width: 294
GlyphClass: 1
Flags: W
LayerCount: 2
Fore
SplineSet
140 392 m 1,0,-1
 210 742 l 1,1,-1
 276 742 l 1,2,-1
 206 392 l 1,3,-1
 140 392 l 1,0,-1
23 -194 m 1,4,-1
 93 156 l 1,5,-1
 159 156 l 1,6,-1
 89 -194 l 1,7,-1
 23 -194 l 1,4,-1
EndSplineSet
EndChar

StartChar: section
Encoding: 167 167 107
Width: 490
GlyphClass: 1
Flags: W
LayerCount: 2
Fore
SplineSet
321 148 m 1,0,-1
 272 184 l 1,1,2
 333 194 333 194 366 225 c 128,-1,3
 399 256 399 256 399 299 c 0,4,5
 399 333 399 333 378.5 351 c 128,-1,6
 358 369 358 369 326 380 c 128,-1,7
 294 391 294 391 257.5 400.5 c 128,-1,8
 221 410 221 410 189.5 424.5 c 128,-1,9
 158 439 158 439 137.5 465 c 128,-1,10
 117 491 117 491 117 536 c 0,11,12
 117 586 117 586 146.5 624 c 128,-1,13
 176 662 176 662 229.5 683.5 c 128,-1,14
 283 705 283 705 353 705 c 0,15,16
 386 705 386 705 420.5 699 c 128,-1,17
 455 693 455 693 485 682 c 128,-1,18
 515 671 515 671 535 654 c 1,19,-1
 504 601 l 1,20,21
 474 624 474 624 432.5 635.5 c 128,-1,22
 391 647 391 647 348 647 c 0,23,24
 268 647 268 647 224.5 615.5 c 128,-1,25
 181 584 181 584 181 540 c 0,26,27
 181 507 181 507 201 489.5 c 128,-1,28
 221 472 221 472 253.5 462 c 128,-1,29
 286 452 286 452 321.5 442.5 c 128,-1,30
 357 433 357 433 389 418 c 128,-1,31
 421 403 421 403 441.5 377 c 128,-1,32
 462 351 462 351 462 305 c 0,33,34
 462 247 462 247 422 205.5 c 128,-1,35
 382 164 382 164 321 148 c 1,0,-1
158 -105 m 0,36,37
 100 -105 100 -105 50.5 -87 c 128,-1,38
 1 -69 1 -69 -31 -39 c 1,39,-1
 1 14 l 1,40,41
 33 -15 33 -15 73.5 -31 c 128,-1,42
 114 -47 114 -47 167 -47 c 0,43,44
 242 -47 242 -47 284 -15.5 c 128,-1,45
 326 16 326 16 326 61 c 0,46,47
 326 93 326 93 306 111 c 128,-1,48
 286 129 286 129 254 139.5 c 128,-1,49
 222 150 222 150 186 159.5 c 128,-1,50
 150 169 150 169 118 184.5 c 128,-1,51
 86 200 86 200 65.5 225.5 c 128,-1,52
 45 251 45 251 45 295 c 0,53,54
 45 350 45 350 83 392.5 c 128,-1,55
 121 435 121 435 183 452 c 1,56,-1
 231 416 l 1,57,58
 172 404 172 404 140 373 c 128,-1,59
 108 342 108 342 108 301 c 0,60,61
 108 270 108 270 128.5 251.5 c 128,-1,62
 149 233 149 233 181 222 c 128,-1,63
 213 211 213 211 249 201 c 128,-1,64
 285 191 285 191 317.5 176 c 128,-1,65
 350 161 350 161 370.5 135 c 128,-1,66
 391 109 391 109 391 65 c 0,67,68
 391 15 391 15 361.5 -23.5 c 128,-1,69
 332 -62 332 -62 280 -83.5 c 128,-1,70
 228 -105 228 -105 158 -105 c 0,36,37
EndSplineSet
EndChar

StartChar: copyright
Encoding: 169 169 109
Width: 809
GlyphClass: 1
Flags: W
LayerCount: 2
Fore
SplineSet
421 -3 m 256,0,1
 346 -3 346 -3 282 24 c 128,-1,2
 218 51 218 51 170 99.5 c 128,-1,3
 122 148 122 148 95.5 212 c 128,-1,4
 69 276 69 276 69 350 c 256,5,6
 69 424 69 424 96 488 c 128,-1,7
 123 552 123 552 171 600.5 c 128,-1,8
 219 649 219 649 283.5 676 c 128,-1,9
 348 703 348 703 423 703 c 256,10,11
 498 703 498 703 562.5 676.5 c 128,-1,12
 627 650 627 650 674.5 602 c 128,-1,13
 722 554 722 554 748.5 490.5 c 128,-1,14
 775 427 775 427 775 352 c 256,15,16
 775 277 775 277 748 212.5 c 128,-1,17
 721 148 721 148 672.5 99.5 c 128,-1,18
 624 51 624 51 560 24 c 128,-1,19
 496 -3 496 -3 421 -3 c 256,0,1
421 34 m 256,20,21
 488 34 488 34 545.5 58.5 c 128,-1,22
 603 83 603 83 646 126 c 128,-1,23
 689 169 689 169 713 227.5 c 128,-1,24
 737 286 737 286 737 352 c 0,25,26
 737 419 737 419 713.5 476 c 128,-1,27
 690 533 690 533 647.5 576 c 128,-1,28
 605 619 605 619 548 642.5 c 128,-1,29
 491 666 491 666 423 666 c 0,30,31
 356 666 356 666 298 642 c 128,-1,32
 240 618 240 618 197.5 574.5 c 128,-1,33
 155 531 155 531 131 474 c 128,-1,34
 107 417 107 417 107 350 c 0,35,36
 107 284 107 284 130.5 226.5 c 128,-1,37
 154 169 154 169 196.5 125.5 c 128,-1,38
 239 82 239 82 296.5 58 c 128,-1,39
 354 34 354 34 421 34 c 256,20,21
431 142 m 0,40,41
 371 142 371 142 323.5 168.5 c 128,-1,42
 276 195 276 195 249 242 c 128,-1,43
 222 289 222 289 222 350 c 256,44,45
 222 411 222 411 249 458 c 128,-1,46
 276 505 276 505 323.5 531.5 c 128,-1,47
 371 558 371 558 431 558 c 0,48,49
 481 558 481 558 522.5 537.5 c 128,-1,50
 564 517 564 517 589 481 c 1,51,-1
 546 449 l 1,52,53
 526 478 526 478 495.5 492 c 128,-1,54
 465 506 465 506 430 506 c 0,55,56
 387 506 387 506 353 486.5 c 128,-1,57
 319 467 319 467 299.5 432 c 128,-1,58
 280 397 280 397 280 350 c 256,59,60
 280 303 280 303 299.5 268 c 128,-1,61
 319 233 319 233 353 213.5 c 128,-1,62
 387 194 387 194 430 194 c 0,63,64
 465 194 465 194 495.5 208 c 128,-1,65
 526 222 526 222 546 251 c 1,66,-1
 589 220 l 1,67,68
 564 183 564 183 522.5 162.5 c 128,-1,69
 481 142 481 142 431 142 c 0,40,41
EndSplineSet
EndChar

StartChar: ordfeminine
Encoding: 170 170 110
Width: 401
GlyphClass: 1
Flags: W
LayerCount: 2
Fore
SplineSet
314 430 m 1,0,-1
 327 498 l 1,1,-1
 327 509 l 1,2,-1
 350 622 l 2,3,4
 359 663 359 663 337 683.5 c 128,-1,5
 315 704 315 704 270 704 c 0,6,7
 240 704 240 704 208.5 695 c 128,-1,8
 177 686 177 686 153 669 c 1,9,-1
 137 705 l 1,10,11
 163 724 163 724 201 735 c 128,-1,12
 239 746 239 746 278 746 c 0,13,14
 347 746 347 746 380.5 713.5 c 128,-1,15
 414 681 414 681 401 617 c 2,16,-1
 364 430 l 1,17,-1
 314 430 l 1,0,-1
203 427 m 0,18,19
 150 427 150 427 121 449.5 c 128,-1,20
 92 472 92 472 92 507 c 0,21,22
 92 539 92 539 109.5 562 c 128,-1,23
 127 585 127 585 158.5 596.5 c 128,-1,24
 190 608 190 608 233 608 c 2,25,-1
 355 608 l 1,26,-1
 349 573 l 1,27,-1
 233 573 l 2,28,29
 190 573 190 573 166 557.5 c 128,-1,30
 142 542 142 542 142 512 c 0,31,32
 142 464 142 464 215 464 c 0,33,34
 253 464 253 464 282 479 c 128,-1,35
 311 494 311 494 331 522 c 1,36,-1
 336 492 l 1,37,38
 318 464 318 464 286 445.5 c 128,-1,39
 254 427 254 427 203 427 c 0,18,19
EndSplineSet
EndChar

StartChar: logicalnot
Encoding: 172 172 112
Width: 576
GlyphClass: 1
Flags: W
LayerCount: 2
Fore
SplineSet
529 380 m 1,0,-1
 482 141 l 1,1,-1
 419 141 l 1,2,-1
 455 321 l 1,3,-1
 81 321 l 1,4,-1
 93 380 l 1,5,-1
 529 380 l 1,0,-1
EndSplineSet
EndChar

StartChar: registered
Encoding: 174 174 113
Width: 809
GlyphClass: 1
Flags: W
LayerCount: 2
Fore
SplineSet
421 -3 m 256,0,1
 346 -3 346 -3 282 24 c 128,-1,2
 218 51 218 51 170 99.5 c 128,-1,3
 122 148 122 148 95.5 212 c 128,-1,4
 69 276 69 276 69 350 c 256,5,6
 69 424 69 424 96 488 c 128,-1,7
 123 552 123 552 171 600.5 c 128,-1,8
 219 649 219 649 283.5 676 c 128,-1,9
 348 703 348 703 423 703 c 256,10,11
 498 703 498 703 562.5 676.5 c 128,-1,12
 627 650 627 650 674.5 602 c 128,-1,13
 722 554 722 554 748.5 490.5 c 128,-1,14
 775 427 775 427 775 352 c 256,15,16
 775 277 775 277 748 212.5 c 128,-1,17
 721 148 721 148 672.5 99.5 c 128,-1,18
 624 51 624 51 560 24 c 128,-1,19
 496 -3 496 -3 421 -3 c 256,0,1
551 148 m 1,20,-1
 449 304 l 1,21,-1
 503 304 l 1,22,-1
 605 148 l 1,23,-1
 551 148 l 1,20,-1
421 34 m 256,24,25
 488 34 488 34 545.5 58.5 c 128,-1,26
 603 83 603 83 646 126 c 128,-1,27
 689 169 689 169 713 227.5 c 128,-1,28
 737 286 737 286 737 352 c 0,29,30
 737 419 737 419 713.5 476 c 128,-1,31
 690 533 690 533 647.5 576 c 128,-1,32
 605 619 605 619 548 642.5 c 128,-1,33
 491 666 491 666 423 666 c 0,34,35
 356 666 356 666 298 642 c 128,-1,36
 240 618 240 618 197.5 574.5 c 128,-1,37
 155 531 155 531 131 474 c 128,-1,38
 107 417 107 417 107 350 c 0,39,40
 107 284 107 284 130.5 226.5 c 128,-1,41
 154 169 154 169 196.5 125.5 c 128,-1,42
 239 82 239 82 296.5 58 c 128,-1,43
 354 34 354 34 421 34 c 256,24,25
284 148 m 1,44,-1
 284 552 l 1,45,-1
 441 552 l 2,46,47
 515 552 515 552 557.5 515.5 c 128,-1,48
 600 479 600 479 600 418 c 0,49,50
 600 354 600 354 557.5 318 c 128,-1,51
 515 282 515 282 441 282 c 2,52,-1
 336 282 l 1,53,-1
 336 148 l 1,54,-1
 284 148 l 1,44,-1
335 326 m 1,55,-1
 437 326 l 2,56,57
 490 326 490 326 519.5 350 c 128,-1,58
 549 374 549 374 549 418 c 0,59,60
 549 461 549 461 519.5 484.5 c 128,-1,61
 490 508 490 508 437 508 c 2,62,-1
 335 508 l 1,63,-1
 335 326 l 1,55,-1
EndSplineSet
EndChar

StartChar: degree
Encoding: 176 176 115
Width: 419
GlyphClass: 1
Flags: W
LayerCount: 2
Fore
SplineSet
267 388 m 256,0,1
 222 388 222 388 185.5 409.5 c 128,-1,2
 149 431 149 431 128 466.5 c 128,-1,3
 107 502 107 502 107 547 c 0,4,5
 107 591 107 591 128 627 c 128,-1,6
 149 663 149 663 185.5 684 c 128,-1,7
 222 705 222 705 267 705 c 256,8,9
 312 705 312 705 348 684 c 128,-1,10
 384 663 384 663 405 627 c 128,-1,11
 426 591 426 591 426 547 c 256,12,13
 426 503 426 503 405 467 c 128,-1,14
 384 431 384 431 348 409.5 c 128,-1,15
 312 388 312 388 267 388 c 256,0,1
267 430 m 256,16,17
 300 430 300 430 326 446 c 128,-1,18
 352 462 352 462 367 488 c 128,-1,19
 382 514 382 514 382 547 c 256,20,21
 382 580 382 580 367 606.5 c 128,-1,22
 352 633 352 633 326 648 c 128,-1,23
 300 663 300 663 267 663 c 256,24,25
 234 663 234 663 207.5 648 c 128,-1,26
 181 633 181 633 166 606.5 c 128,-1,27
 151 580 151 580 151 547 c 256,28,29
 151 514 151 514 166 487.5 c 128,-1,30
 181 461 181 461 207.5 445.5 c 128,-1,31
 234 430 234 430 267 430 c 256,16,17
EndSplineSet
EndChar

StartChar: plusminus
Encoding: 177 177 116
Width: 575
GlyphClass: 1
Flags: W
LayerCount: 2
Fore
SplineSet
17 0 m 1,0,-1
 29 60 l 1,1,-1
 464 60 l 1,2,-1
 452 0 l 1,3,-1
 17 0 l 1,0,-1
237 173 m 1,4,-1
 321 591 l 1,5,-1
 384 591 l 1,6,-1
 300 173 l 1,7,-1
 237 173 l 1,4,-1
87 352 m 1,8,-1
 99 412 l 1,9,-1
 534 412 l 1,10,-1
 522 352 l 1,11,-1
 87 352 l 1,8,-1
EndSplineSet
EndChar

StartChar: paragraph
Encoding: 182 182 121
Width: 632
GlyphClass: 1
Flags: W
LayerCount: 2
Fore
SplineSet
153 -100 m 1,0,-1
 252 395 l 1,1,2
 203 396 203 396 164 413.5 c 128,-1,3
 125 431 125 431 102.5 463.5 c 128,-1,4
 80 496 80 496 80 543 c 0,5,6
 80 611 80 611 112.5 655 c 128,-1,7
 145 699 145 699 202.5 720.5 c 128,-1,8
 260 742 260 742 333 742 c 2,9,-1
 613 742 l 1,10,-1
 445 -100 l 1,11,-1
 385 -100 l 1,12,-1
 542 686 l 1,13,-1
 370 686 l 1,14,-1
 213 -100 l 1,15,-1
 153 -100 l 1,0,-1
EndSplineSet
EndChar

StartChar: periodcentered
Encoding: 183 183 122
Width: 252
GlyphClass: 1
Flags: W
LayerCount: 2
Fore
SplineSet
126 216 m 0,0,1
 104 216 104 216 89 231.5 c 128,-1,2
 74 247 74 247 74 268 c 0,3,4
 74 293 74 293 91 309 c 128,-1,5
 108 325 108 325 130 325 c 256,6,7
 152 325 152 325 166.5 311 c 128,-1,8
 181 297 181 297 181 274 c 0,9,10
 181 257 181 257 173.5 244 c 128,-1,11
 166 231 166 231 153.5 223.5 c 128,-1,12
 141 216 141 216 126 216 c 0,0,1
EndSplineSet
Substitution2: "'case' Case-Sensitive Forms lookup 47 subtable" periodcentered.case
Substitution2: "Single Substitution lookup 23 subtable" periodcentered.loclCAT.case
Substitution2: "Single Substitution lookup 22 subtable" periodcentered.loclCAT
AlternateSubs2: "'aalt' Access All Alternates lookup 1 subtable" periodcentered.loclCAT periodcentered.loclCAT.case periodcentered.case
EndChar

StartChar: ordmasculine
Encoding: 186 186 125
Width: 415
GlyphClass: 1
Flags: W
LayerCount: 2
Fore
SplineSet
251 427 m 0,0,1
 205 427 205 427 170.5 444.5 c 128,-1,2
 136 462 136 462 116.5 493 c 128,-1,3
 97 524 97 524 97 565 c 0,4,5
 97 617 97 617 122.5 658 c 128,-1,6
 148 699 148 699 192.5 722.5 c 128,-1,7
 237 746 237 746 294 746 c 0,8,9
 340 746 340 746 374 729 c 128,-1,10
 408 712 408 712 427 681 c 128,-1,11
 446 650 446 650 446 609 c 0,12,13
 446 557 446 557 421 515.5 c 128,-1,14
 396 474 396 474 352 450.5 c 128,-1,15
 308 427 308 427 251 427 c 0,0,1
255 472 m 0,16,17
 296 472 296 472 327.5 490 c 128,-1,18
 359 508 359 508 377 538.5 c 128,-1,19
 395 569 395 569 395 606 c 0,20,21
 395 650 395 650 365.5 676 c 128,-1,22
 336 702 336 702 289 702 c 0,23,24
 248 702 248 702 216.5 684 c 128,-1,25
 185 666 185 666 167 635 c 128,-1,26
 149 604 149 604 149 567 c 0,27,28
 149 523 149 523 178.5 497.5 c 128,-1,29
 208 472 208 472 255 472 c 0,16,17
EndSplineSet
EndChar

StartChar: questiondown
Encoding: 191 191 130
Width: 567
GlyphClass: 1
Flags: W
LayerCount: 2
Fore
SplineSet
231 -160 m 0,0,1
 168 -160 168 -160 121.5 -141.5 c 128,-1,2
 75 -123 75 -123 50.5 -89 c 128,-1,3
 26 -55 26 -55 26 -7 c 0,4,5
 26 37 26 37 41.5 69 c 128,-1,6
 57 101 57 101 82 125 c 128,-1,7
 107 149 107 149 135.5 169.5 c 128,-1,8
 164 190 164 190 192 210.5 c 128,-1,9
 220 231 220 231 241 256.5 c 128,-1,10
 262 282 262 282 270 315 c 1,11,-1
 343 315 l 1,12,13
 336 275 336 275 315 246 c 128,-1,14
 294 217 294 217 266.5 194.5 c 128,-1,15
 239 172 239 172 210 152.5 c 128,-1,16
 181 133 181 133 156 112 c 128,-1,17
 131 91 131 91 115 64.5 c 128,-1,18
 99 38 99 38 99 2 c 0,19,20
 99 -43 99 -43 136 -70 c 128,-1,21
 173 -97 173 -97 241 -97 c 0,22,23
 308 -97 308 -97 357.5 -76.5 c 128,-1,24
 407 -56 407 -56 445 -16 c 1,25,-1
 492 -59 l 1,26,27
 448 -107 448 -107 382.5 -133.5 c 128,-1,28
 317 -160 317 -160 231 -160 c 0,0,1
338 427 m 256,29,30
 316 427 316 427 301.5 441.5 c 128,-1,31
 287 456 287 456 287 476 c 0,32,33
 287 491 287 491 294.5 503.5 c 128,-1,34
 302 516 302 516 314 523 c 128,-1,35
 326 530 326 530 341 530 c 0,36,37
 363 530 363 530 377 516 c 128,-1,38
 391 502 391 502 391 482 c 0,39,40
 391 459 391 459 375.5 443 c 128,-1,41
 360 427 360 427 338 427 c 256,29,30
EndSplineSet
Substitution2: "'case' Case-Sensitive Forms lookup 47 subtable" questiondown.case
Substitution2: "'smcp' Lowercase to Small Capitals lookup 46 subtable" questiondown.sc
Substitution2: "'c2sc' Capitals to Small Capitals lookup 45 subtable" questiondown.sc
AlternateSubs2: "'aalt' Access All Alternates lookup 1 subtable" questiondown.sc questiondown.case
EndChar

StartChar: AE
Encoding: 198 198 137
Width: 1033
GlyphClass: 2
Flags: W
AnchorPoint: "Anchor-3" 689 700 basechar 0
AnchorPoint: "Anchor-2" 920 0 basechar 0
AnchorPoint: "Anchor-0" 463 0 basechar 0
LayerCount: 2
Fore
SplineSet
-51 0 m 1,0,-1
 512 700 l 1,1,-1
 590 700 l 1,2,-1
 579 637 l 1,3,-1
 513 637 l 1,4,-1
 565 666 l 1,5,-1
 32 0 l 1,6,-1
 -51 0 l 1,0,-1
155 187 m 1,7,-1
 175 247 l 1,8,-1
 500 247 l 1,9,-1
 488 187 l 1,10,-1
 155 187 l 1,7,-1
426 0 m 1,11,-1
 566 700 l 1,12,-1
 1046 700 l 1,13,-1
 1033 636 l 1,14,-1
 626 636 l 1,15,-1
 512 64 l 1,16,-1
 933 64 l 1,17,-1
 920 0 l 1,18,-1
 426 0 l 1,11,-1
556 324 m 1,19,-1
 569 387 l 1,20,-1
 939 387 l 1,21,-1
 926 324 l 1,22,-1
 556 324 l 1,19,-1
EndSplineSet
Substitution2: "'ss01' Style Set 1 lookup 50 subtable" AE.ss01
Substitution2: "'c2sc' Capitals to Small Capitals lookup 45 subtable" ae.sc
AlternateSubs2: "'aalt' Access All Alternates lookup 1 subtable" ae.sc AE.ss01
EndChar

StartChar: multiply
Encoding: 215 215 154
Width: 575
GlyphClass: 1
Flags: W
LayerCount: 2
Fore
SplineSet
117 218 m 1,0,-1
 456 526 l 1,1,-1
 493 482 l 1,2,-1
 154 174 l 1,3,-1
 117 218 l 1,0,-1
149 485 m 1,4,-1
 193 526 l 1,5,-1
 460 215 l 1,6,-1
 417 174 l 1,7,-1
 149 485 l 1,4,-1
EndSplineSet
EndChar

StartChar: Thorn
Encoding: 222 222 161
Width: 718
GlyphClass: 2
Flags: W
AnchorPoint: "Anchor-3" 446 700 basechar 0
AnchorPoint: "Anchor-0" 306 0 basechar 0
LayerCount: 2
Fore
SplineSet
143 130 m 1,0,-1
 155 194 l 1,1,-1
 362 194 l 2,2,3
 480 194 480 194 545.5 247 c 128,-1,4
 611 300 611 300 611 404 c 0,5,6
 611 473 611 473 564 508.5 c 128,-1,7
 517 544 517 544 430 544 c 2,8,-1
 226 544 l 1,9,-1
 238 609 l 1,10,-1
 437 609 l 2,11,12
 555 609 555 609 620 557 c 128,-1,13
 685 505 685 505 685 410 c 0,14,15
 685 321 685 321 646 258 c 128,-1,16
 607 195 607 195 534 162.5 c 128,-1,17
 461 130 461 130 360 130 c 2,18,-1
 143 130 l 1,0,-1
62 0 m 1,19,-1
 202 700 l 1,20,-1
 275 700 l 1,21,-1
 135 0 l 1,22,-1
 62 0 l 1,19,-1
EndSplineSet
Substitution2: "'c2sc' Capitals to Small Capitals lookup 45 subtable" thorn.sc
Substitution2: "'aalt' Access All Alternates lookup 0 subtable" thorn.sc
EndChar

StartChar: germandbls
Encoding: 223 223 162
Width: 667
GlyphClass: 1
Flags: W
LayerCount: 2
Fore
SplineSet
341 -5 m 0,0,1
 310 -5 310 -5 277.5 0 c 128,-1,2
 245 5 245 5 225 13 c 1,3,-1
 245 73 l 1,4,5
 266 65 266 65 291 61 c 128,-1,6
 316 57 316 57 341 57 c 0,7,8
 400 57 400 57 444.5 77.5 c 128,-1,9
 489 98 489 98 514 137 c 128,-1,10
 539 176 539 176 539 229 c 0,11,12
 539 288 539 288 498 315.5 c 128,-1,13
 457 343 457 343 389 343 c 2,14,-1
 333 343 l 1,15,-1
 345 404 l 1,16,17
 406 405 406 405 453 425.5 c 128,-1,18
 500 446 500 446 526.5 485 c 128,-1,19
 553 524 553 524 553 577 c 0,20,21
 553 628 553 628 520 656.5 c 128,-1,22
 487 685 487 685 423 685 c 0,23,24
 346 685 346 685 291.5 643 c 128,-1,25
 237 601 237 601 218 505 c 2,26,-1
 117 0 l 1,27,-1
 46 0 l 1,28,-1
 145 500 l 2,29,30
 163 587 163 587 202.5 641 c 128,-1,31
 242 695 242 695 299.5 721 c 128,-1,32
 357 747 357 747 428 747 c 0,33,34
 488 747 488 747 531.5 727 c 128,-1,35
 575 707 575 707 598.5 670.5 c 128,-1,36
 622 634 622 634 622 583 c 0,37,38
 622 521 622 521 591 471 c 128,-1,39
 560 421 560 421 506.5 392 c 128,-1,40
 453 363 453 363 384 363 c 1,41,-1
 415 394 l 1,42,43
 473 394 473 394 517 375.5 c 128,-1,44
 561 357 561 357 586 321 c 128,-1,45
 611 285 611 285 611 232 c 0,46,47
 611 160 611 160 576 106.5 c 128,-1,48
 541 53 541 53 480 24 c 128,-1,49
 419 -5 419 -5 341 -5 c 0,0,1
EndSplineSet
Substitution2: "'smcp' Lowercase to Small Capitals lookup 46 subtable" germandbls.sc
Substitution2: "'aalt' Access All Alternates lookup 0 subtable" germandbls.sc
EndChar

StartChar: ae
Encoding: 230 230 169
Width: 987
GlyphClass: 2
Flags: W
AnchorPoint: "Anchor-3" 511 525 basechar 0
AnchorPoint: "Anchor-2" 716 0 basechar 0
LayerCount: 2
Fore
SplineSet
219 -5 m 0,0,1
 160 -5 160 -5 118 12 c 128,-1,2
 76 29 76 29 54 60 c 128,-1,3
 32 91 32 91 32 134 c 0,4,5
 32 208 32 208 89 252.5 c 128,-1,6
 146 297 146 297 255 297 c 2,7,-1
 438 297 l 1,8,-1
 430 244 l 1,9,-1
 250 244 l 2,10,11
 179 244 179 244 140.5 216 c 128,-1,12
 102 188 102 188 102 138 c 0,13,14
 102 96 102 96 132.5 73.5 c 128,-1,15
 163 51 163 51 226 51 c 0,16,17
 270 51 270 51 308.5 67.5 c 128,-1,18
 347 84 347 84 374 117.5 c 128,-1,19
 401 151 401 151 411 201 c 2,20,-1
 436 324 l 2,21,22
 451 394 451 394 419.5 431 c 128,-1,23
 388 468 388 468 311 468 c 0,24,25
 260 468 260 468 212 451 c 128,-1,26
 164 434 164 434 130 407 c 1,27,-1
 106 463 l 1,28,29
 135 485 135 485 170.5 500 c 128,-1,30
 206 515 206 515 244.5 522.5 c 128,-1,31
 283 530 283 530 321 530 c 0,32,33
 414 530 414 530 459.5 490 c 128,-1,34
 505 450 505 450 504 378 c 1,35,-1
 469 384 l 1,36,37
 495 431 495 431 533 463.5 c 128,-1,38
 571 496 571 496 618 513 c 128,-1,39
 665 530 665 530 715 530 c 0,40,41
 785 530 785 530 836.5 503.5 c 128,-1,42
 888 477 888 477 917 427 c 128,-1,43
 946 377 946 377 946 307 c 0,44,45
 946 291 946 291 944 274.5 c 128,-1,46
 942 258 942 258 938 244 c 1,47,-1
 476 244 l 1,48,-1
 485 297 l 1,49,-1
 905 297 l 1,50,-1
 874 276 l 1,51,52
 884 339 884 339 865.5 382 c 128,-1,53
 847 425 847 425 807 447.5 c 128,-1,54
 767 470 767 470 712 470 c 0,55,56
 649 470 649 470 599 438.5 c 128,-1,57
 549 407 549 407 520.5 351.5 c 128,-1,58
 492 296 492 296 492 222 c 0,59,60
 492 140 492 140 538 99 c 128,-1,61
 584 58 584 58 674 58 c 0,62,63
 729 58 729 58 772 75.5 c 128,-1,64
 815 93 815 93 845 124 c 1,65,-1
 878 73 l 1,66,67
 840 36 840 36 784.5 15.5 c 128,-1,68
 729 -5 729 -5 668 -5 c 0,69,70
 606 -5 606 -5 555.5 15 c 128,-1,71
 505 35 505 35 472.5 76.5 c 128,-1,72
 440 118 440 118 431 180 c 1,73,-1
 469 178 l 1,74,75
 451 111 451 111 412 71 c 128,-1,76
 373 31 373 31 323 13 c 128,-1,77
 273 -5 273 -5 219 -5 c 0,0,1
EndSplineSet
Substitution2: "'ss01' Style Set 1 lookup 50 subtable" ae.ss01
Substitution2: "'smcp' Lowercase to Small Capitals lookup 46 subtable" ae.sc
AlternateSubs2: "'aalt' Access All Alternates lookup 1 subtable" ae.sc ae.ss01
EndChar

StartChar: eth
Encoding: 240 240 179
Width: 583
GlyphClass: 1
Flags: W
LayerCount: 2
Fore
SplineSet
263 -2 m 0,0,1
 161 -2 161 -2 100 52 c 128,-1,2
 39 106 39 106 39 197 c 0,3,4
 39 270 39 270 70.5 324.5 c 128,-1,5
 102 379 102 379 157.5 410 c 128,-1,6
 213 441 213 441 285 441 c 0,7,8
 351 441 351 441 403 412 c 128,-1,9
 455 383 455 383 474 334 c 1,10,11
 464 406 464 406 427 476 c 128,-1,12
 390 546 390 546 331 607.5 c 128,-1,13
 272 669 272 669 198 712 c 1,14,-1
 249 746 l 1,15,16
 340 693 340 693 405 620 c 128,-1,17
 470 547 470 547 505 463 c 128,-1,18
 540 379 540 379 540 292 c 0,19,20
 540 202 540 202 506 136 c 128,-1,21
 472 70 472 70 410 34 c 128,-1,22
 348 -2 348 -2 263 -2 c 0,0,1
265 58 m 0,23,24
 322 58 322 58 365 81.5 c 128,-1,25
 408 105 408 105 432 146.5 c 128,-1,26
 456 188 456 188 456 242 c 0,27,28
 456 307 456 307 413.5 345.5 c 128,-1,29
 371 384 371 384 297 384 c 0,30,31
 242 384 242 384 199.5 360.5 c 128,-1,32
 157 337 157 337 133 295.5 c 128,-1,33
 109 254 109 254 109 199 c 0,34,35
 109 135 109 135 151 96.5 c 128,-1,36
 193 58 193 58 265 58 c 0,23,24
167 504 m 1,37,-1
 151 544 l 1,38,-1
 533 705 l 1,39,-1
 550 666 l 1,40,-1
 167 504 l 1,37,-1
EndSplineSet
Substitution2: "'smcp' Lowercase to Small Capitals lookup 46 subtable" eth.sc
Substitution2: "'aalt' Access All Alternates lookup 0 subtable" eth.sc
EndChar

StartChar: divide
Encoding: 247 247 186
Width: 575
GlyphClass: 1
Flags: W
LayerCount: 2
Fore
SplineSet
81 320 m 1,0,-1
 93 379 l 1,1,-1
 529 379 l 1,2,-1
 517 320 l 1,3,-1
 81 320 l 1,0,-1
264 110 m 0,4,5
 246 110 246 110 232.5 123.5 c 128,-1,6
 219 137 219 137 219 156 c 0,7,8
 219 179 219 179 234 193 c 128,-1,9
 249 207 249 207 269 207 c 0,10,11
 288 207 288 207 301 194.5 c 128,-1,12
 314 182 314 182 314 162 c 0,13,14
 314 140 314 140 299.5 125 c 128,-1,15
 285 110 285 110 264 110 c 0,4,5
340 493 m 0,16,17
 322 493 322 493 308.5 506 c 128,-1,18
 295 519 295 519 295 538 c 0,19,20
 295 561 295 561 310 575.5 c 128,-1,21
 325 590 325 590 345 590 c 0,22,23
 364 590 364 590 377 577.5 c 128,-1,24
 390 565 390 565 390 545 c 0,25,26
 390 523 390 523 375.5 508 c 128,-1,27
 361 493 361 493 340 493 c 0,16,17
EndSplineSet
EndChar

StartChar: thorn
Encoding: 254 254 193
Width: 678
GlyphClass: 2
Flags: W
AnchorPoint: "Anchor-3" 429 526 basechar 0
AnchorPoint: "Anchor-0" 325 0 basechar 0
LayerCount: 2
Fore
SplineSet
8 -194 m 1,0,-1
 195 742 l 1,1,-1
 266 742 l 1,2,-1
 192 374 l 1,3,-1
 160 269 l 1,4,-1
 149 160 l 1,5,-1
 79 -194 l 1,6,-1
 8 -194 l 1,0,-1
339 -5 m 0,7,8
 271 -5 271 -5 222.5 19.5 c 128,-1,9
 174 44 174 44 148.5 90.5 c 128,-1,10
 123 137 123 137 122 203 c 0,11,12
 122 300 122 300 157 373.5 c 128,-1,13
 192 447 192 447 256 488.5 c 128,-1,14
 320 530 320 530 407 530 c 0,15,16
 475 530 475 530 526.5 503.5 c 128,-1,17
 578 477 578 477 607.5 427 c 128,-1,18
 637 377 637 377 637 308 c 0,19,20
 637 240 637 240 615 183 c 128,-1,21
 593 126 593 126 552.5 84 c 128,-1,22
 512 42 512 42 458 18.5 c 128,-1,23
 404 -5 404 -5 339 -5 c 0,7,8
338 58 m 0,24,25
 404 58 404 58 455 89.5 c 128,-1,26
 506 121 506 121 535.5 177 c 128,-1,27
 565 233 565 233 565 304 c 0,28,29
 565 382 565 382 520 425 c 128,-1,30
 475 468 475 468 392 468 c 0,31,32
 327 468 327 468 275.5 436 c 128,-1,33
 224 404 224 404 194.5 348.5 c 128,-1,34
 165 293 165 293 165 221 c 0,35,36
 165 144 165 144 210 101 c 128,-1,37
 255 58 255 58 338 58 c 0,24,25
EndSplineSet
Substitution2: "'smcp' Lowercase to Small Capitals lookup 46 subtable" thorn.sc
Substitution2: "'aalt' Access All Alternates lookup 0 subtable" thorn.sc
EndChar

StartChar: eogonek
Encoding: 281 281 220
Width: 604
GlyphClass: 2
Flags: W
AnchorPoint: "Anchor-3" 350 525 basechar 0
LayerCount: 2
Fore
SplineSet
341 -220 m 0,0,1
 301 -220 301 -220 275 -198.5 c 128,-1,2
 249 -177 249 -177 249 -138 c 0,3,4
 249 -111 249 -111 260.5 -84.5 c 128,-1,5
 272 -58 272 -58 297.5 -32 c 128,-1,6
 323 -6 323 -6 362 18 c 1,7,-1
 375 7 l 1,8,9
 350 1 350 1 328.5 -2 c 128,-1,10
 307 -5 307 -5 287 -5 c 0,11,12
 212 -5 212 -5 157 22.5 c 128,-1,13
 102 50 102 50 72 100 c 128,-1,14
 42 150 42 150 42 219 c 0,15,16
 42 309 42 309 80 379 c 128,-1,17
 118 449 118 449 184 489.5 c 128,-1,18
 250 530 250 530 334 530 c 0,19,20
 404 530 404 530 455.5 503.5 c 128,-1,21
 507 477 507 477 535 427 c 0,22,23
 573 359 573 359 555 277 c 1,24,-1
 74 187 l 1,25,-1
 83 243 l 1,26,-1
 521 330 l 1,27,-1
 494 276 l 1,28,29
 504 339 504 339 485 382 c 128,-1,30
 466 425 466 425 426.5 447.5 c 128,-1,31
 387 470 387 470 331 470 c 0,32,33
 267 470 267 470 217.5 438.5 c 128,-1,34
 168 407 168 407 140 351.5 c 128,-1,35
 112 296 112 296 112 222 c 0,36,37
 112 143 112 143 157.5 100.5 c 128,-1,38
 203 58 203 58 294 58 c 0,39,40
 347 58 347 58 392 75.5 c 128,-1,41
 437 93 437 93 466 124 c 1,42,-1
 498 73 l 1,43,44
 488 63 488 63 476 54 c 128,-1,45
 464 45 464 45 454 39 c 0,46,47
 370 -10 370 -10 335 -51.5 c 128,-1,48
 300 -93 300 -93 300 -128 c 0,49,50
 300 -152 300 -152 314 -164 c 128,-1,51
 328 -176 328 -176 352 -176 c 0,52,53
 369 -176 369 -176 386 -171 c 128,-1,54
 403 -166 403 -166 418 -157 c 1,55,-1
 428 -196 l 1,56,57
 410 -207 410 -207 388.5 -213.5 c 128,-1,58
 367 -220 367 -220 341 -220 c 0,0,1
EndSplineSet
Substitution2: "'ss01' Style Set 1 lookup 50 subtable" eogonek.ss01
Substitution2: "'smcp' Lowercase to Small Capitals lookup 46 subtable" eogonek.sc
Substitution2: "'locl' Localized Forms in Latin lookup 15 subtable" eogonek.loclNAV
AlternateSubs2: "'aalt' Access All Alternates lookup 1 subtable" eogonek.loclNAV eogonek.sc eogonek.ss01
EndChar

StartChar: Hbar
Encoding: 294 294 233
Width: 824
GlyphClass: 2
Flags: W
AnchorPoint: "Anchor-3" 499 700 basechar 0
AnchorPoint: "Anchor-1" 469 548 basechar 0
AnchorPoint: "Anchor-0" 359 0 basechar 0
LayerCount: 2
Fore
SplineSet
718 700 m 1,0,-1
 791 700 l 1,1,-1
 651 0 l 1,2,-1
 578 0 l 1,3,-1
 718 700 l 1,0,-1
140 0 m 1,4,-1
 67 0 l 1,5,-1
 207 700 l 1,6,-1
 280 700 l 1,7,-1
 140 0 l 1,4,-1
650 323 m 1,8,-1
 198 323 l 1,9,-1
 210 388 l 1,10,-1
 664 388 l 1,11,-1
 650 323 l 1,8,-1
61 513 m 1,12,-1
 72 572 l 1,13,-1
 875 572 l 1,14,-1
 864 513 l 1,15,-1
 61 513 l 1,12,-1
EndSplineSet
Substitution2: "'c2sc' Capitals to Small Capitals lookup 45 subtable" hbar.sc
Substitution2: "'aalt' Access All Alternates lookup 0 subtable" hbar.sc
EndChar

StartChar: hbar
Encoding: 295 295 234
Width: 678
GlyphClass: 2
Flags: W
AnchorPoint: "Anchor-4" 301 526 basechar 0
AnchorPoint: "Anchor-3" 228 725 basechar 0
AnchorPoint: "Anchor-1" 270 633 basechar 0
AnchorPoint: "Anchor-0" 288 0 basechar 0
LayerCount: 2
Fore
SplineSet
409 530 m 0,0,1
 480 530 480 530 525.5 502.5 c 128,-1,2
 571 475 571 475 588.5 423 c 128,-1,3
 606 371 606 371 591 299 c 2,4,-1
 531 0 l 1,5,-1
 460 0 l 1,6,-1
 520 300 l 2,7,8
 536 378 536 378 503.5 422 c 128,-1,9
 471 466 471 466 389 466 c 0,10,11
 305 466 305 466 249.5 420 c 128,-1,12
 194 374 194 374 175 282 c 2,13,-1
 119 0 l 1,14,-1
 48 0 l 1,15,-1
 196 742 l 1,16,-1
 267 742 l 1,17,-1
 193 374 l 1,18,-1
 175 400 l 1,19,20
 213 468 213 468 273.5 499 c 128,-1,21
 334 530 334 530 409 530 c 0,0,1
72 607 m 1,22,-1
 83 659 l 1,23,-1
 424 659 l 1,24,-1
 414 607 l 1,25,-1
 72 607 l 1,22,-1
EndSplineSet
Substitution2: "'smcp' Lowercase to Small Capitals lookup 46 subtable" hbar.sc
Substitution2: "'aalt' Access All Alternates lookup 0 subtable" hbar.sc
EndChar

StartChar: dotlessi
Encoding: 305 305 244
Width: 269
GlyphClass: 2
Flags: W
AnchorPoint: "Anchor-3" 187 526 basechar 0
AnchorPoint: "Anchor-2" 118 0 basechar 0
AnchorPoint: "Anchor-1" 139 274 basechar 0
AnchorPoint: "Anchor-0" 82 0 basechar 0
LayerCount: 2
Fore
SplineSet
47 0 m 1,0,-1
 151 525 l 1,1,-1
 222 525 l 1,2,-1
 118 0 l 1,3,-1
 47 0 l 1,0,-1
EndSplineSet
Substitution2: "'smcp' Lowercase to Small Capitals lookup 46 subtable" dotlessi.sc
Substitution2: "'aalt' Access All Alternates lookup 0 subtable" dotlessi.sc
EndChar

StartChar: IJ
Encoding: 306 306 245
Width: 706
GlyphClass: 2
Flags: W
AnchorPoint: "Anchor-3" 256 700 basechar 0
LayerCount: 2
Fore
SplineSet
293 -6 m 0,0,1
 218 -6 218 -6 159 13 c 128,-1,2
 100 32 100 32 59 63 c 1,3,-1
 97 122 l 1,4,5
 137 92 137 92 188 76 c 128,-1,6
 239 60 239 60 297 60 c 0,7,8
 399 60 399 60 459 117 c 128,-1,9
 519 174 519 174 543 299 c 2,10,-1
 623 700 l 1,11,-1
 697 700 l 1,12,-1
 616 294 l 2,13,14
 585 141 585 141 505.5 67.5 c 128,-1,15
 426 -6 426 -6 293 -6 c 0,0,1
116 302 m 1,16,-1
 196 700 l 1,17,-1
 269 700 l 1,18,-1
 189 302 l 1,19,-1
 116 302 l 1,16,-1
EndSplineSet
Substitution2: "'ss01' Style Set 1 lookup 50 subtable" IJ.ss01
Substitution2: "'c2sc' Capitals to Small Capitals lookup 45 subtable" ij.sc
AlternateSubs2: "'aalt' Access All Alternates lookup 1 subtable" ij.sc IJ.ss01
EndChar

StartChar: kgreenlandic
Encoding: 312 312 251
Width: 594
GlyphClass: 2
Flags: W
AnchorPoint: "Anchor-3" 333 526 basechar 0
AnchorPoint: "Anchor-0" 229 0 basechar 0
LayerCount: 2
Fore
SplineSet
132 140 m 1,0,-1
 146 227 l 1,1,-1
 528 525 l 1,2,-1
 629 525 l 1,3,-1
 342 302 l 1,4,-1
 303 272 l 1,5,-1
 132 140 l 1,0,-1
47 0 m 1,6,-1
 151 525 l 1,7,-1
 222 525 l 1,8,-1
 118 0 l 1,9,-1
 47 0 l 1,6,-1
457 0 m 1,10,-1
 291 273 l 1,11,-1
 340 326 l 1,12,-1
 540 0 l 1,13,-1
 457 0 l 1,10,-1
EndSplineSet
Substitution2: "'smcp' Lowercase to Small Capitals lookup 46 subtable" kgreenlandic.sc
Substitution2: "'aalt' Access All Alternates lookup 0 subtable" kgreenlandic.sc
EndChar

StartChar: Eng
Encoding: 330 330 269
Width: 813
GlyphClass: 2
Flags: W
AnchorPoint: "Anchor-3" 494 700 basechar 0
AnchorPoint: "Anchor-0" 315 -195 basechar 0
LayerCount: 2
Fore
SplineSet
62 0 m 1,0,-1
 202 700 l 1,1,-1
 262 700 l 1,2,-1
 615 89 l 1,3,-1
 586 0 l 1,4,-1
 233 611 l 1,5,-1
 256 608 l 1,6,-1
 135 0 l 1,7,-1
 62 0 l 1,0,-1
421 -199 m 0,8,9
 364 -199 364 -199 316.5 -175 c 128,-1,10
 269 -151 269 -151 246 -112 c 1,11,-1
 290 -63 l 1,12,13
 309 -96 309 -96 343.5 -115.5 c 128,-1,14
 378 -135 378 -135 424 -135 c 0,15,16
 485 -135 485 -135 522.5 -101 c 128,-1,17
 560 -67 560 -67 576 14 c 2,18,-1
 713 700 l 1,19,-1
 786 700 l 1,20,-1
 651 24 l 2,21,22
 634 -60 634 -60 603.5 -108.5 c 128,-1,23
 573 -157 573 -157 527.5 -178 c 128,-1,24
 482 -199 482 -199 421 -199 c 0,8,9
EndSplineSet
Substitution2: "'ss01' Style Set 1 lookup 50 subtable" Eng.ss01
Substitution2: "'c2sc' Capitals to Small Capitals lookup 45 subtable" eng.sc
Substitution2: "'locl' Localized Forms in Latin lookup 17 subtable" Eng.loclNSM
AlternateSubs2: "'aalt' Access All Alternates lookup 1 subtable" Eng.loclNSM eng.sc Eng.ss01
EndChar

StartChar: eng
Encoding: 331 331 270
Width: 676
GlyphClass: 2
Flags: W
AnchorPoint: "Anchor-3" 391 526 basechar 0
AnchorPoint: "Anchor-0" 247 -195 basechar 0
LayerCount: 2
Fore
SplineSet
346 -199 m 0,0,1
 312 -199 312 -199 283.5 -190.5 c 128,-1,2
 255 -182 255 -182 235 -166 c 1,3,-1
 268 -111 l 1,4,5
 299 -138 299 -138 347 -138 c 0,6,7
 390 -138 390 -138 415 -114.5 c 128,-1,8
 440 -91 440 -91 451 -38 c 2,9,-1
 519 300 l 2,10,11
 535 378 535 378 502.5 422 c 128,-1,12
 470 466 470 466 388 466 c 0,13,14
 304 466 304 466 248.5 420 c 128,-1,15
 193 374 193 374 174 282 c 2,16,-1
 118 0 l 1,17,-1
 47 0 l 1,18,-1
 151 525 l 1,19,-1
 219 525 l 1,20,-1
 189 374 l 1,21,-1
 174 400 l 1,22,23
 212 468 212 468 272.5 499 c 128,-1,24
 333 530 333 530 408 530 c 0,25,26
 479 530 479 530 524.5 502.5 c 128,-1,27
 570 475 570 475 587.5 423 c 128,-1,28
 605 371 605 371 590 299 c 2,29,-1
 522 -40 l 2,30,31
 491 -199 491 -199 346 -199 c 0,0,1
EndSplineSet
Substitution2: "'smcp' Lowercase to Small Capitals lookup 46 subtable" eng.sc
Substitution2: "'aalt' Access All Alternates lookup 0 subtable" eng.sc
EndChar

StartChar: OE
Encoding: 338 338 277
Width: 1121
GlyphClass: 2
Flags: W
AnchorPoint: "Anchor-3" 690 700 basechar 0
AnchorPoint: "Anchor-0" 550 0 basechar 0
LayerCount: 2
Fore
SplineSet
394 0 m 2,0,1
 289 0 289 0 215 35.5 c 128,-1,2
 141 71 141 71 102.5 135 c 128,-1,3
 64 199 64 199 64 285 c 0,4,5
 64 377 64 377 94.5 453.5 c 128,-1,6
 125 530 125 530 182.5 585 c 128,-1,7
 240 640 240 640 320 670 c 128,-1,8
 400 700 400 700 499 700 c 2,9,-1
 673 700 l 1,10,-1
 661 636 l 1,11,-1
 497 636 l 2,12,13
 386 636 386 636 305.5 591 c 128,-1,14
 225 546 225 546 181 467.5 c 128,-1,15
 137 389 137 389 137 288 c 0,16,17
 137 221 137 221 166.5 170.5 c 128,-1,18
 196 120 196 120 254.5 92 c 128,-1,19
 313 64 313 64 401 64 c 2,20,-1
 545 64 l 1,21,-1
 533 0 l 1,22,-1
 394 0 l 2,0,1
514 0 m 1,23,-1
 654 700 l 1,24,-1
 1134 700 l 1,25,-1
 1120 636 l 1,26,-1
 714 636 l 1,27,-1
 600 64 l 1,28,-1
 1021 64 l 1,29,-1
 1008 0 l 1,30,-1
 514 0 l 1,23,-1
645 324 m 1,31,-1
 657 387 l 1,32,-1
 1027 387 l 1,33,-1
 1015 324 l 1,34,-1
 645 324 l 1,31,-1
EndSplineSet
Substitution2: "'c2sc' Capitals to Small Capitals lookup 45 subtable" oe.sc
Substitution2: "'aalt' Access All Alternates lookup 0 subtable" oe.sc
EndChar

StartChar: oe
Encoding: 339 339 278
Width: 1069
GlyphClass: 2
Flags: W
AnchorPoint: "Anchor-3" 594 525 basechar 0
AnchorPoint: "Anchor-0" 490 0 basechar 0
LayerCount: 2
Fore
SplineSet
276 -5 m 0,0,1
 206 -5 206 -5 153 22.5 c 128,-1,2
 100 50 100 50 71 100 c 128,-1,3
 42 150 42 150 42 218 c 0,4,5
 42 308 42 308 80 378.5 c 128,-1,6
 118 449 118 449 186 489.5 c 128,-1,7
 254 530 254 530 340 530 c 0,8,9
 412 530 412 530 464.5 503 c 128,-1,10
 517 476 517 476 545.5 426 c 128,-1,11
 574 376 574 376 574 308 c 0,12,13
 574 218 574 218 536 147.5 c 128,-1,14
 498 77 498 77 431 36 c 128,-1,15
 364 -5 364 -5 276 -5 c 0,0,1
286 58 m 0,16,17
 352 58 352 58 403.5 89.5 c 128,-1,18
 455 121 455 121 484.5 177 c 128,-1,19
 514 233 514 233 514 304 c 0,20,21
 514 382 514 382 468.5 425 c 128,-1,22
 423 468 423 468 341 468 c 0,23,24
 276 468 276 468 224 436 c 128,-1,25
 172 404 172 404 142.5 348.5 c 128,-1,26
 113 293 113 293 113 221 c 0,27,28
 113 144 113 144 158.5 101 c 128,-1,29
 204 58 204 58 286 58 c 0,16,17
752 -5 m 0,30,31
 678 -5 678 -5 623.5 22.5 c 128,-1,32
 569 50 569 50 540 100 c 128,-1,33
 511 150 511 150 511 219 c 0,34,35
 511 309 511 309 549 379 c 128,-1,36
 587 449 587 449 652 489.5 c 128,-1,37
 717 530 717 530 799 530 c 0,38,39
 869 530 869 530 919.5 503.5 c 128,-1,40
 970 477 970 477 998.5 427 c 128,-1,41
 1027 377 1027 377 1027 307 c 0,42,43
 1027 291 1027 291 1025.5 274.5 c 128,-1,44
 1024 258 1024 258 1020 243 c 1,45,-1
 559 243 l 1,46,-1
 569 296 l 1,47,-1
 987 296 l 1,48,-1
 958 276 l 1,49,50
 968 339 968 339 949.5 382 c 128,-1,51
 931 425 931 425 891 447.5 c 128,-1,52
 851 470 851 470 796 470 c 0,53,54
 732 470 732 470 682 438.5 c 128,-1,55
 632 407 632 407 604 351.5 c 128,-1,56
 576 296 576 296 576 222 c 0,57,58
 576 143 576 143 622 100.5 c 128,-1,59
 668 58 668 58 758 58 c 0,60,61
 811 58 811 58 856 75.5 c 128,-1,62
 901 93 901 93 930 124 c 1,63,-1
 962 73 l 1,64,65
 926 36 926 36 870 15.5 c 128,-1,66
 814 -5 814 -5 752 -5 c 0,30,31
EndSplineSet
Substitution2: "'ss01' Style Set 1 lookup 50 subtable" oe.ss01
Substitution2: "'smcp' Lowercase to Small Capitals lookup 46 subtable" oe.sc
AlternateSubs2: "'aalt' Access All Alternates lookup 1 subtable" oe.sc oe.ss01
EndChar

StartChar: Tbar
Encoding: 358 358 297
Width: 574
GlyphClass: 1
Flags: W
LayerCount: 2
Fore
SplineSet
198 0 m 1,0,-1
 325 636 l 1,1,-1
 78 636 l 1,2,-1
 91 700 l 1,3,-1
 657 700 l 1,4,-1
 644 636 l 1,5,-1
 398 636 l 1,6,-1
 271 0 l 1,7,-1
 198 0 l 1,0,-1
104 327 m 1,8,-1
 115 387 l 1,9,-1
 509 387 l 1,10,-1
 498 327 l 1,11,-1
 104 327 l 1,8,-1
EndSplineSet
Substitution2: "'ss01' Style Set 1 lookup 50 subtable" Tbar.ss01
Substitution2: "'c2sc' Capitals to Small Capitals lookup 45 subtable" tbar.sc
AlternateSubs2: "'aalt' Access All Alternates lookup 1 subtable" tbar.sc Tbar.ss01
EndChar

StartChar: tbar
Encoding: 359 359 298
Width: 418
GlyphClass: 2
Flags: W
AnchorPoint: "Anchor-4" 374 742 basechar 0
AnchorPoint: "Anchor-3" 227 641 basechar 0
AnchorPoint: "Anchor-1" 190 277 basechar 0
AnchorPoint: "Anchor-0" 202 0 basechar 0
LayerCount: 2
Fore
SplineSet
220 -5 m 0,0,1
 174 -5 174 -5 142.5 14.5 c 128,-1,2
 111 34 111 34 98 70 c 128,-1,3
 85 106 85 106 95 156 c 2,4,-1
 192 641 l 1,5,-1
 263 641 l 1,6,-1
 166 159 l 2,7,8
 157 110 157 110 174.5 83 c 128,-1,9
 192 56 192 56 239 56 c 0,10,11
 260 56 260 56 281 62.5 c 128,-1,12
 302 69 302 69 320 83 c 1,13,-1
 336 29 l 1,14,15
 311 10 311 10 280.5 2.5 c 128,-1,16
 250 -5 250 -5 220 -5 c 0,0,1
64 466 m 1,17,-1
 75 525 l 1,18,-1
 399 525 l 1,19,-1
 388 466 l 1,20,-1
 64 466 l 1,17,-1
19 244 m 1,21,-1
 29 296 l 1,22,-1
 323 296 l 1,23,-1
 313 244 l 1,24,-1
 19 244 l 1,21,-1
EndSplineSet
Substitution2: "'ss01' Style Set 1 lookup 50 subtable" tbar.ss01
Substitution2: "'smcp' Lowercase to Small Capitals lookup 46 subtable" tbar.sc
AlternateSubs2: "'aalt' Access All Alternates lookup 1 subtable" tbar.sc tbar.ss01
EndChar

StartChar: Uogonek
Encoding: 370 370 309
Width: 768
GlyphClass: 2
Flags: W
AnchorPoint: "Anchor-4" 740 700 basechar 0
AnchorPoint: "Anchor-3" 471 700 basechar 0
AnchorPoint: "Anchor-0" 287 -220 basechar 0
LayerCount: 2
Fore
SplineSet
686 700 m 1,0,-1
 758 700 l 1,1,-1
 678 296 l 2,2,3
 653 171 653 171 593 98.5 c 128,-1,4
 533 26 533 26 441 4 c 0,5,6
 353 -17 353 -17 309 -54.5 c 128,-1,7
 265 -92 265 -92 265 -130 c 0,8,9
 265 -152 265 -152 279.5 -164 c 128,-1,10
 294 -176 294 -176 318 -176 c 0,11,12
 336 -176 336 -176 353.5 -171 c 128,-1,13
 371 -166 371 -166 386 -157 c 1,14,-1
 397 -196 l 1,15,16
 378 -207 378 -207 356 -213.5 c 128,-1,17
 334 -220 334 -220 307 -220 c 0,18,19
 265 -220 265 -220 238 -198.5 c 128,-1,20
 211 -177 211 -177 211 -138 c 0,21,22
 211 -95 211 -95 242.5 -58 c 128,-1,23
 274 -21 274 -21 339 10 c 1,24,-1
 390 -4 l 1,25,26
 381 -5 381 -5 370.5 -5.5 c 128,-1,27
 360 -6 360 -6 349 -6 c 0,28,29
 256 -6 256 -6 194.5 31 c 128,-1,30
 133 68 133 68 109 136.5 c 128,-1,31
 85 205 85 205 104 299 c 2,32,-1
 184 700 l 1,33,-1
 257 700 l 1,34,-1
 177 301 l 2,35,36
 154 183 154 183 201 121.5 c 128,-1,37
 248 60 248 60 355 60 c 0,38,39
 457 60 457 60 519.5 118.5 c 128,-1,40
 582 177 582 177 606 301 c 2,41,-1
 686 700 l 1,0,-1
EndSplineSet
Substitution2: "'ss01' Style Set 1 lookup 50 subtable" Uogonek.ss01
Substitution2: "'c2sc' Capitals to Small Capitals lookup 45 subtable" uogonek.sc
Substitution2: "'locl' Localized Forms in Latin lookup 15 subtable" Uogonek.loclNAV
AlternateSubs2: "'aalt' Access All Alternates lookup 1 subtable" Uogonek.loclNAV uogonek.sc Uogonek.ss01
EndChar

StartChar: longs
Encoding: 383 383 322
Width: 295
GlyphClass: 2
Flags: W
AnchorPoint: "Anchor-3" 346 725 basechar 0
LayerCount: 2
Fore
SplineSet
69 0 m 1,0,-1
 188 592 l 2,1,2
 203 666 203 666 248.5 706.5 c 128,-1,3
 294 747 294 747 368 747 c 0,4,5
 400 747 400 747 428 738 c 128,-1,6
 456 729 456 729 474 713 c 1,7,-1
 442 661 l 1,8,9
 414 687 414 687 368 687 c 256,10,11
 322 687 322 687 295 662.5 c 128,-1,12
 268 638 268 638 257 584 c 2,13,-1
 140 0 l 1,14,-1
 69 0 l 1,0,-1
69 466 m 1,15,-1
 80 525 l 1,16,-1
 216 525 l 1,17,-1
 204 466 l 1,18,-1
 69 466 l 1,15,-1
EndSplineSet
Substitution2: "'ss01' Style Set 1 lookup 50 subtable" longs.ss01
Substitution2: "'smcp' Lowercase to Small Capitals lookup 46 subtable" longs.sc
AlternateSubs2: "'aalt' Access All Alternates lookup 1 subtable" longs.sc longs.ss01
EndChar

StartChar: uni0180
Encoding: 384 384 323
Width: 685
GlyphClass: 2
Flags: W
AnchorPoint: "Anchor-3" 405 526 basechar 0
AnchorPoint: "Anchor-1" 346 263 basechar 0
AnchorPoint: "Anchor-0" 294 0 basechar 0
LayerCount: 2
Fore
SplineSet
53 0 m 1,0,-1
 201 742 l 1,1,-1
 272 742 l 1,2,-1
 199 373 l 1,3,-1
 167 269 l 1,4,-1
 155 167 l 1,5,-1
 122 0 l 1,6,-1
 53 0 l 1,0,-1
346 -5 m 0,7,8
 278 -5 278 -5 229.5 19.5 c 128,-1,9
 181 44 181 44 155.5 90.5 c 128,-1,10
 130 137 130 137 129 203 c 0,11,12
 129 275 129 275 149 335 c 128,-1,13
 169 395 169 395 206.5 438.5 c 128,-1,14
 244 482 244 482 296.5 506 c 128,-1,15
 349 530 349 530 414 530 c 0,16,17
 482 530 482 530 533.5 503.5 c 128,-1,18
 585 477 585 477 614.5 427 c 128,-1,19
 644 377 644 377 644 308 c 0,20,21
 644 240 644 240 621.5 183 c 128,-1,22
 599 126 599 126 559 84 c 128,-1,23
 519 42 519 42 464.5 18.5 c 128,-1,24
 410 -5 410 -5 346 -5 c 0,7,8
344 58 m 0,25,26
 410 58 410 58 461.5 89.5 c 128,-1,27
 513 121 513 121 542.5 177 c 128,-1,28
 572 233 572 233 572 304 c 0,29,30
 572 382 572 382 526.5 425 c 128,-1,31
 481 468 481 468 399 468 c 0,32,33
 334 468 334 468 282.5 436 c 128,-1,34
 231 404 231 404 201 348.5 c 128,-1,35
 171 293 171 293 171 221 c 0,36,37
 171 144 171 144 216.5 101 c 128,-1,38
 262 58 262 58 344 58 c 0,25,26
77 607 m 1,39,-1
 87 659 l 1,40,-1
 429 659 l 1,41,-1
 418 607 l 1,42,-1
 77 607 l 1,39,-1
EndSplineSet
Substitution2: "'smcp' Lowercase to Small Capitals lookup 46 subtable" uni0180.sc
Substitution2: "'aalt' Access All Alternates lookup 0 subtable" uni0180.sc
EndChar

StartChar: uni0181
Encoding: 385 385 324
Width: 915
GlyphClass: 2
Flags: W
AnchorPoint: "Anchor-3" 625 700 basechar 0
AnchorPoint: "Anchor-0" 485 0 basechar 0
LayerCount: 2
Fore
SplineSet
128 403 m 1,0,1
 94 456 94 456 90.5 508.5 c 128,-1,2
 87 561 87 561 109 604.5 c 128,-1,3
 131 648 131 648 173.5 674 c 128,-1,4
 216 700 216 700 276 700 c 2,5,-1
 370 700 l 1,6,-1
 357 636 l 1,7,-1
 276 636 l 2,8,9
 228 636 228 636 197.5 607 c 128,-1,10
 167 578 167 578 163 534 c 128,-1,11
 159 490 159 490 186 444 c 1,12,-1
 128 403 l 1,0,1
222 0 m 1,13,-1
 362 700 l 1,14,-1
 662 700 l 2,15,16
 763 700 763 700 819.5 662 c 128,-1,17
 876 624 876 624 876 551 c 0,18,19
 876 483 876 483 843.5 437.5 c 128,-1,20
 811 392 811 392 757.5 369 c 128,-1,21
 704 346 704 346 642 346 c 1,22,-1
 664 369 l 1,23,24
 747 369 747 369 797 330.5 c 128,-1,25
 847 292 847 292 847 217 c 0,26,27
 847 147 847 147 810.5 98 c 128,-1,28
 774 49 774 49 707 24.5 c 128,-1,29
 640 0 640 0 547 0 c 2,30,-1
 222 0 l 1,13,-1
308 61 m 1,31,-1
 553 61 l 2,32,33
 659 61 659 61 716.5 101 c 128,-1,34
 774 141 774 141 774 216 c 0,35,36
 774 276 774 276 732 300 c 128,-1,37
 690 324 690 324 611 324 c 2,38,-1
 348 324 l 1,39,-1
 360 385 l 1,40,-1
 596 385 l 2,41,42
 656 385 656 385 702 402 c 128,-1,43
 748 419 748 419 774 453.5 c 128,-1,44
 800 488 800 488 800 538 c 0,45,46
 800 590 800 590 760 614.5 c 128,-1,47
 720 639 720 639 647 639 c 2,48,-1
 423 639 l 1,49,-1
 308 61 l 1,31,-1
EndSplineSet
Substitution2: "'c2sc' Capitals to Small Capitals lookup 45 subtable" uni0253.sc
Substitution2: "'locl' Localized Forms in Latin lookup 19 subtable" uni0181.loclXPE
AlternateSubs2: "'aalt' Access All Alternates lookup 1 subtable" uni0181.loclXPE uni0253.sc
EndChar

StartChar: uni0182
Encoding: 386 386 325
Width: 754
GlyphClass: 2
Flags: W
AnchorPoint: "Anchor-3" 464 700 basechar 0
AnchorPoint: "Anchor-0" 324 0 basechar 0
LayerCount: 2
Fore
SplineSet
62 0 m 1,0,-1
 202 700 l 1,1,-1
 727 700 l 1,2,-1
 714 639 l 1,3,-1
 262 639 l 1,4,-1
 147 61 l 1,5,-1
 394 61 l 2,6,7
 461 61 461 61 510.5 80.5 c 128,-1,8
 560 100 560 100 587.5 137 c 128,-1,9
 615 174 615 174 615 225 c 0,10,11
 615 285 615 285 574.5 310.5 c 128,-1,12
 534 336 534 336 449 336 c 2,13,-1
 195 336 l 1,14,-1
 207 397 l 1,15,-1
 464 397 l 2,16,17
 573 397 573 397 631 356 c 128,-1,18
 689 315 689 315 689 230 c 0,19,20
 689 157 689 157 649.5 105.5 c 128,-1,21
 610 54 610 54 541.5 27 c 128,-1,22
 473 0 473 0 384 0 c 2,23,-1
 62 0 l 1,0,-1
EndSplineSet
Substitution2: "'c2sc' Capitals to Small Capitals lookup 45 subtable" uni0183.sc
Substitution2: "'aalt' Access All Alternates lookup 0 subtable" uni0183.sc
EndChar

StartChar: uni0183
Encoding: 387 387 326
Width: 683
GlyphClass: 1
Flags: W
LayerCount: 2
Fore
SplineSet
48 0 m 1,0,-1
 196 742 l 1,1,-1
 267 742 l 1,2,-1
 193 370 l 1,3,-1
 162 266 l 1,4,-1
 150 167 l 1,5,-1
 116 0 l 1,6,-1
 48 0 l 1,0,-1
334 -5 m 0,7,8
 265 -5 265 -5 215.5 23.5 c 128,-1,9
 166 52 166 52 142.5 104 c 128,-1,10
 119 156 119 156 126 227 c 0,11,12
 131 294 131 294 154 350 c 128,-1,13
 177 406 177 406 215.5 446.5 c 128,-1,14
 254 487 254 487 304.5 508.5 c 128,-1,15
 355 530 355 530 415 530 c 0,16,17
 485 530 485 530 537 500 c 128,-1,18
 589 470 589 470 616 415 c 128,-1,19
 643 360 643 360 636 286 c 0,20,21
 631 222 631 222 606 169 c 128,-1,22
 581 116 581 116 540 77 c 128,-1,23
 499 38 499 38 446 16.5 c 128,-1,24
 393 -5 393 -5 334 -5 c 0,7,8
332 58 m 0,25,26
 393 58 393 58 443.5 86.5 c 128,-1,27
 494 115 494 115 526 166 c 128,-1,28
 558 217 558 217 564 283 c 0,29,30
 571 339 571 339 552.5 380.5 c 128,-1,31
 534 422 534 422 495 445 c 128,-1,32
 456 468 456 468 400 468 c 0,33,34
 340 468 340 468 289.5 439.5 c 128,-1,35
 239 411 239 411 207 360 c 128,-1,36
 175 309 175 309 168 243 c 0,37,38
 162 187 162 187 180.5 145.5 c 128,-1,39
 199 104 199 104 238 81 c 128,-1,40
 277 58 277 58 332 58 c 0,25,26
221 683 m 1,41,-1
 196 742 l 1,42,-1
 607 742 l 1,43,-1
 595 683 l 1,44,-1
 221 683 l 1,41,-1
EndSplineSet
Substitution2: "'smcp' Lowercase to Small Capitals lookup 46 subtable" uni0183.sc
Substitution2: "'aalt' Access All Alternates lookup 0 subtable" uni0183.sc
EndChar

StartChar: uni0186
Encoding: 390 390 327
Width: 719
GlyphClass: 2
Flags: W
AnchorPoint: "Anchor-3" 403 700 basechar 0
AnchorPoint: "Anchor-2" 319 0 basechar 0
AnchorPoint: "Anchor-0" 263 0 basechar 0
LayerCount: 2
Fore
SplineSet
363 706 m 0,0,1
 467 706 467 706 540.5 669.5 c 128,-1,2
 614 633 614 633 652.5 567.5 c 128,-1,3
 691 502 691 502 691 415 c 0,4,5
 691 329 691 329 661 253 c 128,-1,6
 631 177 631 177 575.5 118.5 c 128,-1,7
 520 60 520 60 441.5 27 c 128,-1,8
 363 -6 363 -6 264 -6 c 0,9,10
 180 -6 180 -6 115 20 c 128,-1,11
 50 46 50 46 15 96 c 1,12,-1
 67 142 l 1,13,14
 100 102 100 102 150.5 81 c 128,-1,15
 201 60 201 60 270 60 c 0,16,17
 350 60 350 60 414 87.5 c 128,-1,18
 478 115 478 115 523.5 164 c 128,-1,19
 569 213 569 213 593 276.5 c 128,-1,20
 617 340 617 340 617 412 c 0,21,22
 617 480 617 480 587.5 531 c 128,-1,23
 558 582 558 582 500.5 611 c 128,-1,24
 443 640 443 640 358 640 c 0,25,26
 290 640 290 640 234 619 c 128,-1,27
 178 598 178 598 135 557 c 1,28,-1
 92 606 l 1,29,30
 140 656 140 656 210.5 681 c 128,-1,31
 281 706 281 706 363 706 c 0,0,1
EndSplineSet
Substitution2: "'c2sc' Capitals to Small Capitals lookup 45 subtable" uni0254.sc
Substitution2: "'aalt' Access All Alternates lookup 0 subtable" uni0254.sc
EndChar

StartChar: uni0187
Encoding: 391 391 328
Width: 725
GlyphClass: 2
Flags: W
AnchorPoint: "Anchor-3" 487 701 basechar 0
AnchorPoint: "Anchor-0" 342 0 basechar 0
LayerCount: 2
Fore
SplineSet
401 -6 m 0,0,1
 297 -6 297 -6 224 30.5 c 128,-1,2
 151 67 151 67 112.5 132.5 c 128,-1,3
 74 198 74 198 74 285 c 0,4,5
 74 371 74 371 103.5 447 c 128,-1,6
 133 523 133 523 189 581.5 c 128,-1,7
 245 640 245 640 323.5 673 c 128,-1,8
 402 706 402 706 500 706 c 0,9,10
 585 706 585 706 649.5 679.5 c 128,-1,11
 714 653 714 653 750 604 c 1,12,-1
 697 558 l 1,13,14
 665 599 665 599 614.5 619.5 c 128,-1,15
 564 640 564 640 495 640 c 0,16,17
 415 640 415 640 350.5 612.5 c 128,-1,18
 286 585 286 585 241 536 c 128,-1,19
 196 487 196 487 172 423.5 c 128,-1,20
 148 360 148 360 148 288 c 0,21,22
 148 221 148 221 177 169.5 c 128,-1,23
 206 118 206 118 264 89 c 128,-1,24
 322 60 322 60 407 60 c 0,25,26
 475 60 475 60 531.5 81 c 128,-1,27
 588 102 588 102 629 143 c 1,28,-1
 672 94 l 1,29,30
 626 45 626 45 555 19.5 c 128,-1,31
 484 -6 484 -6 401 -6 c 0,0,1
682 604 m 1,32,-1
 696 679 l 2,33,34
 704 723 704 723 727 753.5 c 128,-1,35
 750 784 750 784 781 800.5 c 128,-1,36
 812 817 812 817 847 818.5 c 128,-1,37
 882 820 882 820 914 806 c 1,38,-1
 895 749 l 1,39,40
 865 762 865 762 837 756 c 128,-1,41
 809 750 809 750 789 727 c 128,-1,42
 769 704 769 704 762 665 c 2,43,-1
 750 604 l 1,44,-1
 682 604 l 1,32,-1
EndSplineSet
Substitution2: "'c2sc' Capitals to Small Capitals lookup 45 subtable" uni0188.sc
Substitution2: "'aalt' Access All Alternates lookup 0 subtable" uni0188.sc
EndChar

StartChar: uni0188
Encoding: 392 392 329
Width: 567
GlyphClass: 2
Flags: W
AnchorPoint: "Anchor-3" 350 526 basechar 0
AnchorPoint: "Anchor-0" 243 0 basechar 0
LayerCount: 2
Fore
SplineSet
285 -5 m 0,0,1
 210 -5 210 -5 155.5 22.5 c 128,-1,2
 101 50 101 50 71.5 100 c 128,-1,3
 42 150 42 150 42 218 c 0,4,5
 42 308 42 308 81 378.5 c 128,-1,6
 120 449 120 449 189.5 489.5 c 128,-1,7
 259 530 259 530 348 530 c 0,8,9
 421 530 421 530 473.5 503.5 c 128,-1,10
 526 477 526 477 555 425 c 1,11,-1
 495 390 l 1,12,13
 473 430 473 430 434.5 449 c 128,-1,14
 396 468 396 468 342 468 c 0,15,16
 276 468 276 468 224 436 c 128,-1,17
 172 404 172 404 142.5 348.5 c 128,-1,18
 113 293 113 293 113 221 c 0,19,20
 113 144 113 144 158.5 101 c 128,-1,21
 204 58 204 58 288 58 c 0,22,23
 339 58 339 58 382.5 77.5 c 128,-1,24
 426 97 426 97 454 134 c 1,25,-1
 505 95 l 1,26,27
 471 48 471 48 412 21.5 c 128,-1,28
 353 -5 353 -5 285 -5 c 0,0,1
487 425 m 1,29,-1
 522 601 l 2,30,31
 531 645 531 645 554.5 676.5 c 128,-1,32
 578 708 578 708 609 726 c 128,-1,33
 640 744 640 744 675.5 747 c 128,-1,34
 711 750 711 750 744 735 c 1,35,-1
 725 678 l 1,36,37
 694 691 694 691 666 683 c 128,-1,38
 638 675 638 675 617 650.5 c 128,-1,39
 596 626 596 626 588 587 c 2,40,-1
 555 425 l 1,41,-1
 487 425 l 1,29,-1
EndSplineSet
Substitution2: "'smcp' Lowercase to Small Capitals lookup 46 subtable" uni0188.sc
Substitution2: "'aalt' Access All Alternates lookup 0 subtable" uni0188.sc
EndChar

StartChar: uni018A
Encoding: 394 394 331
Width: 987
GlyphClass: 2
Flags: W
AnchorPoint: "Anchor-3" 630 699 basechar 0
AnchorPoint: "Anchor-1" 380 356 basechar 0
AnchorPoint: "Anchor-0" 495 0 basechar 0
LayerCount: 2
Fore
SplineSet
128 403 m 1,0,1
 94 456 94 456 90.5 508.5 c 128,-1,2
 87 561 87 561 109 604.5 c 128,-1,3
 131 648 131 648 173.5 674 c 128,-1,4
 216 700 216 700 276 700 c 2,5,-1
 370 700 l 1,6,-1
 357 636 l 1,7,-1
 276 636 l 2,8,9
 228 636 228 636 197.5 607 c 128,-1,10
 167 578 167 578 163 534 c 128,-1,11
 159 490 159 490 186 444 c 1,12,-1
 128 403 l 1,0,1
222 0 m 1,13,-1
 362 700 l 1,14,-1
 629 700 l 2,15,16
 734 700 734 700 808 664.5 c 128,-1,17
 882 629 882 629 920.5 565.5 c 128,-1,18
 959 502 959 502 959 415 c 0,19,20
 959 323 959 323 928 246.5 c 128,-1,21
 897 170 897 170 840 115 c 128,-1,22
 783 60 783 60 702.5 30 c 128,-1,23
 622 0 622 0 523 0 c 2,24,-1
 222 0 l 1,13,-1
309 64 m 1,25,-1
 526 64 l 2,26,27
 637 64 637 64 717.5 109 c 128,-1,28
 798 154 798 154 841.5 232.5 c 128,-1,29
 885 311 885 311 885 412 c 0,30,31
 885 479 885 479 855.5 529.5 c 128,-1,32
 826 580 826 580 767.5 608 c 128,-1,33
 709 636 709 636 621 636 c 2,34,-1
 423 636 l 1,35,-1
 309 64 l 1,25,-1
EndSplineSet
Substitution2: "'c2sc' Capitals to Small Capitals lookup 45 subtable" uni0257.sc
Substitution2: "'aalt' Access All Alternates lookup 0 subtable" uni0257.sc
EndChar

StartChar: uni018B
Encoding: 395 395 332
Width: 746
GlyphClass: 1
Flags: W
LayerCount: 2
Fore
SplineSet
276 0 m 2,0,1
 191 0 191 0 133.5 28 c 128,-1,2
 76 56 76 56 51.5 107 c 128,-1,3
 27 158 27 158 39 227 c 0,4,5
 55 317 55 317 122 361.5 c 128,-1,6
 189 406 189 406 311 406 c 2,7,-1
 588 406 l 1,8,-1
 634 636 l 1,9,-1
 197 636 l 1,10,-1
 210 700 l 1,11,-1
 720 700 l 1,12,-1
 580 0 l 1,13,-1
 276 0 l 2,0,1
286 61 m 2,14,-1
 519 61 l 1,15,-1
 576 345 l 1,16,-1
 320 345 l 2,17,18
 224 345 224 345 174 314.5 c 128,-1,19
 124 284 124 284 113 220 c 0,20,21
 100 146 100 146 145.5 103.5 c 128,-1,22
 191 61 191 61 286 61 c 2,14,-1
EndSplineSet
Substitution2: "'c2sc' Capitals to Small Capitals lookup 45 subtable" uni018C.sc
Substitution2: "'aalt' Access All Alternates lookup 0 subtable" uni018C.sc
EndChar

StartChar: uni018C
Encoding: 396 396 333
Width: 681
GlyphClass: 2
Flags: W
AnchorPoint: "Anchor-4" 768 742 basechar 0
AnchorPoint: "Anchor-3" 389 526 basechar 0
AnchorPoint: "Anchor-0" 288 0 basechar 0
LayerCount: 2
Fore
SplineSet
253 683 m 1,0,-1
 265 742 l 1,1,-1
 675 742 l 1,2,-1
 626 683 l 1,3,-1
 253 683 l 1,0,-1
271 -5 m 0,4,5
 204 -5 204 -5 152 22 c 128,-1,6
 100 49 100 49 71 99 c 128,-1,7
 42 149 42 149 42 218 c 0,8,9
 42 285 42 285 64 342 c 128,-1,10
 86 399 86 399 126 441.5 c 128,-1,11
 166 484 166 484 220.5 507 c 128,-1,12
 275 530 275 530 339 530 c 0,13,14
 408 530 408 530 456 505.5 c 128,-1,15
 504 481 504 481 530 434.5 c 128,-1,16
 556 388 556 388 556 322 c 0,17,18
 556 251 556 251 536.5 191 c 128,-1,19
 517 131 517 131 479 87 c 128,-1,20
 441 43 441 43 388.5 19 c 128,-1,21
 336 -5 336 -5 271 -5 c 0,4,5
286 58 m 0,22,23
 352 58 352 58 403.5 89.5 c 128,-1,24
 455 121 455 121 484.5 177 c 128,-1,25
 514 233 514 233 514 304 c 0,26,27
 514 382 514 382 468.5 425 c 128,-1,28
 423 468 423 468 341 468 c 0,29,30
 276 468 276 468 224 436 c 128,-1,31
 172 404 172 404 142.5 348.5 c 128,-1,32
 113 293 113 293 113 221 c 0,33,34
 113 144 113 144 158.5 101 c 128,-1,35
 204 58 204 58 286 58 c 0,22,23
459 0 m 1,36,-1
 489 151 l 1,37,-1
 519 257 l 1,38,-1
 529 367 l 1,39,-1
 604 742 l 1,40,-1
 675 742 l 1,41,-1
 527 0 l 1,42,-1
 459 0 l 1,36,-1
EndSplineSet
Substitution2: "'ss01' Style Set 1 lookup 50 subtable" uni018C.ss01
Substitution2: "'smcp' Lowercase to Small Capitals lookup 46 subtable" uni018C.sc
AlternateSubs2: "'aalt' Access All Alternates lookup 1 subtable" uni018C.sc uni018C.ss01
EndChar

StartChar: uni018E
Encoding: 398 398 334
Width: 669
GlyphClass: 2
Flags: W
AnchorPoint: "Anchor-3" 390 700 basechar 0
AnchorPoint: "Anchor-0" 263 0 basechar 0
LayerCount: 2
Fore
SplineSet
501 324 m 1,0,-1
 131 324 l 1,1,-1
 144 387 l 1,2,-1
 514 387 l 1,3,-1
 501 324 l 1,0,-1
556 636 m 1,4,-1
 143 636 l 1,5,-1
 156 700 l 1,6,-1
 643 700 l 1,7,-1
 503 0 l 1,8,-1
 15 0 l 1,9,-1
 28 64 l 1,10,-1
 443 64 l 1,11,-1
 556 636 l 1,4,-1
EndSplineSet
Substitution2: "'ss01' Style Set 1 lookup 50 subtable" uni018E.ss01
Substitution2: "'c2sc' Capitals to Small Capitals lookup 45 subtable" uni0258.sc
AlternateSubs2: "'aalt' Access All Alternates lookup 1 subtable" uni0258.sc uni018E.ss01
EndChar

StartChar: uni018F
Encoding: 399 399 335
Width: 817
GlyphClass: 2
Flags: W
AnchorPoint: "Anchor-3" 497 700 basechar 0
AnchorPoint: "Anchor-2" 405 0 basechar 0
AnchorPoint: "Anchor-0" 357 0 basechar 0
LayerCount: 2
Fore
SplineSet
377 -6 m 0,0,1
 279 -6 279 -6 208 30.5 c 128,-1,2
 137 67 137 67 99 132 c 128,-1,3
 61 197 61 197 61 282 c 0,4,5
 61 302 61 302 64 323.5 c 128,-1,6
 67 345 67 345 73 375 c 1,7,-1
 724 375 l 1,8,-1
 712 312 l 1,9,-1
 111 312 l 1,10,-1
 139 345 l 1,11,12
 137 328 137 328 135 315.5 c 128,-1,13
 133 303 133 303 133 286 c 0,14,15
 133 216 133 216 162.5 164.5 c 128,-1,16
 192 113 192 113 248.5 85.5 c 128,-1,17
 305 58 305 58 384 58 c 0,18,19
 459 58 459 58 520 86 c 128,-1,20
 581 114 581 114 624 163 c 128,-1,21
 667 212 667 212 690.5 276 c 128,-1,22
 714 340 714 340 714 412 c 0,23,24
 714 480 714 480 686 531 c 128,-1,25
 658 582 658 582 602 611 c 128,-1,26
 546 640 546 640 464 640 c 0,27,28
 395 640 395 640 335 619 c 128,-1,29
 275 598 275 598 233 560 c 1,30,-1
 196 614 l 1,31,32
 244 657 244 657 315.5 681.5 c 128,-1,33
 387 706 387 706 470 706 c 0,34,35
 572 706 572 706 642.5 669.5 c 128,-1,36
 713 633 713 633 750.5 567.5 c 128,-1,37
 788 502 788 502 788 415 c 0,38,39
 788 329 788 329 759 253 c 128,-1,40
 730 177 730 177 676 118.5 c 128,-1,41
 622 60 622 60 546.5 27 c 128,-1,42
 471 -6 471 -6 377 -6 c 0,0,1
EndSplineSet
Substitution2: "'ss01' Style Set 1 lookup 50 subtable" uni018F.ss01
Substitution2: "'c2sc' Capitals to Small Capitals lookup 45 subtable" uni0259.sc
AlternateSubs2: "'aalt' Access All Alternates lookup 1 subtable" uni0259.sc uni018F.ss01
EndChar

StartChar: uni0190
Encoding: 400 400 336
Width: 617
GlyphClass: 2
Flags: W
AnchorPoint: "Anchor-3" 437 700 basechar 0
AnchorPoint: "Anchor-2" 365 0 basechar 0
AnchorPoint: "Anchor-0" 302 0 basechar 0
LayerCount: 2
Fore
SplineSet
302 -7 m 0,0,1
 228 -7 228 -7 169 13 c 128,-1,2
 110 33 110 33 76 73.5 c 128,-1,3
 42 114 42 114 42 175 c 256,4,5
 42 236 42 236 74 281.5 c 128,-1,6
 106 327 106 327 162 352.5 c 128,-1,7
 218 378 218 378 292 378 c 1,8,-1
 292 353 l 1,9,10
 223 353 223 353 180.5 391.5 c 128,-1,11
 138 430 138 430 138 494 c 0,12,13
 138 546 138 546 162 585 c 128,-1,14
 186 624 186 624 227.5 651 c 128,-1,15
 269 678 269 678 322.5 692 c 128,-1,16
 376 706 376 706 435 706 c 0,17,18
 500 706 500 706 558 689.5 c 128,-1,19
 616 673 616 673 656 642 c 1,20,-1
 629 583 l 1,21,22
 588 612 588 612 535.5 627 c 128,-1,23
 483 642 483 642 427 642 c 0,24,25
 367 642 367 642 318 624.5 c 128,-1,26
 269 607 269 607 240 574.5 c 128,-1,27
 211 542 211 542 211 495 c 0,28,29
 211 446 211 446 246.5 419.5 c 128,-1,30
 282 393 282 393 345 393 c 2,31,-1
 504 393 l 1,32,-1
 491 333 l 1,33,-1
 325 333 l 2,34,35
 229 333 229 333 172.5 293.5 c 128,-1,36
 116 254 116 254 116 183 c 0,37,38
 116 141 116 141 139.5 113 c 128,-1,39
 163 85 163 85 206 71 c 128,-1,40
 249 57 249 57 304 57 c 0,41,42
 354 57 354 57 402.5 67 c 128,-1,43
 451 77 451 77 492.5 95 c 128,-1,44
 534 113 534 113 562 137 c 1,45,-1
 588 80 l 1,46,47
 537 39 537 39 460 16 c 128,-1,48
 383 -7 383 -7 302 -7 c 0,0,1
EndSplineSet
Substitution2: "'c2sc' Capitals to Small Capitals lookup 45 subtable" uni025B.sc
Substitution2: "'aalt' Access All Alternates lookup 0 subtable" uni025B.sc
EndChar

StartChar: uni0191
Encoding: 401 401 337
Width: 629
GlyphClass: 1
Flags: W
LayerCount: 2
Fore
SplineSet
-120 -180 m 1,0,-1
 -95 -123 l 1,1,2
 -59 -139 -59 -139 -27.5 -135 c 128,-1,3
 4 -131 4 -131 26.5 -109.5 c 128,-1,4
 49 -88 49 -88 57 -50 c 2,5,-1
 207 700 l 1,6,-1
 687 700 l 1,7,-1
 674 636 l 1,8,-1
 267 636 l 1,9,-1
 128 -63 l 2,10,11
 120 -106 120 -106 94.5 -136.5 c 128,-1,12
 69 -167 69 -167 33.5 -183.5 c 128,-1,13
 -2 -200 -2 -200 -42 -199.5 c 128,-1,14
 -82 -199 -82 -199 -120 -180 c 1,0,-1
192 297 m 1,15,-1
 205 361 l 1,16,-1
 576 361 l 1,17,-1
 563 297 l 1,18,-1
 192 297 l 1,15,-1
EndSplineSet
Substitution2: "'ss01' Style Set 1 lookup 50 subtable" uni0191.ss01
Substitution2: "'c2sc' Capitals to Small Capitals lookup 45 subtable" florin.sc
AlternateSubs2: "'aalt' Access All Alternates lookup 1 subtable" florin.sc uni0191.ss01
EndChar

StartChar: uni0193
Encoding: 403 403 339
Width: 766
GlyphClass: 2
Flags: W
AnchorPoint: "Anchor-3" 524 700 basechar 0
AnchorPoint: "Anchor-0" 380 0 basechar 0
LayerCount: 2
Fore
SplineSet
391 -6 m 0,0,1
 288 -6 288 -6 215 30.5 c 128,-1,2
 142 67 142 67 103 132.5 c 128,-1,3
 64 198 64 198 64 285 c 0,4,5
 64 371 64 371 93.5 447 c 128,-1,6
 123 523 123 523 178.5 581.5 c 128,-1,7
 234 640 234 640 313 673 c 128,-1,8
 392 706 392 706 491 706 c 0,9,10
 579 706 579 706 645.5 679.5 c 128,-1,11
 712 653 712 653 751 604 c 1,12,-1
 699 559 l 1,13,14
 663 601 663 601 610.5 620.5 c 128,-1,15
 558 640 558 640 488 640 c 0,16,17
 407 640 407 640 342.5 612.5 c 128,-1,18
 278 585 278 585 232.5 537 c 128,-1,19
 187 489 187 489 162 425 c 128,-1,20
 137 361 137 361 137 288 c 0,21,22
 137 221 137 221 166.5 169.5 c 128,-1,23
 196 118 196 118 254.5 89 c 128,-1,24
 313 60 313 60 399 60 c 0,25,26
 462 60 462 60 514.5 81 c 128,-1,27
 567 102 567 102 612 141 c 1,28,-1
 642 81 l 1,29,30
 594 41 594 41 528.5 17.5 c 128,-1,31
 463 -6 463 -6 391 -6 c 0,0,1
642 81 m 1,32,-1
 574 93 l 1,33,-1
 625 350 l 1,34,-1
 696 350 l 1,35,-1
 642 81 l 1,32,-1
683 604 m 1,36,-1
 697 678 l 2,37,38
 706 722 706 722 728.5 753 c 128,-1,39
 751 784 751 784 782.5 800.5 c 128,-1,40
 814 817 814 817 848.5 818.5 c 128,-1,41
 883 820 883 820 915 805 c 1,42,-1
 897 749 l 1,43,44
 866 762 866 762 838 756 c 128,-1,45
 810 750 810 750 790.5 726.5 c 128,-1,46
 771 703 771 703 763 665 c 2,47,-1
 751 604 l 1,48,-1
 683 604 l 1,36,-1
EndSplineSet
Substitution2: "'ss01' Style Set 1 lookup 50 subtable" uni0193.ss01
Substitution2: "'c2sc' Capitals to Small Capitals lookup 45 subtable" uni0260.sc
AlternateSubs2: "'aalt' Access All Alternates lookup 1 subtable" uni0260.sc uni0193.ss01
EndChar

StartChar: uni0194
Encoding: 404 404 340
Width: 635
GlyphClass: 2
Flags: W
AnchorPoint: "Anchor-3" 405 700 basechar 0
AnchorPoint: "Anchor-1" 312 246 basechar 0
AnchorPoint: "Anchor-0" 265 0 basechar 0
LayerCount: 2
Fore
SplineSet
234 -201 m 0,0,1
 199 -201 199 -201 173 -184.5 c 128,-1,2
 147 -168 147 -168 134.5 -140.5 c 128,-1,3
 122 -113 122 -113 128 -81 c 0,4,5
 134 -52 134 -52 152.5 -19.5 c 128,-1,6
 171 13 171 13 195 46 c 128,-1,7
 219 79 219 79 242 108 c 128,-1,8
 265 137 265 137 280 157 c 2,9,-1
 650 700 l 1,10,-1
 729 700 l 1,11,-1
 327 111 l 2,12,13
 312 90 312 90 290.5 64.5 c 128,-1,14
 269 39 269 39 246.5 11.5 c 128,-1,15
 224 -16 224 -16 207.5 -41 c 128,-1,16
 191 -66 191 -66 188 -86 c 0,17,18
 183 -111 183 -111 198 -127.5 c 128,-1,19
 213 -144 213 -144 238 -144 c 0,20,21
 262 -144 262 -144 280 -128.5 c 128,-1,22
 298 -113 298 -113 303 -90 c 0,23,24
 306 -73 306 -73 302 -50.5 c 128,-1,25
 298 -28 298 -28 290 -2 c 128,-1,26
 282 24 282 24 272.5 53.5 c 128,-1,27
 263 83 263 83 254 112 c 2,28,-1
 84 700 l 1,29,-1
 160 700 l 1,30,-1
 313 157 l 2,31,32
 318 137 318 137 328.5 107 c 128,-1,33
 339 77 339 77 349 42 c 128,-1,34
 359 7 359 7 363.5 -28 c 128,-1,35
 368 -63 368 -63 363 -93 c 0,36,37
 354 -140 354 -140 318 -170.5 c 128,-1,38
 282 -201 282 -201 234 -201 c 0,0,1
EndSplineSet
Substitution2: "'c2sc' Capitals to Small Capitals lookup 45 subtable" uni0263.sc
Substitution2: "'aalt' Access All Alternates lookup 0 subtable" uni0263.sc
EndChar

StartChar: uni0196
Encoding: 406 406 341
Width: 371
GlyphClass: 2
Flags: W
AnchorPoint: "Anchor-3" 233 700 basechar 0
AnchorPoint: "Anchor-2" 259 0 basechar 0
AnchorPoint: "Anchor-0" 140 0 basechar 0
LayerCount: 2
Fore
SplineSet
222 -6 m 0,0,1
 177 -6 177 -6 143 13 c 128,-1,2
 109 32 109 32 92.5 67 c 128,-1,3
 76 102 76 102 85 148 c 2,4,-1
 196 700 l 1,5,-1
 269 700 l 1,6,-1
 160 152 l 2,7,8
 151 109 151 109 171.5 84 c 128,-1,9
 192 59 192 59 233 59 c 0,10,11
 253 59 253 59 274.5 66 c 128,-1,12
 296 73 296 73 317 85 c 1,13,-1
 332 30 l 1,14,15
 305 12 305 12 277 3 c 128,-1,16
 249 -6 249 -6 222 -6 c 0,0,1
EndSplineSet
Substitution2: "'c2sc' Capitals to Small Capitals lookup 45 subtable" uni0269.sc
Substitution2: "'aalt' Access All Alternates lookup 0 subtable" uni0269.sc
EndChar

StartChar: uni0197
Encoding: 407 407 342
Width: 358
GlyphClass: 2
Flags: W
AnchorPoint: "Anchor-3" 267 700 basechar 0
AnchorPoint: "Anchor-2" 163 0 basechar 0
AnchorPoint: "Anchor-0" 127 0 basechar 0
LayerCount: 2
Fore
SplineSet
90 0 m 1,0,-1
 230 700 l 1,1,-1
 303 700 l 1,2,-1
 163 0 l 1,3,-1
 90 0 l 1,0,-1
47 327 m 1,4,-1
 58 387 l 1,5,-1
 349 387 l 1,6,-1
 338 327 l 1,7,-1
 47 327 l 1,4,-1
EndSplineSet
Substitution2: "'ss01' Style Set 1 lookup 50 subtable" uni0197.ss01
Substitution2: "'c2sc' Capitals to Small Capitals lookup 45 subtable" uni0268.sc
AlternateSubs2: "'aalt' Access All Alternates lookup 1 subtable" uni0268.sc uni0197.ss01
EndChar

StartChar: uni0198
Encoding: 408 408 343
Width: 700
GlyphClass: 2
Flags: W
AnchorPoint: "Anchor-3" 461 700 basechar 0
AnchorPoint: "Anchor-0" 321 0 basechar 0
LayerCount: 2
Fore
SplineSet
165 195 m 1,0,-1
 174 286 l 1,1,-1
 608 680 l 2,2,3
 653 721 653 721 690.5 735.5 c 128,-1,4
 728 750 728 750 757.5 744 c 128,-1,5
 787 738 787 738 808 717 c 1,6,-1
 771 670 l 1,7,8
 752 686 752 686 724 680.5 c 128,-1,9
 696 675 696 675 655 638 c 2,10,-1
 165 195 l 1,0,-1
62 0 m 1,11,-1
 202 700 l 1,12,-1
 274 700 l 1,13,-1
 134 0 l 1,14,-1
 62 0 l 1,11,-1
570 0 m 1,15,-1
 327 356 l 1,16,-1
 376 406 l 1,17,-1
 653 0 l 1,18,-1
 570 0 l 1,15,-1
EndSplineSet
Substitution2: "'c2sc' Capitals to Small Capitals lookup 45 subtable" uni0199.sc
Substitution2: "'aalt' Access All Alternates lookup 0 subtable" uni0199.sc
EndChar

StartChar: uni0199
Encoding: 409 409 344
Width: 596
GlyphClass: 2
Flags: W
AnchorPoint: "Anchor-4" 293 526 basechar 0
AnchorPoint: "Anchor-3" 227 742 basechar 0
AnchorPoint: "Anchor-0" 255 0 basechar 0
LayerCount: 2
Fore
SplineSet
47 0 m 1,0,-1
 164 590 l 2,1,2
 175 642 175 642 199.5 676.5 c 128,-1,3
 224 711 224 711 262 729 c 128,-1,4
 300 747 300 747 350 747 c 0,5,6
 391 747 391 747 426.5 734.5 c 128,-1,7
 462 722 462 722 489 697 c 1,8,-1
 455 644 l 1,9,10
 434 665 434 665 406.5 675.5 c 128,-1,11
 379 686 379 686 346 686 c 0,12,13
 302 686 302 686 273 661 c 128,-1,14
 244 636 244 636 235 588 c 2,15,-1
 118 0 l 1,16,-1
 47 0 l 1,0,-1
457 0 m 1,17,-1
 291 273 l 1,18,-1
 340 326 l 1,19,-1
 540 0 l 1,20,-1
 457 0 l 1,17,-1
132 140 m 1,21,-1
 146 227 l 1,22,-1
 528 525 l 1,23,-1
 629 525 l 1,24,-1
 342 302 l 1,25,-1
 303 272 l 1,26,-1
 132 140 l 1,21,-1
EndSplineSet
Substitution2: "'smcp' Lowercase to Small Capitals lookup 46 subtable" uni0199.sc
Substitution2: "'aalt' Access All Alternates lookup 0 subtable" uni0199.sc
EndChar

StartChar: uni019A
Encoding: 410 410 345
Width: 313
GlyphClass: 1
Flags: W
LayerCount: 2
Fore
SplineSet
68 0 m 1,0,-1
 216 742 l 1,1,-1
 287 742 l 1,2,-1
 139 0 l 1,3,-1
 68 0 l 1,0,-1
35 320 m 1,4,-1
 45 372 l 1,5,-1
 310 372 l 1,6,-1
 300 320 l 1,7,-1
 35 320 l 1,4,-1
EndSplineSet
Substitution2: "'ss01' Style Set 1 lookup 50 subtable" uni019A.ss01
Substitution2: "'smcp' Lowercase to Small Capitals lookup 46 subtable" uni019A.sc
AlternateSubs2: "'aalt' Access All Alternates lookup 1 subtable" uni019A.sc uni019A.ss01
EndChar

StartChar: uni019B
Encoding: 411 411 346
Width: 549
GlyphClass: 2
Flags: W
AnchorPoint: "Anchor-3" 366 742 basechar 0
AnchorPoint: "Anchor-0" 218 0 basechar 0
LayerCount: 2
Fore
SplineSet
418 0 m 1,0,-1
 300 488 l 1,1,-1
 294 499 l 1,2,-1
 270 598 l 2,3,4
 259 648 259 648 237 667 c 128,-1,5
 215 686 215 686 180 686 c 0,6,7
 152 686 152 686 126 676 c 128,-1,8
 100 666 100 666 76 645 c 1,9,-1
 54 698 l 1,10,11
 83 721 83 721 118.5 733 c 128,-1,12
 154 745 154 745 191 745 c 0,13,14
 229 745 229 745 257.5 732.5 c 128,-1,15
 286 720 286 720 306 690.5 c 128,-1,16
 326 661 326 661 339 610 c 2,17,-1
 489 0 l 1,18,-1
 418 0 l 1,0,-1
-51 0 m 1,19,-1
 299 540 l 1,20,-1
 332 482 l 1,21,-1
 22 0 l 1,22,-1
 -51 0 l 1,19,-1
109 533 m 1,23,-1
 100 581 l 1,24,-1
 486 713 l 1,25,-1
 494 665 l 1,26,-1
 109 533 l 1,23,-1
EndSplineSet
Substitution2: "'ss01' Style Set 1 lookup 50 subtable" uni019B.ss01
Substitution2: "'smcp' Lowercase to Small Capitals lookup 46 subtable" uni019B.sc
AlternateSubs2: "'aalt' Access All Alternates lookup 1 subtable" uni019B.sc uni019B.ss01
EndChar

StartChar: uni019C
Encoding: 412 412 347
Width: 1194
GlyphClass: 2
Flags: W
AnchorPoint: "Anchor-3" 668 700 basechar 0
AnchorPoint: "Anchor-0" 528 0 basechar 0
LayerCount: 2
Fore
SplineSet
1167 700 m 1,0,-1
 1022 0 l 1,1,-1
 952 0 l 1,2,-1
 982 145 l 1,3,-1
 996 134 l 1,4,5
 957 66 957 66 893 30 c 128,-1,6
 829 -6 829 -6 746 -6 c 0,7,8
 654 -6 654 -6 599.5 36 c 128,-1,9
 545 78 545 78 541 154 c 1,10,-1
 563 153 l 1,11,12
 521 73 521 73 454 33.5 c 128,-1,13
 387 -6 387 -6 300 -6 c 0,14,15
 222 -6 222 -6 170.5 24 c 128,-1,16
 119 54 119 54 99 114.5 c 128,-1,17
 79 175 79 175 97 263 c 2,18,-1
 187 700 l 1,19,-1
 260 700 l 1,20,-1
 170 265 l 2,21,22
 148 161 148 161 189 110.5 c 128,-1,23
 230 60 230 60 318 60 c 0,24,25
 404 60 404 60 467.5 113 c 128,-1,26
 531 166 531 166 554 281 c 2,27,-1
 640 700 l 1,28,-1
 714 700 l 1,29,-1
 624 265 l 2,30,31
 602 161 602 161 641.5 110.5 c 128,-1,32
 681 60 681 60 768 60 c 0,33,34
 824 60 824 60 872.5 81.5 c 128,-1,35
 921 103 921 103 955.5 150 c 128,-1,36
 990 197 990 197 1005 270 c 2,37,-1
 1094 700 l 1,38,-1
 1167 700 l 1,0,-1
EndSplineSet
Substitution2: "'c2sc' Capitals to Small Capitals lookup 45 subtable" uni026F.sc
Substitution2: "'aalt' Access All Alternates lookup 0 subtable" uni026F.sc
EndChar

StartChar: uni019D
Encoding: 413 413 348
Width: 792
GlyphClass: 2
Flags: W
AnchorPoint: "Anchor-3" 494 700 basechar 0
AnchorPoint: "Anchor-0" 352 0 basechar 0
LayerCount: 2
Fore
SplineSet
-120 -180 m 1,0,-1
 -95 -123 l 1,1,2
 -59 -139 -59 -139 -27.5 -135 c 128,-1,3
 4 -131 4 -131 26.5 -109.5 c 128,-1,4
 49 -88 49 -88 57 -50 c 2,5,-1
 207 700 l 1,6,-1
 278 700 l 1,7,-1
 244 527 l 1,8,-1
 235 557 l 1,9,10
 277 632 277 632 345.5 669 c 128,-1,11
 414 706 414 706 502 706 c 0,12,13
 585 706 585 706 641.5 671 c 128,-1,14
 698 636 698 636 720.5 568.5 c 128,-1,15
 743 501 743 501 724 403 c 2,16,-1
 643 0 l 1,17,-1
 570 0 l 1,18,-1
 651 404 l 2,19,20
 675 523 675 523 630.5 581.5 c 128,-1,21
 586 640 586 640 483 640 c 0,22,23
 387 640 387 640 316.5 585 c 128,-1,24
 246 530 246 530 223 413 c 2,25,-1
 128 -63 l 2,26,27
 120 -106 120 -106 94.5 -136.5 c 128,-1,28
 69 -167 69 -167 33.5 -183.5 c 128,-1,29
 -2 -200 -2 -200 -42 -199.5 c 128,-1,30
 -82 -199 -82 -199 -120 -180 c 1,0,-1
EndSplineSet
Substitution2: "'c2sc' Capitals to Small Capitals lookup 45 subtable" uni0272.sc
Substitution2: "'aalt' Access All Alternates lookup 0 subtable" uni0272.sc
EndChar

StartChar: uni019E
Encoding: 414 414 349
Width: 676
GlyphClass: 2
Flags: W
AnchorPoint: "Anchor-3" 393 526 basechar 0
AnchorPoint: "Anchor-0" 288 0 basechar 0
LayerCount: 2
Fore
SplineSet
408 530 m 0,0,1
 479 530 479 530 524.5 502.5 c 128,-1,2
 570 475 570 475 587.5 423 c 128,-1,3
 605 371 605 371 590 299 c 2,4,-1
 491 -194 l 1,5,-1
 420 -194 l 1,6,-1
 519 300 l 2,7,8
 535 378 535 378 502.5 422 c 128,-1,9
 470 466 470 466 388 466 c 0,10,11
 304 466 304 466 248.5 420 c 128,-1,12
 193 374 193 374 174 282 c 2,13,-1
 118 0 l 1,14,-1
 47 0 l 1,15,-1
 151 525 l 1,16,-1
 219 525 l 1,17,-1
 189 374 l 1,18,-1
 174 400 l 1,19,20
 212 468 212 468 272.5 499 c 128,-1,21
 333 530 333 530 408 530 c 0,0,1
EndSplineSet
Substitution2: "'smcp' Lowercase to Small Capitals lookup 46 subtable" uni019E.sc
Substitution2: "'aalt' Access All Alternates lookup 0 subtable" uni019E.sc
EndChar

StartChar: Ohorn
Encoding: 416 416 351
Width: 839
GlyphClass: 2
Flags: W
AnchorPoint: "Anchor-3" 507 700 basechar 0
AnchorPoint: "Anchor-0" 367 0 basechar 0
LayerCount: 2
Fore
SplineSet
388 -6 m 0,0,1
 285 -6 285 -6 212 30.5 c 128,-1,2
 139 67 139 67 101.5 132.5 c 128,-1,3
 64 198 64 198 64 285 c 0,4,5
 64 371 64 371 93 447 c 128,-1,6
 122 523 122 523 177.5 581.5 c 128,-1,7
 233 640 233 640 311 673 c 128,-1,8
 389 706 389 706 486 706 c 0,9,10
 535 706 535 706 571.5 702.5 c 128,-1,11
 608 699 608 699 641.5 694.5 c 128,-1,12
 675 690 675 690 714 690 c 0,13,14
 763 690 763 690 789.5 710.5 c 128,-1,15
 816 731 816 731 816 767 c 0,16,17
 816 786 816 786 810.5 802 c 128,-1,18
 805 818 805 818 796 831 c 1,19,-1
 843 850 l 1,20,21
 855 833 855 833 862 811 c 128,-1,22
 869 789 869 789 869 765 c 0,23,24
 869 727 869 727 852 698 c 128,-1,25
 835 669 835 669 803 654 c 128,-1,26
 771 639 771 639 727 639 c 0,27,28
 709 639 709 639 693 640.5 c 128,-1,29
 677 642 677 642 662 643 c 1,30,-1
 686 651 l 1,31,32
 747 615 747 615 778.5 554.5 c 128,-1,33
 810 494 810 494 810 415 c 0,34,35
 810 329 810 329 781 253 c 128,-1,36
 752 177 752 177 696.5 118.5 c 128,-1,37
 641 60 641 60 563 27 c 128,-1,38
 485 -6 485 -6 388 -6 c 0,0,1
395 60 m 0,39,40
 473 60 473 60 536 87.5 c 128,-1,41
 599 115 599 115 644 164 c 128,-1,42
 689 213 689 213 713 276.5 c 128,-1,43
 737 340 737 340 737 412 c 0,44,45
 737 480 737 480 707.5 531 c 128,-1,46
 678 582 678 582 621 611 c 128,-1,47
 564 640 564 640 479 640 c 0,48,49
 401 640 401 640 338 612.5 c 128,-1,50
 275 585 275 585 230.5 536 c 128,-1,51
 186 487 186 487 161.5 423.5 c 128,-1,52
 137 360 137 360 137 288 c 0,53,54
 137 221 137 221 166.5 169.5 c 128,-1,55
 196 118 196 118 253 89 c 128,-1,56
 310 60 310 60 395 60 c 0,39,40
EndSplineSet
Substitution2: "'c2sc' Capitals to Small Capitals lookup 45 subtable" ohorn.sc
Substitution2: "'aalt' Access All Alternates lookup 0 subtable" ohorn.sc
EndChar

StartChar: ohorn
Encoding: 417 417 352
Width: 627
GlyphClass: 2
Flags: W
AnchorPoint: "Anchor-3" 340 526 basechar 0
AnchorPoint: "Anchor-0" 260 0 basechar 0
LayerCount: 2
Fore
SplineSet
281 -5 m 0,0,1
 208 -5 208 -5 154.5 22.5 c 128,-1,2
 101 50 101 50 71.5 100 c 128,-1,3
 42 150 42 150 42 218 c 0,4,5
 42 308 42 308 81 378.5 c 128,-1,6
 120 449 120 449 189 489.5 c 128,-1,7
 258 530 258 530 346 530 c 0,8,9
 386 530 386 530 412 529 c 128,-1,10
 438 528 438 528 459 526 c 128,-1,11
 480 524 480 524 505 524 c 0,12,13
 539 524 539 524 560.5 542 c 128,-1,14
 582 560 582 560 582 594 c 0,15,16
 582 613 582 613 576 628.5 c 128,-1,17
 570 644 570 644 562 658 c 1,18,-1
 608 676 l 1,19,20
 621 659 621 659 627.5 637 c 128,-1,21
 634 615 634 615 634 592 c 0,22,23
 634 554 634 554 618.5 527.5 c 128,-1,24
 603 501 603 501 574 487 c 128,-1,25
 545 473 545 473 506 473 c 0,26,27
 485 473 485 473 467 474.5 c 128,-1,28
 449 476 449 476 426 478 c 1,29,-1
 481 495 l 1,30,31
 530 468 530 468 557.5 421 c 128,-1,32
 585 374 585 374 585 308 c 0,33,34
 585 218 585 218 546 147.5 c 128,-1,35
 507 77 507 77 438.5 36 c 128,-1,36
 370 -5 370 -5 281 -5 c 0,0,1
286 58 m 0,37,38
 352 58 352 58 403.5 89.5 c 128,-1,39
 455 121 455 121 484.5 177 c 128,-1,40
 514 233 514 233 514 304 c 0,41,42
 514 382 514 382 468.5 425 c 128,-1,43
 423 468 423 468 341 468 c 0,44,45
 276 468 276 468 224 436 c 128,-1,46
 172 404 172 404 142.5 348.5 c 128,-1,47
 113 293 113 293 113 221 c 0,48,49
 113 144 113 144 158.5 101 c 128,-1,50
 204 58 204 58 286 58 c 0,37,38
EndSplineSet
Substitution2: "'smcp' Lowercase to Small Capitals lookup 46 subtable" ohorn.sc
Substitution2: "'aalt' Access All Alternates lookup 0 subtable" ohorn.sc
EndChar

StartChar: uni01A4
Encoding: 420 420 353
Width: 879
GlyphClass: 2
Flags: W
AnchorPoint: "Anchor-3" 607 700 basechar 0
AnchorPoint: "Anchor-0" 467 0 basechar 0
LayerCount: 2
Fore
SplineSet
128 403 m 1,0,1
 94 456 94 456 90.5 508.5 c 128,-1,2
 87 561 87 561 109 604.5 c 128,-1,3
 131 648 131 648 173.5 674 c 128,-1,4
 216 700 216 700 276 700 c 2,5,-1
 370 700 l 1,6,-1
 357 636 l 1,7,-1
 276 636 l 2,8,9
 228 636 228 636 197.5 607 c 128,-1,10
 167 578 167 578 163 534 c 128,-1,11
 159 490 159 490 186 444 c 1,12,-1
 128 403 l 1,0,1
222 0 m 1,13,-1
 362 700 l 1,14,-1
 614 700 l 2,15,16
 733 700 733 700 798.5 648 c 128,-1,17
 864 596 864 596 864 502 c 0,18,19
 864 412 864 412 824.5 349.5 c 128,-1,20
 785 287 785 287 712 254 c 128,-1,21
 639 221 639 221 539 221 c 2,22,-1
 308 221 l 1,23,-1
 347 256 l 1,24,-1
 296 0 l 1,25,-1
 222 0 l 1,13,-1
346 250 m 1,26,-1
 320 286 l 1,27,-1
 540 286 l 2,28,29
 659 286 659 286 724.5 339 c 128,-1,30
 790 392 790 392 790 495 c 0,31,32
 790 564 790 564 743 600 c 128,-1,33
 696 636 696 636 608 636 c 2,34,-1
 392 636 l 1,35,-1
 430 673 l 1,36,-1
 346 250 l 1,26,-1
EndSplineSet
Substitution2: "'c2sc' Capitals to Small Capitals lookup 45 subtable" uni01A5.sc
Substitution2: "'aalt' Access All Alternates lookup 0 subtable" uni01A5.sc
EndChar

StartChar: uni01A5
Encoding: 421 421 354
Width: 679
GlyphClass: 2
Flags: W
AnchorPoint: "Anchor-3" 415 526 basechar 0
AnchorPoint: "Anchor-0" 323 0 basechar 0
LayerCount: 2
Fore
SplineSet
8 -194 m 1,0,-1
 165 590 l 2,1,2
 176 641 176 641 200 676 c 128,-1,3
 224 711 224 711 262 729 c 128,-1,4
 300 747 300 747 350 747 c 0,5,6
 392 747 392 747 427 734.5 c 128,-1,7
 462 722 462 722 489 697 c 1,8,-1
 455 644 l 1,9,10
 434 665 434 665 406.5 675.5 c 128,-1,11
 379 686 379 686 347 686 c 0,12,13
 302 686 302 686 273.5 661 c 128,-1,14
 245 636 245 636 235 588 c 2,15,-1
 191 370 l 1,16,-1
 160 264 l 1,17,-1
 146 158 l 1,18,-1
 76 -194 l 1,19,-1
 8 -194 l 1,0,-1
339 -5 m 0,20,21
 236 -5 236 -5 179.5 50 c 128,-1,22
 123 105 123 105 123 203 c 256,23,24
 123 301 123 301 158 374 c 128,-1,25
 193 447 193 447 257.5 488.5 c 128,-1,26
 322 530 322 530 408 530 c 0,27,28
 477 530 477 530 528.5 502.5 c 128,-1,29
 580 475 580 475 608.5 425.5 c 128,-1,30
 637 376 637 376 637 308 c 0,31,32
 637 241 637 241 615 184 c 128,-1,33
 593 127 593 127 553 84.5 c 128,-1,34
 513 42 513 42 459 18.5 c 128,-1,35
 405 -5 405 -5 339 -5 c 0,20,21
338 58 m 0,36,37
 404 58 404 58 455 89.5 c 128,-1,38
 506 121 506 121 536 177 c 128,-1,39
 566 233 566 233 566 304 c 0,40,41
 566 382 566 382 520 425 c 128,-1,42
 474 468 474 468 393 468 c 0,43,44
 327 468 327 468 275.5 436 c 128,-1,45
 224 404 224 404 194.5 348.5 c 128,-1,46
 165 293 165 293 165 221 c 0,47,48
 165 144 165 144 210.5 101 c 128,-1,49
 256 58 256 58 338 58 c 0,36,37
EndSplineSet
Substitution2: "'smcp' Lowercase to Small Capitals lookup 46 subtable" uni01A5.sc
Substitution2: "'aalt' Access All Alternates lookup 0 subtable" uni01A5.sc
EndChar

StartChar: uni01A6
Encoding: 422 422 355
Width: 723
GlyphClass: 2
Flags: W
AnchorPoint: "Anchor-3" 456 700 basechar 0
AnchorPoint: "Anchor-0" 316 0 basechar 0
LayerCount: 2
Fore
SplineSet
138 148 m 1,0,-1
 150 211 l 1,1,-1
 370 211 l 2,2,3
 489 211 489 211 554.5 264 c 128,-1,4
 620 317 620 317 620 421 c 0,5,6
 620 490 620 490 572.5 525.5 c 128,-1,7
 525 561 525 561 438 561 c 2,8,-1
 221 561 l 1,9,-1
 233 626 l 1,10,-1
 444 626 l 2,11,12
 562 626 562 626 627.5 573.5 c 128,-1,13
 693 521 693 521 693 427 c 0,14,15
 693 338 693 338 654 276 c 128,-1,16
 615 214 615 214 542 181 c 128,-1,17
 469 148 469 148 368 148 c 2,18,-1
 138 148 l 1,0,-1
62 0 m 1,19,-1
 202 700 l 1,20,-1
 275 700 l 1,21,-1
 136 0 l 1,22,-1
 62 0 l 1,19,-1
520 -100 m 1,23,-1
 369 167 l 1,24,-1
 448 167 l 1,25,-1
 599 -100 l 1,26,-1
 520 -100 l 1,23,-1
EndSplineSet
Substitution2: "'c2sc' Capitals to Small Capitals lookup 45 subtable" uni0280.sc
Substitution2: "'aalt' Access All Alternates lookup 0 subtable" uni0280.sc
EndChar

StartChar: uni01A9
Encoding: 425 425 356
Width: 485
GlyphClass: 1
Flags: W
LayerCount: 2
Fore
SplineSet
66 -5 m 0,0,1
 39 -2 39 -2 14 8 c 128,-1,2
 -11 18 -11 18 -27 32 c 1,3,-1
 9 88 l 1,4,5
 37 62 37 62 76 59 c 0,6,7
 110 56 110 56 141 75 c 128,-1,8
 172 94 172 94 182 143 c 2,9,-1
 266 566 l 2,10,11
 274 608 274 608 293.5 636.5 c 128,-1,12
 313 665 313 665 340 681 c 128,-1,13
 367 697 367 697 397 703 c 128,-1,14
 427 709 427 709 456 706 c 0,15,16
 484 703 484 703 508 693.5 c 128,-1,17
 532 684 532 684 548 670 c 1,18,-1
 512 613 l 1,19,20
 485 638 485 638 445 642 c 0,21,22
 410 645 410 645 379.5 626.5 c 128,-1,23
 349 608 349 608 339 558 c 2,24,-1
 255 135 l 2,25,26
 247 93 247 93 227.5 64.5 c 128,-1,27
 208 36 208 36 181 20 c 128,-1,28
 154 4 154 4 124.5 -1.5 c 128,-1,29
 95 -7 95 -7 66 -5 c 0,0,1
EndSplineSet
Substitution2: "'c2sc' Capitals to Small Capitals lookup 45 subtable" uni0283.sc
Substitution2: "'aalt' Access All Alternates lookup 0 subtable" uni0283.sc
EndChar

StartChar: uni01AC
Encoding: 428 428 357
Width: 641
GlyphClass: 2
Flags: W
AnchorPoint: "Anchor-3" 441 700 basechar 0
AnchorPoint: "Anchor-1" 370 345 basechar 0
AnchorPoint: "Anchor-0" 301 0 basechar 0
LayerCount: 2
Fore
SplineSet
265 0 m 1,0,-1
 392 636 l 1,1,-1
 304 636 l 1,2,-1
 315 700 l 1,3,-1
 724 700 l 1,4,-1
 711 636 l 1,5,-1
 465 636 l 1,6,-1
 338 0 l 1,7,-1
 265 0 l 1,0,-1
122 415 m 1,8,9
 90 467 90 467 89.5 518 c 128,-1,10
 89 569 89 569 113.5 610 c 128,-1,11
 138 651 138 651 184.5 675.5 c 128,-1,12
 231 700 231 700 294 700 c 2,13,-1
 341 700 l 1,14,-1
 329 636 l 1,15,-1
 289 636 l 2,16,17
 231 636 231 636 196 608.5 c 128,-1,18
 161 581 161 581 155.5 536.5 c 128,-1,19
 150 492 150 492 180 442 c 1,20,-1
 122 415 l 1,8,9
EndSplineSet
Substitution2: "'ss01' Style Set 1 lookup 50 subtable" uni01AC.ss01
Substitution2: "'c2sc' Capitals to Small Capitals lookup 45 subtable" uni01AD.sc
AlternateSubs2: "'aalt' Access All Alternates lookup 1 subtable" uni01AD.sc uni01AC.ss01
EndChar

StartChar: uni01AD
Encoding: 429 429 358
Width: 407
GlyphClass: 2
Flags: W
AnchorPoint: "Anchor-4" 368 742 basechar 0
AnchorPoint: "Anchor-3" 221 641 basechar 0
AnchorPoint: "Anchor-1" 186 295 basechar 0
AnchorPoint: "Anchor-0" 195 0 basechar 0
LayerCount: 2
Fore
SplineSet
214 -5 m 0,0,1
 169 -5 169 -5 137 14.5 c 128,-1,2
 105 34 105 34 92.5 70 c 128,-1,3
 80 106 80 106 90 156 c 2,4,-1
 177 592 l 2,5,6
 192 666 192 666 237.5 706.5 c 128,-1,7
 283 747 283 747 357 747 c 0,8,9
 389 747 389 747 417 738 c 128,-1,10
 445 729 445 729 463 713 c 1,11,-1
 431 661 l 1,12,13
 403 687 403 687 357 687 c 256,14,15
 311 687 311 687 284 662.5 c 128,-1,16
 257 638 257 638 245 584 c 2,17,-1
 229 507 l 1,18,-1
 225 476 l 1,19,-1
 161 159 l 2,20,21
 151 110 151 110 168.5 83 c 128,-1,22
 186 56 186 56 233 56 c 0,23,24
 255 56 255 56 276 62.5 c 128,-1,25
 297 69 297 69 314 83 c 1,26,-1
 331 29 l 1,27,28
 306 10 306 10 275 2.5 c 128,-1,29
 244 -5 244 -5 214 -5 c 0,0,1
58 466 m 1,30,-1
 69 525 l 1,31,-1
 394 525 l 1,32,-1
 382 466 l 1,33,-1
 58 466 l 1,30,-1
EndSplineSet
Substitution2: "'ss01' Style Set 1 lookup 50 subtable" uni01AD.ss01
Substitution2: "'smcp' Lowercase to Small Capitals lookup 46 subtable" uni01AD.sc
AlternateSubs2: "'aalt' Access All Alternates lookup 1 subtable" uni01AD.sc uni01AD.ss01
EndChar

StartChar: uni01AE
Encoding: 430 430 359
Width: 574
GlyphClass: 2
Flags: W
AnchorPoint: "Anchor-3" 374 700 basechar 0
AnchorPoint: "Anchor-1" 303 345 basechar 0
AnchorPoint: "Anchor-0" 234 0 basechar 0
LayerCount: 2
Fore
SplineSet
411 -180 m 1,0,1
 376 -194 376 -194 341 -196.5 c 128,-1,2
 306 -199 306 -199 275 -191 c 128,-1,3
 244 -183 244 -183 222 -163.5 c 128,-1,4
 200 -144 200 -144 190.5 -113 c 128,-1,5
 181 -82 181 -82 190 -41 c 2,6,-1
 325 636 l 1,7,-1
 78 636 l 1,8,-1
 91 700 l 1,9,-1
 657 700 l 1,10,-1
 644 636 l 1,11,-1
 398 636 l 1,12,-1
 263 -39 l 2,13,14
 256 -73 256 -73 265.5 -95 c 128,-1,15
 275 -117 275 -117 295.5 -127 c 128,-1,16
 316 -137 316 -137 344.5 -135.5 c 128,-1,17
 373 -134 373 -134 405 -122 c 1,18,-1
 411 -180 l 1,0,1
EndSplineSet
Substitution2: "'ss01' Style Set 1 lookup 50 subtable" uni01AE.ss01
Substitution2: "'c2sc' Capitals to Small Capitals lookup 45 subtable" uni0288.sc
AlternateSubs2: "'aalt' Access All Alternates lookup 1 subtable" uni0288.sc uni01AE.ss01
EndChar

StartChar: uni01B1
Encoding: 433 433 362
Width: 902
GlyphClass: 2
Flags: W
AnchorPoint: "Anchor-3" 538 700 basechar 0
AnchorPoint: "Anchor-0" 398 0 basechar 0
LayerCount: 2
Fore
SplineSet
979 700 m 1,0,-1
 967 635 l 1,1,-1
 729 635 l 1,2,3
 789 585 789 585 814 524.5 c 128,-1,4
 839 464 839 464 839 382 c 0,5,6
 839 294 839 294 808.5 222.5 c 128,-1,7
 778 151 778 151 723 100 c 128,-1,8
 668 49 668 49 592 21.5 c 128,-1,9
 516 -6 516 -6 426 -6 c 0,10,11
 328 -6 328 -6 253 27.5 c 128,-1,12
 178 61 178 61 136 125 c 128,-1,13
 94 189 94 189 94 281 c 0,14,15
 94 348 94 348 112 404 c 128,-1,16
 130 460 130 460 161 504.5 c 128,-1,17
 192 549 192 549 230 581.5 c 128,-1,18
 268 614 268 614 308 635 c 1,19,-1
 85 635 l 1,20,-1
 97 700 l 1,21,-1
 436 700 l 1,22,-1
 424 640 l 1,23,24
 373 620 373 620 327 588 c 128,-1,25
 281 556 281 556 245 511.5 c 128,-1,26
 209 467 209 467 188.5 410.5 c 128,-1,27
 168 354 168 354 168 286 c 0,28,29
 168 176 168 176 239.5 118 c 128,-1,30
 311 60 311 60 430 60 c 0,31,32
 532 60 532 60 608 100.5 c 128,-1,33
 684 141 684 141 725.5 215 c 128,-1,34
 767 289 767 289 767 386 c 0,35,36
 767 445 767 445 752.5 490.5 c 128,-1,37
 738 536 738 536 707.5 572.5 c 128,-1,38
 677 609 677 609 629 640 c 1,39,-1
 641 700 l 1,40,-1
 979 700 l 1,0,-1
EndSplineSet
Substitution2: "'c2sc' Capitals to Small Capitals lookup 45 subtable" uni028A.sc
Substitution2: "'aalt' Access All Alternates lookup 0 subtable" uni028A.sc
EndChar

StartChar: uni01B2
Encoding: 434 434 363
Width: 766
GlyphClass: 2
Flags: W
AnchorPoint: "Anchor-4" 739 700 basechar 0
AnchorPoint: "Anchor-3" 471 700 basechar 0
AnchorPoint: "Anchor-2" 527 0 basechar 0
AnchorPoint: "Anchor-0" 331 0 basechar 0
LayerCount: 2
Fore
SplineSet
349 -6 m 0,0,1
 255 -6 255 -6 194 31 c 128,-1,2
 133 68 133 68 109 136.5 c 128,-1,3
 85 205 85 205 104 299 c 2,4,-1
 184 700 l 1,5,-1
 257 700 l 1,6,-1
 177 301 l 2,7,8
 154 183 154 183 201 121.5 c 128,-1,9
 248 60 248 60 355 60 c 0,10,11
 457 60 457 60 519.5 118.5 c 128,-1,12
 582 177 582 177 606 301 c 2,13,-1
 657 553 l 2,14,15
 665 590 665 590 653 613.5 c 128,-1,16
 641 637 641 637 617 646 c 128,-1,17
 593 655 593 655 561.5 649.5 c 128,-1,18
 530 644 530 644 498 623 c 1,19,-1
 483 676 l 1,20,21
 519 700 519 700 557 708.5 c 128,-1,22
 595 717 595 717 630 711.5 c 128,-1,23
 665 706 665 706 690.5 686.5 c 128,-1,24
 716 667 716 667 727.5 634 c 128,-1,25
 739 601 739 601 730 554 c 2,26,-1
 678 296 l 2,27,28
 647 144 647 144 564.5 69 c 128,-1,29
 482 -6 482 -6 349 -6 c 0,0,1
EndSplineSet
Substitution2: "'c2sc' Capitals to Small Capitals lookup 45 subtable" uni028B.sc
Substitution2: "'locl' Localized Forms in Latin lookup 18 subtable" uni01B2.loclTOD0
AlternateSubs2: "'aalt' Access All Alternates lookup 1 subtable" uni01B2.loclTOD0 uni028B.sc
EndChar

StartChar: uni01B3
Encoding: 435 435 364
Width: 673
GlyphClass: 2
Flags: W
AnchorPoint: "Anchor-3" 432 700 basechar 0
AnchorPoint: "Anchor-1" 339 246 basechar 0
AnchorPoint: "Anchor-0" 292 0 basechar 0
LayerCount: 2
Fore
SplineSet
237 0 m 1,0,-1
 290 262 l 1,1,-1
 298 212 l 1,2,-1
 98 700 l 1,3,-1
 171 700 l 1,4,-1
 346 274 l 1,5,-1
 306 273 l 1,6,-1
 637 685 l 2,7,8
 676 733 676 733 725 743.5 c 128,-1,9
 774 754 774 754 817 723 c 1,10,-1
 785 670 l 1,11,12
 761 686 761 686 733.5 678.5 c 128,-1,13
 706 671 706 671 682 641 c 2,14,-1
 337 211 l 1,15,-1
 363 262 l 1,16,-1
 310 0 l 1,17,-1
 237 0 l 1,0,-1
EndSplineSet
Substitution2: "'ss01' Style Set 1 lookup 50 subtable" uni01B3.ss01
Substitution2: "'c2sc' Capitals to Small Capitals lookup 45 subtable" uni01B4.sc
AlternateSubs2: "'aalt' Access All Alternates lookup 1 subtable" uni01B4.sc uni01B3.ss01
EndChar

StartChar: uni01B4
Encoding: 436 436 365
Width: 610
GlyphClass: 2
Flags: W
AnchorPoint: "Anchor-3" 310 526 basechar 0
AnchorPoint: "Anchor-0" 335 0 basechar 0
LayerCount: 2
Fore
SplineSet
20 -199 m 0,0,1
 -17 -199 -17 -199 -51 -186.5 c 128,-1,2
 -85 -174 -85 -174 -105 -152 c 1,3,-1
 -67 -100 l 1,4,5
 -50 -118 -50 -118 -27 -128 c 128,-1,6
 -4 -138 -4 -138 25 -138 c 0,7,8
 59 -138 59 -138 87.5 -119.5 c 128,-1,9
 116 -101 116 -101 147 -53 c 2,10,-1
 200 28 l 1,11,-1
 209 38 l 1,12,-1
 486 471 l 2,13,14
 516 518 516 518 549.5 544.5 c 128,-1,15
 583 571 583 571 618 575.5 c 128,-1,16
 653 580 653 580 686 562 c 1,17,-1
 656 505 l 1,18,19
 634 518 634 518 605.5 508.5 c 128,-1,20
 577 499 577 499 543 448 c 2,21,-1
 210 -68 l 2,22,23
 177 -118 177 -118 148 -146.5 c 128,-1,24
 119 -175 119 -175 88.5 -187 c 128,-1,25
 58 -199 58 -199 20 -199 c 0,0,1
188 -15 m 1,26,-1
 53 525 l 1,27,-1
 125 525 l 1,28,-1
 243 43 l 1,29,-1
 188 -15 l 1,26,-1
EndSplineSet
Substitution2: "'ss01' Style Set 1 lookup 50 subtable" uni01B4.ss01
Substitution2: "'smcp' Lowercase to Small Capitals lookup 46 subtable" uni01B4.sc
AlternateSubs2: "'aalt' Access All Alternates lookup 1 subtable" uni01B4.sc uni01B4.ss01
EndChar

StartChar: uni01B5
Encoding: 437 437 366
Width: 651
GlyphClass: 2
Flags: W
AnchorPoint: "Anchor-3" 419 700 basechar 0
AnchorPoint: "Anchor-0" 287 0 basechar 0
LayerCount: 2
Fore
SplineSet
-8 0 m 1,0,-1
 2 51 l 1,1,-1
 606 664 l 1,2,-1
 612 636 l 1,3,-1
 127 636 l 1,4,-1
 140 700 l 1,5,-1
 695 700 l 1,6,-1
 685 649 l 1,7,-1
 80 36 l 1,8,-1
 75 64 l 1,9,-1
 579 64 l 1,10,-1
 566 0 l 1,11,-1
 -8 0 l 1,0,-1
143 327 m 1,12,-1
 155 387 l 1,13,-1
 559 387 l 1,14,-1
 548 327 l 1,15,-1
 143 327 l 1,12,-1
EndSplineSet
Substitution2: "'c2sc' Capitals to Small Capitals lookup 45 subtable" uni01B6.sc
Substitution2: "'aalt' Access All Alternates lookup 0 subtable" uni01B6.sc
EndChar

StartChar: uni01B6
Encoding: 438 438 367
Width: 511
GlyphClass: 2
Flags: W
AnchorPoint: "Anchor-3" 308 526 basechar 0
AnchorPoint: "Anchor-0" 211 0 basechar 0
LayerCount: 2
Fore
SplineSet
-11 0 m 1,0,-1
 -2 47 l 1,1,-1
 432 490 l 1,2,-1
 448 466 l 1,3,-1
 89 466 l 1,4,-1
 101 525 l 1,5,-1
 516 525 l 1,6,-1
 506 479 l 1,7,-1
 73 35 l 1,8,-1
 54 59 l 1,9,-1
 429 59 l 1,10,-1
 417 0 l 1,11,-1
 -11 0 l 1,0,-1
91 244 m 1,12,-1
 102 296 l 1,13,-1
 431 296 l 1,14,-1
 420 244 l 1,15,-1
 91 244 l 1,12,-1
EndSplineSet
Substitution2: "'smcp' Lowercase to Small Capitals lookup 46 subtable" uni01B6.sc
Substitution2: "'aalt' Access All Alternates lookup 0 subtable" uni01B6.sc
EndChar

StartChar: uni01B8
Encoding: 440 440 369
Width: 625
GlyphClass: 2
Flags: W
AnchorPoint: "Anchor-3" 405 700 basechar 0
AnchorPoint: "Anchor-0" 265 0 basechar 0
LayerCount: 2
Fore
SplineSet
291 -6 m 0,0,1
 225 -6 225 -6 176 12.5 c 128,-1,2
 127 31 127 31 97 64 c 128,-1,3
 67 97 67 97 55.5 138 c 128,-1,4
 44 179 44 179 53 223 c 0,5,6
 70 311 70 311 147.5 355.5 c 128,-1,7
 225 400 225 400 358 400 c 2,8,-1
 385 400 l 1,9,-1
 355 378 l 1,10,-1
 173 649 l 1,11,-1
 183 700 l 1,12,-1
 655 700 l 1,13,-1
 642 637 l 1,14,-1
 228 637 l 1,15,-1
 242 669 l 1,16,-1
 424 398 l 1,17,-1
 413 341 l 1,18,-1
 352 341 l 2,19,20
 247 341 247 341 192.5 310.5 c 128,-1,21
 138 280 138 280 125 215 c 0,22,23
 116 172 116 172 134.5 136 c 128,-1,24
 153 100 153 100 195.5 79 c 128,-1,25
 238 58 238 58 300 58 c 0,26,27
 375 58 375 58 436 81.5 c 128,-1,28
 497 105 497 105 540 140 c 1,29,-1
 557 82 l 1,30,31
 510 43 510 43 441.5 18.5 c 128,-1,32
 373 -6 373 -6 291 -6 c 0,0,1
EndSplineSet
Substitution2: "'c2sc' Capitals to Small Capitals lookup 45 subtable" uni01B9.sc
Substitution2: "'aalt' Access All Alternates lookup 0 subtable" uni01B9.sc
EndChar

StartChar: uni01B9
Encoding: 441 441 370
Width: 527
GlyphClass: 1
Flags: W
LayerCount: 2
Fore
SplineSet
222 -200 m 0,0,1
 142 -200 142 -200 85 -169.5 c 128,-1,2
 28 -139 28 -139 3 -85 c 128,-1,3
 -22 -31 -22 -31 -8 38 c 0,4,5
 3 92 3 92 37.5 131 c 128,-1,6
 72 170 72 170 125 191.5 c 128,-1,7
 178 213 178 213 245 213 c 2,8,-1
 316 213 l 1,9,-1
 284 191 l 1,10,-1
 111 476 l 1,11,-1
 120 527 l 1,12,-1
 571 527 l 1,13,-1
 559 468 l 1,14,-1
 169 468 l 1,15,-1
 185 491 l 1,16,-1
 354 209 l 1,17,-1
 344 157 l 1,18,-1
 256 157 l 2,19,20
 206 157 206 157 165.5 141.5 c 128,-1,21
 125 126 125 126 99.5 98.5 c 128,-1,22
 74 71 74 71 65 32 c 0,23,24
 54 -17 54 -17 72 -55.5 c 128,-1,25
 90 -94 90 -94 131 -116 c 128,-1,26
 172 -138 172 -138 232 -138 c 0,27,28
 270 -138 270 -138 310 -127.5 c 128,-1,29
 350 -117 350 -117 386 -99 c 128,-1,30
 422 -81 422 -81 447 -57 c 1,31,-1
 470 -110 l 1,32,33
 439 -137 439 -137 398.5 -157.5 c 128,-1,34
 358 -178 358 -178 312.5 -189 c 128,-1,35
 267 -200 267 -200 222 -200 c 0,0,1
EndSplineSet
Substitution2: "'smcp' Lowercase to Small Capitals lookup 46 subtable" uni01B9.sc
Substitution2: "'aalt' Access All Alternates lookup 0 subtable" uni01B9.sc
EndChar

StartChar: uni01C2
Encoding: 450 450 373
Width: 609
GlyphClass: 1
Flags: W
LayerCount: 2
Fore
SplineSet
178 -194 m 1,0,-1
 246 144 l 1,1,-1
 4 144 l 1,2,-1
 16 207 l 1,3,-1
 258 207 l 1,4,-1
 288 361 l 1,5,-1
 46 361 l 1,6,-1
 59 424 l 1,7,-1
 301 424 l 1,8,-1
 365 742 l 1,9,-1
 436 742 l 1,10,-1
 372 424 l 1,11,-1
 614 424 l 1,12,-1
 602 361 l 1,13,-1
 359 361 l 1,14,-1
 329 207 l 1,15,-1
 571 207 l 1,16,-1
 559 144 l 1,17,-1
 317 144 l 1,18,-1
 249 -194 l 1,19,-1
 178 -194 l 1,0,-1
EndSplineSet
EndChar

StartChar: uni01DD
Encoding: 477 477 400
Width: 604
GlyphClass: 2
Flags: W
AnchorPoint: "Anchor-3" 338 526 basechar 0
AnchorPoint: "Anchor-0" 233 0 basechar 0
LayerCount: 2
Fore
SplineSet
270 -5 m 0,0,1
 201 -5 201 -5 149.5 22 c 128,-1,2
 98 49 98 49 70 99 c 128,-1,3
 42 149 42 149 42 218 c 0,4,5
 42 236 42 236 43.5 252 c 128,-1,6
 45 268 45 268 49 282 c 1,7,-1
 509 282 l 1,8,-1
 500 229 l 1,9,-1
 82 229 l 1,10,-1
 111 249 l 1,11,12
 101 187 101 187 119.5 144 c 128,-1,13
 138 101 138 101 178.5 78.5 c 128,-1,14
 219 56 219 56 273 56 c 0,15,16
 338 56 338 56 387.5 87.5 c 128,-1,17
 437 119 437 119 464.5 175 c 128,-1,18
 492 231 492 231 492 303 c 0,19,20
 492 382 492 382 447 425 c 128,-1,21
 402 468 402 468 311 468 c 0,22,23
 258 468 258 468 213.5 450 c 128,-1,24
 169 432 169 432 138 401 c 1,25,-1
 107 452 l 1,26,27
 144 490 144 490 199.5 510 c 128,-1,28
 255 530 255 530 317 530 c 0,29,30
 393 530 393 530 448 503 c 128,-1,31
 503 476 503 476 532.5 426 c 128,-1,32
 562 376 562 376 562 306 c 0,33,34
 562 217 562 217 524 147 c 128,-1,35
 486 77 486 77 420.5 36 c 128,-1,36
 355 -5 355 -5 270 -5 c 0,0,1
EndSplineSet
Substitution2: "'smcp' Lowercase to Small Capitals lookup 46 subtable" uni01DD.sc
Substitution2: "'aalt' Access All Alternates lookup 0 subtable" uni01DD.sc
EndChar

StartChar: uni01E4
Encoding: 484 484 407
Width: 806
GlyphClass: 2
Flags: W
AnchorPoint: "Anchor-3" 506 700 basechar 0
AnchorPoint: "Anchor-0" 362 0 basechar 0
LayerCount: 2
Fore
SplineSet
391 -6 m 0,0,1
 288 -6 288 -6 215 30.5 c 128,-1,2
 142 67 142 67 103 132.5 c 128,-1,3
 64 198 64 198 64 285 c 0,4,5
 64 371 64 371 93.5 447 c 128,-1,6
 123 523 123 523 178.5 581.5 c 128,-1,7
 234 640 234 640 313 673 c 128,-1,8
 392 706 392 706 491 706 c 0,9,10
 579 706 579 706 645.5 679.5 c 128,-1,11
 712 653 712 653 751 604 c 1,12,-1
 699 559 l 1,13,14
 663 601 663 601 610.5 620.5 c 128,-1,15
 558 640 558 640 488 640 c 0,16,17
 407 640 407 640 342.5 612.5 c 128,-1,18
 278 585 278 585 232.5 537 c 128,-1,19
 187 489 187 489 162 425 c 128,-1,20
 137 361 137 361 137 288 c 0,21,22
 137 221 137 221 166.5 169.5 c 128,-1,23
 196 118 196 118 254.5 89 c 128,-1,24
 313 60 313 60 399 60 c 0,25,26
 462 60 462 60 514.5 81 c 128,-1,27
 567 102 567 102 612 141 c 1,28,-1
 642 81 l 1,29,30
 594 41 594 41 528.5 17.5 c 128,-1,31
 463 -6 463 -6 391 -6 c 0,0,1
574 92 m 1,32,-1
 625 350 l 1,33,-1
 696 350 l 1,34,-1
 642 81 l 1,35,-1
 574 92 l 1,32,-1
439 214 m 1,36,-1
 450 273 l 1,37,-1
 790 273 l 1,38,-1
 778 214 l 1,39,-1
 439 214 l 1,36,-1
EndSplineSet
Substitution2: "'ss01' Style Set 1 lookup 50 subtable" uni01E4.ss01
Substitution2: "'c2sc' Capitals to Small Capitals lookup 45 subtable" uni01E5.sc
AlternateSubs2: "'aalt' Access All Alternates lookup 1 subtable" uni01E5.sc uni01E4.ss01
EndChar

StartChar: uni01E5
Encoding: 485 485 408
Width: 692
GlyphClass: 1
Flags: W
LayerCount: 2
Fore
SplineSet
242 -199 m 0,0,1
 169 -199 169 -199 109 -178.5 c 128,-1,2
 49 -158 49 -158 9 -120 c 1,3,-1
 50 -66 l 1,4,5
 82 -98 82 -98 133.5 -117 c 128,-1,6
 185 -136 185 -136 247 -136 c 0,7,8
 347 -136 347 -136 402 -90 c 128,-1,9
 457 -44 457 -44 476 52 c 2,10,-1
 503 190 l 1,11,-1
 531 276 l 1,12,-1
 541 366 l 1,13,-1
 572 525 l 1,14,-1
 640 525 l 1,15,-1
 548 64 l 2,16,17
 521 -75 521 -75 446 -137 c 128,-1,18
 371 -199 371 -199 242 -199 c 0,0,1
281 -62 m 1,19,-1
 291 -11 l 1,20,-1
 614 -11 l 1,21,-1
 605 -62 l 1,22,-1
 281 -62 l 1,19,-1
277 35 m 0,23,24
 208 35 208 35 155.5 59.5 c 128,-1,25
 103 84 103 84 74 130.5 c 128,-1,26
 45 177 45 177 45 241 c 0,27,28
 45 323 45 323 83.5 388 c 128,-1,29
 122 453 122 453 190 491.5 c 128,-1,30
 258 530 258 530 345 530 c 0,31,32
 408 530 408 530 457 508.5 c 128,-1,33
 506 487 506 487 534.5 444 c 128,-1,34
 563 401 563 401 563 336 c 0,35,36
 564 252 564 252 529 183.5 c 128,-1,37
 494 115 494 115 430 75 c 128,-1,38
 366 35 366 35 277 35 c 0,23,24
291 95 m 0,39,40
 357 95 357 95 408.5 124 c 128,-1,41
 460 153 460 153 490 204.5 c 128,-1,42
 520 256 520 256 520 321 c 0,43,44
 520 391 520 391 474 430.5 c 128,-1,45
 428 470 428 470 346 470 c 0,46,47
 280 470 280 470 228.5 441 c 128,-1,48
 177 412 177 412 147 360.5 c 128,-1,49
 117 309 117 309 117 244 c 0,50,51
 117 173 117 173 163 134 c 128,-1,52
 209 95 209 95 291 95 c 0,39,40
EndSplineSet
Substitution2: "'smcp' Lowercase to Small Capitals lookup 46 subtable" uni01E5.sc
Substitution2: "'aalt' Access All Alternates lookup 0 subtable" uni01E5.sc
EndChar

StartChar: uni01EA
Encoding: 490 490 413
Width: 839
GlyphClass: 2
Flags: W
AnchorPoint: "Anchor-3" 507 700 basechar 0
LayerCount: 2
Fore
SplineSet
331 -220 m 0,0,1
 288 -220 288 -220 261.5 -198.5 c 128,-1,2
 235 -177 235 -177 235 -138 c 0,3,4
 235 -94 235 -94 268.5 -53.5 c 128,-1,5
 302 -13 302 -13 378 14 c 1,6,-1
 388 -6 l 1,7,8
 285 -6 285 -6 212 30.5 c 128,-1,9
 139 67 139 67 101.5 132.5 c 128,-1,10
 64 198 64 198 64 285 c 0,11,12
 64 371 64 371 93 447 c 128,-1,13
 122 523 122 523 177.5 581.5 c 128,-1,14
 233 640 233 640 311 673 c 128,-1,15
 389 706 389 706 486 706 c 0,16,17
 590 706 590 706 662.5 669.5 c 128,-1,18
 735 633 735 633 772.5 567.5 c 128,-1,19
 810 502 810 502 810 415 c 0,20,21
 810 314 810 314 770 227.5 c 128,-1,22
 730 141 730 141 656.5 82 c 128,-1,23
 583 23 583 23 483 3 c 0,24,25
 412 -11 412 -11 369 -33 c 128,-1,26
 326 -55 326 -55 307 -80 c 128,-1,27
 288 -105 288 -105 288 -130 c 0,28,29
 288 -152 288 -152 302.5 -164 c 128,-1,30
 317 -176 317 -176 341 -176 c 0,31,32
 359 -176 359 -176 377 -171 c 128,-1,33
 395 -166 395 -166 409 -157 c 1,34,-1
 420 -196 l 1,35,36
 401 -207 401 -207 379 -213.5 c 128,-1,37
 357 -220 357 -220 331 -220 c 0,0,1
395 60 m 0,38,39
 473 60 473 60 536 87.5 c 128,-1,40
 599 115 599 115 644 164 c 128,-1,41
 689 213 689 213 713 276.5 c 128,-1,42
 737 340 737 340 737 412 c 0,43,44
 737 480 737 480 707.5 531 c 128,-1,45
 678 582 678 582 621 611 c 128,-1,46
 564 640 564 640 479 640 c 0,47,48
 401 640 401 640 338 612.5 c 128,-1,49
 275 585 275 585 230.5 536 c 128,-1,50
 186 487 186 487 161.5 423.5 c 128,-1,51
 137 360 137 360 137 288 c 0,52,53
 137 221 137 221 166.5 169.5 c 128,-1,54
 196 118 196 118 253 89 c 128,-1,55
 310 60 310 60 395 60 c 0,38,39
EndSplineSet
Substitution2: "'c2sc' Capitals to Small Capitals lookup 45 subtable" uni01EB.sc
Substitution2: "'locl' Localized Forms in Latin lookup 15 subtable" uni01EA.loclNAV
AlternateSubs2: "'aalt' Access All Alternates lookup 1 subtable" uni01EA.loclNAV uni01EB.sc
EndChar

StartChar: uni01EB
Encoding: 491 491 414
Width: 627
GlyphClass: 2
Flags: W
AnchorPoint: "Anchor-3" 364 526 basechar 0
LayerCount: 2
Fore
SplineSet
249 -220 m 0,0,1
 206 -220 206 -220 179.5 -198.5 c 128,-1,2
 153 -177 153 -177 153 -138 c 0,3,4
 153 -95 153 -95 185 -55.5 c 128,-1,5
 217 -16 217 -16 288 13 c 1,6,-1
 317 -3 l 1,7,8
 306 -4 306 -4 297.5 -4.5 c 128,-1,9
 289 -5 289 -5 281 -5 c 0,10,11
 208 -5 208 -5 154.5 22.5 c 128,-1,12
 101 50 101 50 71.5 100 c 128,-1,13
 42 150 42 150 42 218 c 0,14,15
 42 308 42 308 81 378.5 c 128,-1,16
 120 449 120 449 189 489.5 c 128,-1,17
 258 530 258 530 346 530 c 0,18,19
 419 530 419 530 472.5 503 c 128,-1,20
 526 476 526 476 555.5 426 c 128,-1,21
 585 376 585 376 585 308 c 0,22,23
 585 236 585 236 560 176 c 128,-1,24
 535 116 535 116 488 73 c 128,-1,25
 441 30 441 30 375 8 c 0,26,27
 316 -12 316 -12 278.5 -34.5 c 128,-1,28
 241 -57 241 -57 223.5 -81 c 128,-1,29
 206 -105 206 -105 206 -130 c 0,30,31
 206 -152 206 -152 220.5 -164 c 128,-1,32
 235 -176 235 -176 259 -176 c 0,33,34
 277 -176 277 -176 295 -171 c 128,-1,35
 313 -166 313 -166 327 -157 c 1,36,-1
 338 -196 l 1,37,38
 320 -207 320 -207 297.5 -213.5 c 128,-1,39
 275 -220 275 -220 249 -220 c 0,0,1
286 58 m 0,40,41
 352 58 352 58 403.5 89.5 c 128,-1,42
 455 121 455 121 484.5 177 c 128,-1,43
 514 233 514 233 514 304 c 0,44,45
 514 382 514 382 468.5 425 c 128,-1,46
 423 468 423 468 341 468 c 0,47,48
 276 468 276 468 224 436 c 128,-1,49
 172 404 172 404 142.5 348.5 c 128,-1,50
 113 293 113 293 113 221 c 0,51,52
 113 144 113 144 158.5 101 c 128,-1,53
 204 58 204 58 286 58 c 0,40,41
EndSplineSet
Substitution2: "'smcp' Lowercase to Small Capitals lookup 46 subtable" uni01EB.sc
Substitution2: "'locl' Localized Forms in Latin lookup 15 subtable" uni01EB.loclNAV
AlternateSubs2: "'aalt' Access All Alternates lookup 1 subtable" uni01EB.loclNAV uni01EB.sc
EndChar

StartChar: uni021C
Encoding: 540 540 461
Width: 606
GlyphClass: 1
Flags: W
LayerCount: 2
Fore
SplineSet
-82 -105 m 1,0,-1
 -75 -42 l 1,1,2
 -11 -35 -11 -35 53 -22 c 128,-1,3
 117 -9 117 -9 177 8 c 128,-1,4
 237 25 237 25 288.5 47.5 c 128,-1,5
 340 70 340 70 379 97.5 c 128,-1,6
 418 125 418 125 440 158 c 128,-1,7
 462 191 462 191 462 229 c 0,8,9
 462 291 462 291 409 309 c 128,-1,10
 356 327 356 327 267 307 c 2,11,-1
 142 280 l 1,12,-1
 147 342 l 1,13,-1
 254 367 l 2,14,15
 294 376 294 376 335.5 390 c 128,-1,16
 377 404 377 404 413 425.5 c 128,-1,17
 449 447 449 447 471 476.5 c 128,-1,18
 493 506 493 506 493 545 c 0,19,20
 493 571 493 571 481 594 c 128,-1,21
 469 617 469 617 441.5 630.5 c 128,-1,22
 414 644 414 644 368 644 c 0,23,24
 332 644 332 644 287 634 c 128,-1,25
 242 624 242 624 190 604.5 c 128,-1,26
 138 585 138 585 81 556 c 1,27,-1
 65 612 l 1,28,29
 122 645 122 645 178.5 665.5 c 128,-1,30
 235 686 235 686 287.5 696.5 c 128,-1,31
 340 707 340 707 384 707 c 0,32,33
 452 707 452 707 492.5 686 c 128,-1,34
 533 665 533 665 551.5 630.5 c 128,-1,35
 570 596 570 596 570 556 c 0,36,37
 570 507 570 507 547 470 c 128,-1,38
 524 433 524 433 484.5 406.5 c 128,-1,39
 445 380 445 380 395 361.5 c 128,-1,40
 345 343 345 343 291 331 c 1,41,-1
 292 348 l 1,42,43
 361 366 361 366 416.5 358 c 128,-1,44
 472 350 472 350 505 318 c 128,-1,45
 538 286 538 286 538 229 c 0,46,47
 538 178 538 178 509.5 135 c 128,-1,48
 481 92 481 92 432.5 56.5 c 128,-1,49
 384 21 384 21 321.5 -6 c 128,-1,50
 259 -33 259 -33 189.5 -53 c 128,-1,51
 120 -73 120 -73 50.5 -86 c 128,-1,52
 -19 -99 -19 -99 -82 -105 c 1,0,-1
EndSplineSet
Substitution2: "'c2sc' Capitals to Small Capitals lookup 45 subtable" uni021D.sc
Substitution2: "'aalt' Access All Alternates lookup 0 subtable" uni021D.sc
EndChar

StartChar: uni021D
Encoding: 541 541 462
Width: 505
GlyphClass: 1
Flags: W
LayerCount: 2
Fore
SplineSet
-82 -194 m 1,0,-1
 -75 -134 l 1,1,2
 -13 -124 -13 -124 47.5 -108.5 c 128,-1,3
 108 -93 108 -93 161.5 -72 c 128,-1,4
 215 -51 215 -51 255.5 -25 c 128,-1,5
 296 1 296 1 319 32.5 c 128,-1,6
 342 64 342 64 342 101 c 0,7,8
 342 131 342 131 325.5 151.5 c 128,-1,9
 309 172 309 172 276 179 c 128,-1,10
 243 186 243 186 193 173 c 2,11,-1
 97 148 l 1,12,-1
 100 204 l 1,13,-1
 200 231 l 2,14,15
 238 240 238 240 270.5 254.5 c 128,-1,16
 303 269 303 269 328 288 c 128,-1,17
 353 307 353 307 366.5 331.5 c 128,-1,18
 380 356 380 356 380 387 c 0,19,20
 380 423 380 423 359 447.5 c 128,-1,21
 338 472 338 472 286 472 c 0,22,23
 241 472 241 472 184 452 c 128,-1,24
 127 432 127 432 63 398 c 1,25,-1
 51 455 l 1,26,27
 98 482 98 482 141 499 c 128,-1,28
 184 516 184 516 223.5 523.5 c 128,-1,29
 263 531 263 531 296 531 c 0,30,31
 347 531 347 531 382 514.5 c 128,-1,32
 417 498 417 498 435.5 468.5 c 128,-1,33
 454 439 454 439 454 399 c 0,34,35
 454 344 454 344 422 304.5 c 128,-1,36
 390 265 390 265 337.5 239 c 128,-1,37
 285 213 285 213 221 196 c 1,38,-1
 224 212 l 1,39,40
 278 225 278 225 321.5 215.5 c 128,-1,41
 365 206 365 206 390.5 176.5 c 128,-1,42
 416 147 416 147 416 98 c 0,43,44
 416 51 416 51 390 11.5 c 128,-1,45
 364 -28 364 -28 317.5 -61 c 128,-1,46
 271 -94 271 -94 208.5 -120 c 128,-1,47
 146 -146 146 -146 72 -164.5 c 128,-1,48
 -2 -183 -2 -183 -82 -194 c 1,0,-1
EndSplineSet
Substitution2: "'smcp' Lowercase to Small Capitals lookup 46 subtable" uni021D.sc
Substitution2: "'aalt' Access All Alternates lookup 0 subtable" uni021D.sc
EndChar

StartChar: uni0220
Encoding: 544 544 465
Width: 793
GlyphClass: 2
Flags: W
AnchorPoint: "Anchor-3" 498 700 basechar 0
AnchorPoint: "Anchor-0" 356 0 basechar 0
LayerCount: 2
Fore
SplineSet
500 706 m 0,0,1
 584 706 584 706 640.5 671 c 128,-1,2
 697 636 697 636 719.5 568.5 c 128,-1,3
 742 501 742 501 722 403 c 2,4,-1
 603 -194 l 1,5,-1
 530 -194 l 1,6,-1
 650 404 l 2,7,8
 673 523 673 523 628.5 581.5 c 128,-1,9
 584 640 584 640 482 640 c 0,10,11
 385 640 385 640 315 585 c 128,-1,12
 245 530 245 530 222 413 c 2,13,-1
 139 0 l 1,14,-1
 66 0 l 1,15,-1
 206 700 l 1,16,-1
 277 700 l 1,17,-1
 242 527 l 1,18,-1
 233 557 l 1,19,20
 276 632 276 632 344.5 669 c 128,-1,21
 413 706 413 706 500 706 c 0,0,1
EndSplineSet
EndChar

StartChar: uni0222
Encoding: 546 546 466
Width: 739
GlyphClass: 1
Flags: W
LayerCount: 2
Fore
SplineSet
338 -6 m 0,0,1
 235 -6 235 -6 165.5 25 c 128,-1,2
 96 56 96 56 66 110.5 c 128,-1,3
 36 165 36 165 52 237 c 0,4,5
 66 301 66 301 109 347 c 128,-1,6
 152 393 152 393 221 417.5 c 128,-1,7
 290 442 290 442 382 442 c 0,8,9
 482 442 482 442 552.5 413.5 c 128,-1,10
 623 385 623 385 655 332.5 c 128,-1,11
 687 280 687 280 672 208 c 0,12,13
 659 143 659 143 615 94.5 c 128,-1,14
 571 46 571 46 500.5 20 c 128,-1,15
 430 -6 430 -6 338 -6 c 0,0,1
344 58 m 0,16,17
 413 58 413 58 467 76.5 c 128,-1,18
 521 95 521 95 555.5 129.5 c 128,-1,19
 590 164 590 164 599 210 c 0,20,21
 611 263 611 263 589 303.5 c 128,-1,22
 567 344 567 344 514 367 c 128,-1,23
 461 390 461 390 378 390 c 0,24,25
 310 390 310 390 256.5 371.5 c 128,-1,26
 203 353 203 353 169.5 318.5 c 128,-1,27
 136 284 136 284 125 237 c 0,28,29
 114 185 114 185 136 144.5 c 128,-1,30
 158 104 158 104 210.5 81 c 128,-1,31
 263 58 263 58 344 58 c 0,16,17
406 398 m 0,32,33
 316 398 316 398 256 424.5 c 128,-1,34
 196 451 196 451 170 498.5 c 128,-1,35
 144 546 144 546 157 612 c 2,36,-1
 175 700 l 1,37,-1
 249 700 l 1,38,-1
 229 605 l 2,39,40
 220 558 220 558 240 523 c 128,-1,41
 260 488 260 488 305 469 c 128,-1,42
 350 450 350 450 415 450 c 0,43,44
 478 450 478 450 526.5 467.5 c 128,-1,45
 575 485 575 485 605.5 518 c 128,-1,46
 636 551 636 551 645 598 c 2,47,-1
 666 700 l 1,48,-1
 739 700 l 1,49,-1
 717 590 l 2,50,51
 706 531 706 531 664 488 c 128,-1,52
 622 445 622 445 556.5 421.5 c 128,-1,53
 491 398 491 398 406 398 c 0,32,33
EndSplineSet
Substitution2: "'c2sc' Capitals to Small Capitals lookup 45 subtable" uni0223.sc
Substitution2: "'aalt' Access All Alternates lookup 0 subtable" uni0223.sc
EndChar

StartChar: uni0223
Encoding: 547 547 467
Width: 643
GlyphClass: 1
Flags: W
LayerCount: 2
Fore
SplineSet
281 -6 m 0,0,1
 196 -6 196 -6 138 24.5 c 128,-1,2
 80 55 80 55 55 110.5 c 128,-1,3
 30 166 30 166 44 240 c 0,4,5
 64 345 64 345 146.5 405.5 c 128,-1,6
 229 466 229 466 354 466 c 0,7,8
 440 466 440 466 497 437 c 128,-1,9
 554 408 554 408 577.5 354.5 c 128,-1,10
 601 301 601 301 587 229 c 0,11,12
 573 158 573 158 532 105 c 128,-1,13
 491 52 491 52 427 23 c 128,-1,14
 363 -6 363 -6 281 -6 c 0,0,1
286 55 m 0,15,16
 377 55 377 55 437.5 103.5 c 128,-1,17
 498 152 498 152 513 232 c 0,18,19
 528 314 528 314 483 365 c 128,-1,20
 438 416 438 416 344 416 c 0,21,22
 253 416 253 416 193 368 c 128,-1,23
 133 320 133 320 118 241 c 0,24,25
 108 186 108 186 125 143.5 c 128,-1,26
 142 101 142 101 183 78 c 128,-1,27
 224 55 224 55 286 55 c 0,15,16
356 425 m 0,28,29
 278 425 278 425 227 450 c 128,-1,30
 176 475 176 475 156 521.5 c 128,-1,31
 136 568 136 568 148 632 c 2,32,-1
 171 742 l 1,33,-1
 243 742 l 1,34,-1
 221 629 l 2,35,36
 206 557 206 557 244 515.5 c 128,-1,37
 282 474 282 474 363 474 c 256,38,39
 444 474 444 474 498.5 515 c 128,-1,40
 553 556 553 556 567 629 c 2,41,-1
 590 742 l 1,42,-1
 663 742 l 1,43,-1
 641 632 l 2,44,45
 621 534 621 534 546 479.5 c 128,-1,46
 471 425 471 425 356 425 c 0,28,29
EndSplineSet
Substitution2: "'smcp' Lowercase to Small Capitals lookup 46 subtable" uni0223.sc
Substitution2: "'aalt' Access All Alternates lookup 0 subtable" uni0223.sc
EndChar

